<svg width="59" height="59" viewBox="0 0 59 59" fill="none" xmlns="http://www.w3.org/2000/svg">
<g clip-path="url(#clip0_502_62)">
<path d="M42.8847 16.1829C42.8847 13.3696 40.6489 11.0798 37.8572 10.9897V9.64697H44.6799C47.5504 9.64697 49.8776 11.9737 49.8776 14.8442V24.7116C49.8776 25.0159 49.6304 25.2626 49.3261 25.2626C45.7683 25.2626 42.8843 22.3786 42.8843 18.8212V16.1829H42.8847Z" fill="#FFA300"/>
<path d="M39.9589 13.0581H40.4536C41.2386 13.0581 41.8746 12.4217 41.8746 11.6371V9.63982C41.8746 8.85524 41.2381 8.21875 40.4536 8.21875H39.9589C39.1738 8.21875 38.5378 8.85524 38.5378 9.63982V11.6371C38.5378 12.4217 39.1738 13.0581 39.9589 13.0581Z" fill="#DD5298"/>
<path d="M44.6799 9.64697H41.5019C44.3724 9.64697 46.6992 11.9737 46.6992 14.8442V24.7026C47.5018 25.0614 48.3903 25.2626 49.3262 25.2626C49.6304 25.2626 49.8776 25.0159 49.8776 24.7112V14.8442C49.8776 11.9737 47.5504 9.64697 44.6799 9.64697Z" fill="#FF8B00"/>
<path d="M40.4176 8.21875H39.9944C39.8702 8.21875 39.7505 8.23631 39.6352 8.26556C40.2659 8.42581 40.7327 8.99523 40.7327 9.67583V11.6015C40.7327 12.2817 40.2659 12.8515 39.6352 13.0118C39.7505 13.041 39.8702 13.0581 39.9944 13.0581H40.4176C41.2224 13.0581 41.8746 12.4059 41.8746 11.6015V9.67583C41.8746 8.87099 41.2224 8.21875 40.4176 8.21875Z" fill="#C93F84"/>
<path d="M16.2643 16.1829C16.2643 13.3696 18.4996 11.0798 21.2914 10.9897V9.64697H14.4687C11.5982 9.64697 9.27097 11.9737 9.27097 14.8442V24.7116C9.27097 25.0159 9.51809 25.2626 9.82238 25.2626C13.3802 25.2626 16.2643 22.3786 16.2643 18.8212V16.1829Z" fill="#FFA300"/>
<path d="M18.1134 10.9897C15.3217 11.0798 13.0859 13.3696 13.0859 16.1829V18.8212C13.0859 21.4428 11.5189 23.697 9.27097 24.7026V24.7116C9.27097 25.0159 9.51809 25.2626 9.82238 25.2626C13.3802 25.2626 16.2643 22.3786 16.2643 18.8212V16.1829C16.2643 13.3696 18.4996 11.0798 21.2914 10.9897H18.1134Z" fill="#FF8B00"/>
<path d="M19.1897 13.0581H18.695C17.9104 13.0581 17.2739 12.4217 17.2739 11.6371V9.63982C17.2739 8.85524 17.9104 8.21875 18.695 8.21875H19.1897C19.9747 8.21875 20.6107 8.85524 20.6107 9.63982V11.6371C20.6107 12.4217 19.9747 13.0581 19.1897 13.0581Z" fill="#DD5298"/>
<path d="M19.1541 8.21875H18.731C18.6067 8.21875 18.4865 8.23631 18.3718 8.26556C19.002 8.42581 19.4692 8.99523 19.4692 9.67583V11.6015C19.4692 12.2817 19.002 12.8515 18.3718 13.0118C18.4865 13.041 18.6067 13.0581 18.731 13.0581H19.1541C19.9585 13.0581 20.6107 12.4059 20.6107 11.6015V9.67583C20.6107 8.87099 19.9585 8.21875 19.1541 8.21875Z" fill="#C93F84"/>
<path d="M41.1814 16.9939H40.9613V15.2199C40.9613 9.67789 36.4685 5.18555 30.9269 5.18555H28.2522C22.7102 5.18555 18.2178 9.67789 18.2178 15.2199V16.9939H17.7236C16.5379 16.9939 15.5769 17.9554 15.5769 19.1411V20.1309C15.5769 21.7784 16.9125 23.1139 18.5599 23.1139C18.6905 23.1139 18.8183 23.1004 18.9426 23.0779C20.4267 26.765 24.034 29.3686 28.2522 29.3686H30.9269C35.1411 29.3686 38.7462 26.769 40.233 23.0874C40.3424 23.1031 40.4536 23.1139 40.5679 23.1139C42.1942 23.1139 43.5127 21.7955 43.5127 20.1692V19.3256C43.5131 18.0378 42.4693 16.9939 41.1814 16.9939Z" fill="#FFC5B2"/>
<path d="M41.1814 16.9939H40.9613V15.2199C40.9613 9.67789 36.4685 5.18555 30.9269 5.18555H28.2522C28.2059 5.18555 28.1608 5.18825 28.1149 5.18915C33.5931 5.26297 38.0116 9.72425 38.0116 15.2199V19.3342C38.0116 24.8299 33.5931 29.2911 28.1149 29.365C28.1608 29.3659 28.2059 29.3686 28.2522 29.3686H30.9269C35.1411 29.3686 38.7462 26.769 40.233 23.0874C40.3424 23.1031 40.4536 23.1139 40.5679 23.1139C42.1942 23.1139 43.5127 21.7955 43.5127 20.1692V19.3256C43.5131 18.0378 42.4693 16.9939 41.1814 16.9939Z" fill="#FFAE92"/>
<path d="M26.2941 12.5124H32.885C36.1971 12.5124 39.1338 14.118 40.9613 16.5929V15.2199C40.9613 9.67789 36.469 5.18555 30.9269 5.18555H28.2522C22.7102 5.18555 18.2178 9.67789 18.2178 15.2199V16.5929C20.0454 14.118 22.9816 12.5124 26.2941 12.5124Z" fill="#FFA300"/>
<path d="M30.9269 5.18555H28.2522C27.8831 5.18555 27.5189 5.2067 27.1602 5.24586C31.4315 5.70815 34.8962 8.85009 35.8437 12.9562C37.9161 13.595 39.7018 14.8877 40.9613 16.5929V15.2199C40.9613 9.67789 36.4685 5.18555 30.9269 5.18555Z" fill="#FF8B00"/>
<path d="M26.6403 18.3531C26.6403 19.081 26.0502 19.6711 25.3218 19.6711C24.594 19.6711 24.0038 19.081 24.0038 18.3531C24.0038 17.6248 24.594 17.0347 25.3218 17.0347C26.0502 17.0347 26.6403 17.6248 26.6403 18.3531Z" fill="#BC693F"/>
<path d="M35.1748 18.3531C35.1748 19.081 34.5852 19.6711 33.8568 19.6711C33.129 19.6711 32.5388 19.081 32.5388 18.3531C32.5388 17.6248 33.129 17.0347 33.8568 17.0347C34.5852 17.0347 35.1748 17.6248 35.1748 18.3531Z" fill="#BC693F"/>
<path d="M29.5896 25.9826C31.8772 25.9826 33.7605 24.2527 34.0036 22.0299C34.0319 21.7702 33.8285 21.542 33.567 21.542H25.6122C25.3507 21.542 25.1472 21.7702 25.1756 22.0299C25.4186 24.2527 27.302 25.9826 29.5896 25.9826Z" fill="white"/>
<path d="M56.6683 41.6184H56.4482V39.8445C56.4482 34.3024 51.9559 29.8101 46.4138 29.8101H43.7391C38.1975 29.8101 33.7047 34.3024 33.7047 39.8445V41.6184H33.2109C32.0248 41.6184 31.0638 42.5799 31.0638 43.7656V44.7554C31.0638 46.4029 32.3993 47.7385 34.0468 47.7385C34.1778 47.7385 34.3052 47.725 34.4294 47.7024C35.9135 51.389 39.5214 53.9931 43.7391 53.9931H46.4138C50.6284 53.9931 54.2335 51.3935 55.7199 47.7119C55.8297 47.7277 55.9409 47.7385 56.0548 47.7385C57.6816 47.7385 59 46.42 59 44.7937V43.9501C59 42.6623 57.9562 41.6184 56.6683 41.6184Z" fill="#FFC5B2"/>
<path d="M56.6683 41.6184H56.4482V39.8445C56.4482 34.3024 51.9558 29.8101 46.4138 29.8101H43.7391C43.6932 29.8101 43.6477 29.8128 43.6018 29.8137C49.0799 29.8875 53.4989 34.3488 53.4989 39.8445V43.9587C53.4989 49.4544 49.0799 53.9156 43.6018 53.9895C43.6477 53.9904 43.6932 53.9931 43.7391 53.9931H46.4138C50.6284 53.9931 54.2335 51.3935 55.7199 47.7119C55.8297 47.7277 55.9409 47.7385 56.0548 47.7385C57.6816 47.7385 59 46.42 59 44.7937V43.9501C59 42.6623 57.9561 41.6184 56.6683 41.6184Z" fill="#FFAE92"/>
<path d="M41.781 37.1369H48.3719C51.6844 37.1369 54.6207 38.7425 56.4482 41.2174V39.8445C56.4482 34.3024 51.9559 29.8101 46.4138 29.8101H43.7391C38.1975 29.8101 33.7047 34.3024 33.7047 39.8445V41.2174C35.5323 38.7425 38.4689 37.1369 41.781 37.1369Z" fill="#FFC50D"/>
<path d="M42.1272 42.9772C42.1272 43.7055 41.537 44.2956 40.8092 44.2956C40.0813 44.2956 39.4912 43.7055 39.4912 42.9772C39.4912 42.2493 40.0813 41.6592 40.8092 41.6592C41.537 41.6592 42.1272 42.2493 42.1272 42.9772Z" fill="#257EDF"/>
<path d="M50.6622 42.9772C50.6622 43.7055 50.072 44.2956 49.3442 44.2956C48.6163 44.2956 48.0262 43.7055 48.0262 42.9772C48.0262 42.2493 48.6163 41.6592 49.3442 41.6592C50.072 41.6592 50.6622 42.2493 50.6622 42.9772Z" fill="#257EDF"/>
<path d="M45.0764 50.6071C47.364 50.6071 49.2474 48.8772 49.4905 46.6544C49.5188 46.3943 49.3154 46.1665 49.0538 46.1665H41.0991C40.838 46.1665 40.6341 46.3943 40.6624 46.6544C40.9055 48.8772 42.7889 50.6071 45.0764 50.6071Z" fill="white"/>
<path d="M25.6045 41.6184H25.3844V39.8445C25.3844 34.3024 20.8921 29.8101 15.35 29.8101H12.6753C7.13328 29.8101 2.64094 34.3024 2.64094 39.8445V41.6184H2.14714C0.961037 41.6184 0 42.5799 0 43.7656V44.7554C0 46.4029 1.33555 47.7385 2.98304 47.7385C3.11403 47.7385 3.24142 47.725 3.36565 47.7024C4.84975 51.389 8.45757 53.9931 12.6753 53.9931H15.35C19.5642 53.9931 23.1698 51.3935 24.6561 47.7119C24.7655 47.7277 24.8771 47.7385 24.991 47.7385C26.6173 47.7385 27.9362 46.42 27.9362 44.7937V43.9501C27.9362 42.6623 26.8924 41.6184 25.6045 41.6184Z" fill="#FFC5B2"/>
<path d="M25.6045 41.6184H25.3844V39.8445C25.3844 34.3024 20.8921 29.8101 15.35 29.8101H12.6753C12.6294 29.8101 12.584 29.8128 12.538 29.8137C18.0162 29.8875 22.4351 34.3488 22.4351 39.8445V43.9587C22.4351 49.4544 18.0162 53.9156 12.538 53.9895C12.584 53.9904 12.6294 53.9931 12.6753 53.9931H15.35C19.5642 53.9931 23.1698 51.3935 24.6561 47.7119C24.7655 47.7277 24.8771 47.7385 24.991 47.7385C26.6173 47.7385 27.9362 46.42 27.9362 44.7937V43.9501C27.9362 42.6623 26.8924 41.6184 25.6045 41.6184Z" fill="#FFAE92"/>
<path d="M10.7172 37.1369H17.3081C20.6206 37.1369 23.5569 38.7425 25.3844 41.2174V39.8445C25.3844 34.3024 20.8921 29.8101 15.35 29.8101H12.6753C7.13372 29.8101 2.64093 34.3024 2.64093 39.8445V41.2174C4.46848 38.7425 7.40515 37.1369 10.7172 37.1369Z" fill="#824A25"/>
<path d="M46.4138 29.8101H43.7391C43.4024 29.8101 43.0697 29.8272 42.7411 29.8596C47.0782 30.2881 50.6009 33.4778 51.5332 37.6464C53.5192 38.3054 55.2301 39.5681 56.4482 41.2174V39.8445C56.4482 34.3024 51.9558 29.8101 46.4138 29.8101Z" fill="#FFA300"/>
<path d="M15.35 29.8101H12.6753C12.3386 29.8101 12.0055 29.8272 11.6774 29.8596C16.0144 30.2881 19.5372 33.4778 20.4694 37.6464C22.4554 38.3054 24.1664 39.5681 25.3844 41.2174V39.8445C25.3844 34.3024 20.8921 29.8101 15.35 29.8101Z" fill="#703E23"/>
<path d="M11.0634 42.9772C11.0634 43.7055 10.4733 44.2956 9.74541 44.2956C9.01754 44.2956 8.42741 43.7055 8.42741 42.9772C8.42741 42.2493 9.01754 41.6592 9.74541 41.6592C10.4733 41.6592 11.0634 42.2493 11.0634 42.9772Z" fill="#703E23"/>
<path d="M19.5984 42.9772C19.5984 43.7055 19.0083 44.2956 18.2804 44.2956C17.5521 44.2956 16.9619 43.7055 16.9619 42.9772C16.9619 42.2493 17.5521 41.6592 18.2804 41.6592C19.0083 41.6592 19.5984 42.2493 19.5984 42.9772Z" fill="#703E23"/>
<path d="M14.0127 50.6071C16.3003 50.6071 18.1836 48.8772 18.4267 46.6544C18.4551 46.3943 18.2516 46.1665 17.9901 46.1665H10.0353C9.77377 46.1665 9.57031 46.3943 9.59867 46.6544C9.84174 48.8772 11.7251 50.6071 14.0127 50.6071Z" fill="white"/>
</g>
<defs>
<clipPath id="clip0_502_62">
<rect width="59" height="59" fill="white"/>
</clipPath>
</defs>
</svg>
