<svg width="30" height="26" viewBox="0 0 30 26" fill="none" xmlns="http://www.w3.org/2000/svg">
<path fill-rule="evenodd" clip-rule="evenodd" d="M13.4114 0.612088C10.491 0.974633 7.81858 2.17077 5.63297 4.09348C2.89759 6.49991 1.1887 9.70686 0.710106 13.3316C0.401955 15.6659 0.669197 18.0863 1.49135 20.408C1.75975 21.1659 2.44487 22.5408 2.92509 23.2853C3.31532 23.8903 3.9102 24.6738 4.41677 25.2501L4.64855 25.5137L4.68595 25.0638C4.75917 24.1829 4.96204 23.4738 5.3199 22.8478C5.52345 22.4918 6.19815 21.8205 6.57581 21.5983C6.85484 21.434 6.89182 21.3926 6.9057 21.2282C6.9222 21.0322 6.91722 21.024 6.31171 20.2483C5.95432 19.7905 5.59337 19.0585 5.4454 18.4915C5.30654 17.9593 5.25364 16.8405 5.33933 16.2468C5.4212 15.679 5.61826 14.889 5.78933 14.4425C6.04122 13.785 6.5865 12.702 6.93906 12.159L7.28294 11.6294V10.4954C7.28294 9.87163 7.29829 9.3613 7.31704 9.3613C7.33579 9.3613 8.74413 9.83032 10.4467 10.4035C12.1493 10.9768 13.6955 11.4794 13.8828 11.5206C14.3269 11.6182 15.3394 11.6173 15.7423 11.519C15.9151 11.4768 17.4295 10.9769 19.1077 10.408L22.1588 9.37375V10.4845V11.5953L22.4944 12.0621C23.3347 13.2313 23.9393 14.5054 24.264 15.7917C24.422 16.4178 24.4346 16.5302 24.4316 17.2936C24.4291 17.9644 24.4074 18.1985 24.3156 18.5447C24.1527 19.1592 23.7935 19.8544 23.3394 20.4346C22.9833 20.8894 22.9448 20.9611 22.9571 21.1466C22.97 21.3427 22.9894 21.3637 23.3508 21.5725C24.5618 22.2723 25.2075 23.4244 25.3313 25.1062C25.3512 25.377 25.379 25.5986 25.393 25.5986C25.407 25.5986 25.5542 25.4489 25.7201 25.2659C28.8078 21.8583 30.1289 17.3505 29.3816 12.7729C28.9169 9.92604 27.571 7.2028 25.5973 5.11595C23.4023 2.79502 20.7494 1.33303 17.6803 0.752953C17.0009 0.624545 16.8238 0.613419 15.2709 0.601813C14.349 0.594945 13.5122 0.599577 13.4114 0.612088ZM15.3448 4.03886C15.7059 4.0865 17.1743 4.56473 23.6252 6.73553C25.3527 7.31683 25.5362 7.42778 25.2378 7.71036C25.163 7.78116 23.4882 8.36896 20.5367 9.36028C15.8647 10.9295 15.7167 10.9757 15.1635 11.0375C14.49 11.1127 14.2136 11.0342 9.43916 9.41102C6.94855 8.56428 4.83753 7.82817 4.74807 7.7752C4.54819 7.65691 4.51095 7.47319 4.66018 7.34164C4.785 7.23154 4.95319 7.17218 10.1634 5.39822C14.4011 3.95533 14.505 3.92807 15.3448 4.03886ZM8.80195 13.3776C8.80195 13.4491 8.82783 13.5238 8.85947 13.5436C8.89111 13.5635 8.98539 13.6894 9.06899 13.8234C9.30423 14.2004 9.28432 14.4897 8.99838 14.8476C8.55058 15.408 8.47568 15.5162 8.31791 15.8296C8.07786 16.3066 7.96283 16.7332 7.9303 17.267C7.82999 18.9124 8.87466 20.2845 10.4512 20.5782C11.5067 20.7749 12.6453 20.401 13.4609 19.5899L13.767 19.2855L13.801 19.5805C13.8731 20.2042 14.3105 21.1077 14.846 21.7389L15.0267 21.9519L15.2273 21.7174C15.7376 21.1211 16.1834 20.2838 16.2647 19.7692C16.3444 19.264 16.3091 19.2732 16.7133 19.6536C17.7816 20.6589 19.2907 20.9119 20.535 20.2943C20.8257 20.15 21.0317 19.9929 21.3271 19.69C21.9476 19.0538 22.2112 18.3844 22.2112 17.4446C22.2112 16.5713 21.9186 15.7901 21.3204 15.066C21.1541 14.8645 20.9917 14.6501 20.9598 14.5894C20.833 14.3487 20.9295 13.9879 21.2204 13.6145C21.4928 13.2651 21.4321 13.2258 20.6777 13.2637C19.4688 13.3243 18.2888 13.6115 17.3661 14.0696C16.6193 14.4403 16.1857 14.8559 15.8731 15.5003C15.4903 16.2898 15.4195 17.0127 15.6388 17.8935C15.6742 18.0353 15.6703 18.0388 15.5353 17.9867C15.3526 17.9161 14.6905 17.9167 14.5603 17.9876C14.4391 18.0535 14.4376 18.0345 14.5381 17.6978C14.6383 17.362 14.6371 16.6187 14.5356 16.1811C14.1712 14.6097 12.7486 13.6804 10.1638 13.3253C9.86134 13.2837 9.43114 13.2492 9.2079 13.2487C8.81217 13.2476 8.80195 13.2509 8.80195 13.3776ZM11.0365 14.7359C10.4032 15.4483 10.381 16.5097 10.9851 17.1914C11.9013 18.2251 13.5685 17.3036 13.5685 15.7635C13.5685 15.435 13.6203 15.4358 13.7868 15.7667C14.0277 16.2457 14.1078 16.9548 13.9833 17.5066C13.7411 18.5804 12.8135 19.4776 11.6947 19.7205C11.3199 19.8017 11.2066 19.8058 10.8566 19.7506C9.10927 19.4748 8.27522 17.6503 9.14934 16.0159C9.48017 15.3974 10.0828 14.8746 10.7433 14.6332C11.1979 14.4671 11.2569 14.4878 11.0365 14.7359ZM19.4534 14.6535C20.3145 14.9829 20.9421 15.6651 21.2457 16.6016C21.3737 16.9963 21.3731 17.7009 21.2444 18.0922C21.0657 18.6354 20.6396 19.1861 20.1901 19.4548C19.9442 19.6017 19.2455 19.7962 18.9684 19.7949C18.6426 19.7933 18.0595 19.643 17.7182 19.4727C16.6285 18.9288 15.932 17.6299 16.129 16.5091C16.1938 16.1408 16.3626 15.712 16.5222 15.5102C16.6023 15.409 16.6049 15.4143 16.5759 15.6167C16.5363 15.8929 16.6739 16.4911 16.8455 16.7886C17.4057 17.7602 18.6465 17.9151 19.2625 17.0905C19.745 16.4444 19.6818 15.3692 19.1231 14.7225C18.9171 14.484 18.9774 14.4714 19.4534 14.6535Z" fill="#314F9C"/>
</svg>
