<svg width="80" height="80" viewBox="0 0 80 80" fill="none" xmlns="http://www.w3.org/2000/svg">
<path d="M25 56.0349C25 53.4199 23.9825 50.9624 22.1338 49.1162L21.25 48.2324L20.3662 49.1162C18.5175 50.9637 17.5 53.4199 17.5 56.0349V65.4774C16.7312 66.3562 16.25 67.4924 16.25 68.7499C16.25 71.5074 18.4925 73.7499 21.25 73.7499C24.0075 73.7499 26.25 71.5074 26.25 68.7499C26.25 67.4937 25.7688 66.3574 25 65.4774V56.0349ZM21.25 51.9512C22.0625 53.1474 22.5 54.5574 22.5 56.0362V63.9287C22.0975 63.8224 21.6838 63.7499 21.25 63.7499C20.8162 63.7499 20.4025 63.8224 20 63.9274V56.0349C20 54.5574 20.4375 53.1474 21.25 51.9512ZM21.25 71.2499C19.8712 71.2499 18.75 70.1287 18.75 68.7499C18.75 67.3712 19.8712 66.2499 21.25 66.2499C22.6287 66.2499 23.75 67.3712 23.75 68.7499C23.75 70.1287 22.6287 71.2499 21.25 71.2499Z" fill="#FF9B0D"/>
<path d="M76.7688 55.89L71.25 53.8212V23.75H61.25V52.5H56.25V37.5H46.25V52.5H41.25V30H31.25V41.4563C29.7013 40.5575 28.0238 39.8675 26.25 39.4088V23.75H16.25V39.4088C7.63875 41.6375 1.25 49.4513 1.25 58.75C1.25 69.7775 10.2225 78.75 21.25 78.75C30.0938 78.75 37.6037 72.9738 40.2362 65H67.7262L76.7688 61.6087C77.9538 61.1637 78.75 60.015 78.75 58.75C78.75 57.485 77.9538 56.3363 76.7688 55.89ZM46.25 55H66.25V57.5H46.25V55ZM46.25 60H66.25V62.5H46.25V60ZM63.75 26.25H68.75V52.8837L67.7262 52.5H63.75V26.25ZM48.75 40H53.75V52.5H48.75V40ZM7.93 51.8787L5.62125 50.9225C6.27875 49.615 7.09 48.4025 8.04125 47.3063L9.8125 49.0775C9.085 49.9363 8.45125 50.8725 7.93 51.8787ZM6.975 54.19C6.63625 55.2488 6.3975 56.3537 6.3025 57.5H3.81375C3.91875 56.0175 4.20375 54.5875 4.65625 53.2288L6.975 54.19ZM11.58 47.3125L9.8075 45.54C10.9025 44.59 12.1163 43.7775 13.4237 43.12L14.3775 45.4225C13.37 45.9438 12.4375 46.585 11.58 47.3125ZM16.6887 44.4712L15.73 42.1562C17.0875 41.7037 18.5187 41.4187 20 41.3137V43.81C18.8538 43.905 17.7475 44.1325 16.6887 44.4712ZM22.5 41.3137C23.9813 41.4187 25.4125 41.7037 26.77 42.1562L25.8113 44.4712C24.7525 44.1325 23.6462 43.905 22.5 43.81V41.3137ZM29.0775 43.12C30.385 43.7775 31.5975 44.5887 32.6938 45.54L30.9212 47.3125C30.0625 46.5862 29.1313 45.9438 28.1238 45.4225L29.0775 43.12ZM34.46 47.3075C35.41 48.4025 36.2225 49.6162 36.88 50.9237L34.5713 51.88C34.05 50.8738 33.4163 49.9375 32.69 49.08L34.46 47.3075ZM37.8438 53.2288C38.2962 54.5863 38.5812 56.0175 38.6862 57.5H36.1975C36.1025 56.3537 35.8638 55.2488 35.5238 54.19L37.8438 53.2288ZM33.75 32.5H38.75V49.0887C37.4813 46.8 35.7762 44.79 33.75 43.1625V32.5ZM18.75 26.25H23.75V38.9237C22.9287 38.82 22.0987 38.75 21.25 38.75C20.4013 38.75 19.5713 38.82 18.75 38.9237V26.25ZM21.25 76.25C12.0225 76.25 4.45875 69.0662 3.81375 60H8.75V58.75C8.75 51.8575 14.3575 46.25 21.25 46.25C28.1425 46.25 33.75 51.8575 33.75 58.75V60H38.6862C38.0412 69.0662 30.4775 76.25 21.25 76.25ZM40.885 55H43.75V62.5H40.885C41.1175 61.2837 41.25 60.0325 41.25 58.75C41.25 57.4675 41.1175 56.2163 40.885 55ZM75.89 59.2688L68.75 61.9463V55.5538L75.8887 58.23C76.105 58.3112 76.25 58.52 76.25 58.75C76.25 58.98 76.105 59.1888 75.89 59.2688Z" fill="#FF9B0D"/>
<path d="M66.25 16.25C69.0075 16.25 71.25 14.0075 71.25 11.25C71.25 8.4925 69.0075 6.25 66.25 6.25C63.4925 6.25 61.25 8.4925 61.25 11.25C61.25 14.0075 63.4925 16.25 66.25 16.25ZM66.25 8.75C67.6287 8.75 68.75 9.87125 68.75 11.25C68.75 12.6287 67.6287 13.75 66.25 13.75C64.8712 13.75 63.75 12.6287 63.75 11.25C63.75 9.87125 64.8712 8.75 66.25 8.75Z" fill="#FF9B0D"/>
<path d="M7.5 30C10.9462 30 13.75 27.1963 13.75 23.75C13.75 22.965 13.5887 22.22 13.3225 21.5263L16.765 19.335C17.9025 20.5112 19.4888 21.25 21.25 21.25C23.5575 21.25 25.555 19.9788 26.6375 18.1125L28.8475 18.85C28.7887 19.2262 28.75 19.6075 28.75 20C28.75 24.1362 32.1138 27.5 36.25 27.5C38.3975 27.5 40.3325 26.5875 41.7012 25.1362L46.5475 28.3675C46.3675 28.8813 46.25 29.425 46.25 30C46.25 32.7575 48.4925 35 51.25 35C54.0075 35 56.25 32.7575 56.25 30C56.25 28.8775 55.865 27.8513 55.2388 27.0163L61.0375 19.7675C62.5575 20.7013 64.3387 21.25 66.25 21.25C71.7637 21.25 76.25 16.7638 76.25 11.25C76.25 5.73625 71.7637 1.25 66.25 1.25C60.7363 1.25 56.25 5.73625 56.25 11.25C56.25 13.9538 57.3325 16.4062 59.0825 18.2087L53.2925 25.4475C52.6675 25.165 51.9787 25 51.25 25C49.9725 25 48.8187 25.4962 47.9338 26.2862L43.0912 23.0575C43.5112 22.1225 43.75 21.09 43.75 20C43.75 15.8638 40.3862 12.5 36.25 12.5C33.3875 12.5 30.8962 14.1138 29.6325 16.4775L27.425 15.7413C27.455 15.495 27.5 15.2537 27.5 15C27.5 11.5538 24.6963 8.75 21.25 8.75C17.8037 8.75 15 11.5538 15 15C15 15.7863 15.1613 16.53 15.4275 17.2238L11.985 19.415C10.8475 18.2388 9.26125 17.5 7.5 17.5C4.05375 17.5 1.25 20.3037 1.25 23.75C1.25 27.1963 4.05375 30 7.5 30ZM66.25 3.75C70.3863 3.75 73.75 7.11375 73.75 11.25C73.75 15.3862 70.3863 18.75 66.25 18.75C62.1138 18.75 58.75 15.3862 58.75 11.25C58.75 7.11375 62.1138 3.75 66.25 3.75ZM51.25 27.5C52.6287 27.5 53.75 28.6213 53.75 30C53.75 31.3787 52.6287 32.5 51.25 32.5C49.8713 32.5 48.75 31.3787 48.75 30C48.75 28.6213 49.8713 27.5 51.25 27.5ZM36.25 15C39.0075 15 41.25 17.2425 41.25 20C41.25 22.7575 39.0075 25 36.25 25C33.4925 25 31.25 22.7575 31.25 20C31.25 17.2425 33.4925 15 36.25 15ZM21.25 11.25C23.3175 11.25 25 12.9325 25 15C25 17.0675 23.3175 18.75 21.25 18.75C19.1825 18.75 17.5 17.0675 17.5 15C17.5 12.9325 19.1825 11.25 21.25 11.25ZM7.5 20C9.5675 20 11.25 21.6825 11.25 23.75C11.25 25.8175 9.5675 27.5 7.5 27.5C5.4325 27.5 3.75 25.8175 3.75 23.75C3.75 21.6825 5.4325 20 7.5 20Z" fill="url(#paint0_linear_505_313)"/>
<defs>
<linearGradient id="paint0_linear_505_313" x1="38.75" y1="1.25" x2="38.75" y2="35" gradientUnits="userSpaceOnUse">
<stop stop-color="#7EC13D"/>
<stop offset="1" stop-color="#51891B"/>
</linearGradient>
</defs>
</svg>
