<svg width="80" height="80" viewBox="0 0 80 80" fill="none" xmlns="http://www.w3.org/2000/svg">
<path d="M8.75 62.5H11.25V76.25H8.75V62.5Z" fill="#FF9B0D"/>
<path d="M68.75 62.5H71.25V76.25H68.75V62.5Z" fill="#FF9B0D"/>
<path d="M76.25 76.25V62.5C76.25 60.8424 75.5915 59.2527 74.4194 58.0806C73.2473 56.9085 71.6576 56.25 70 56.25H68.9375C70.1366 55.4123 71.0372 54.2139 71.5084 52.8292C71.9797 51.4445 71.997 49.9455 71.5579 48.5503C71.1188 47.1551 70.2461 45.9362 69.0667 45.071C67.8873 44.2058 66.4627 43.7393 65 43.7393C63.5373 43.7393 62.1127 44.2058 60.9333 45.071C59.7539 45.9362 58.8812 47.1551 58.4421 48.5503C58.003 49.9455 58.0203 51.4445 58.4916 52.8292C58.9628 54.2139 59.8634 55.4123 61.0625 56.25H58.1375C56.6613 56.2492 55.2177 56.684 53.9875 57.5L48.2875 61.25L40 62.5L31.7125 61.25L26.0125 57.5C24.7823 56.684 23.3387 56.2492 21.8625 56.25H18.9375C20.1366 55.4123 21.0372 54.2139 21.5084 52.8292C21.9797 51.4445 21.997 49.9455 21.5579 48.5503C21.1187 47.1551 20.2461 45.9362 19.0667 45.071C17.8873 44.2058 16.4627 43.7393 15 43.7393C13.5373 43.7393 12.1127 44.2058 10.9333 45.071C9.75393 45.9362 8.88125 47.1551 8.44213 48.5503C8.003 49.9455 8.02032 51.4445 8.49158 52.8292C8.96283 54.2139 9.86344 55.4123 11.0625 56.25H10C8.3424 56.25 6.75269 56.9085 5.58058 58.0806C4.40848 59.2527 3.75 60.8424 3.75 62.5V76.25H6.25V62.5C6.25 61.5054 6.64509 60.5516 7.34835 59.8484C8.05161 59.1451 9.00544 58.75 10 58.75H21.8625C22.8499 58.749 23.8155 59.0405 24.6375 59.5875L30.5625 63.5375C30.7131 63.6475 30.8897 63.7164 31.075 63.7375L38.75 64.8375V66.25H31.55L24.3125 62.6375C24.1222 62.5416 23.9106 62.496 23.6977 62.5049C23.4848 62.5138 23.2777 62.577 23.0961 62.6885C22.9145 62.7999 22.7644 62.956 22.6601 63.1418C22.5557 63.3276 22.5006 63.5369 22.5 63.75V76.25H25V65.775L30.6875 68.6125C30.8617 68.7017 31.0543 68.7488 31.25 68.75H48.75C48.9457 68.7488 49.1383 68.7017 49.3125 68.6125L55 65.775V76.25H57.5V63.75C57.4994 63.5369 57.4443 63.3276 57.3399 63.1418C57.2356 62.956 57.0855 62.7999 56.9039 62.6885C56.7223 62.577 56.5152 62.5138 56.3023 62.5049C56.0894 62.496 55.8778 62.5416 55.6875 62.6375L48.45 66.25H41.25V64.8375L48.925 63.75C49.1103 63.7289 49.2869 63.66 49.4375 63.55L55.3625 59.6C56.1831 59.0485 57.1488 58.7527 58.1375 58.75H70C70.9946 58.75 71.9484 59.1451 72.6516 59.8484C73.3549 60.5516 73.75 61.5054 73.75 62.5V76.25H76.25ZM15 55C14.1347 55 13.2888 54.7434 12.5694 54.2627C11.8499 53.782 11.2892 53.0987 10.958 52.2993C10.6269 51.4998 10.5403 50.6202 10.7091 49.7715C10.8779 48.9228 11.2946 48.1433 11.9064 47.5314C12.5183 46.9196 13.2978 46.5029 14.1465 46.3341C14.9951 46.1653 15.8748 46.2519 16.6742 46.583C17.4737 46.9142 18.1569 47.4749 18.6377 48.1944C19.1184 48.9139 19.375 49.7597 19.375 50.625C19.375 51.7853 18.9141 52.8981 18.0936 53.7186C17.2731 54.5391 16.1603 55 15 55ZM65 55C64.1347 55 63.2888 54.7434 62.5694 54.2627C61.8499 53.782 61.2892 53.0987 60.958 52.2993C60.6269 51.4998 60.5403 50.6202 60.7091 49.7715C60.8779 48.9228 61.2946 48.1433 61.9064 47.5314C62.5183 46.9196 63.2978 46.5029 64.1465 46.3341C64.9951 46.1653 65.8748 46.2519 66.6742 46.583C67.4737 46.9142 68.157 47.4749 68.6377 48.1944C69.1184 48.9139 69.375 49.7597 69.375 50.625C69.375 51.7853 68.9141 52.8981 68.0936 53.7186C67.2731 54.5391 66.1603 55 65 55Z" fill="#FF9B0D"/>
<path d="M38.75 51.25H41.25V56.25H38.75V51.25Z" fill="#FF9B0D"/>
<path d="M43.5375 57.0127L46.5475 53.0177L48.545 54.5227L45.535 58.5177L43.5375 57.0127Z" fill="#FF9B0D"/>
<path d="M31.5312 54.5166L33.5288 53.0116L36.5388 57.0066L34.5413 58.5116L31.5312 54.5166Z" fill="#FF9B0D"/>
<path d="M39.425 20.9121C39.1908 20.6793 38.874 20.5486 38.5438 20.5486C38.2135 20.5486 37.8967 20.6793 37.6625 20.9121L21.75 36.8246C21.5172 37.0588 21.3865 37.3756 21.3865 37.7059C21.3865 38.0361 21.5172 38.3529 21.75 38.5871L25.2875 42.1246C25.4043 42.2405 25.5428 42.3321 25.6951 42.3943C25.8474 42.4565 26.0105 42.4881 26.175 42.4871C26.503 42.4857 26.8172 42.3555 27.05 42.1246L38.55 30.6371L43.85 35.9371C44.0842 36.1699 44.401 36.3006 44.7313 36.3006C45.0615 36.3006 45.3783 36.1699 45.6125 35.9371L63.8625 17.6996L66.5 20.3371C66.6604 20.4978 66.8614 20.6118 67.0817 20.6668C67.3019 20.7219 67.5329 20.7159 67.75 20.6496C67.9616 20.5941 68.1549 20.4841 68.3106 20.3306C68.4663 20.1771 68.5791 19.9853 68.6375 19.7746L72.5 5.32461C72.5712 5.10538 72.5804 4.87073 72.5266 4.6466C72.4728 4.42247 72.358 4.21758 72.195 4.05459C72.0321 3.8916 71.8272 3.77685 71.603 3.72303C71.3789 3.66921 71.1443 3.67841 70.925 3.74961L56.475 7.66211C56.2643 7.72057 56.0726 7.8333 55.919 7.98903C55.7655 8.14477 55.6555 8.33806 55.6 8.54961C55.5337 8.7667 55.5278 8.99776 55.5828 9.21798C55.6379 9.4382 55.7518 9.63927 55.9125 9.79961L58.55 12.4371L44.7375 26.2496L39.425 20.9121ZM61.25 13.2746C61.3659 13.1578 61.4575 13.0193 61.5197 12.867C61.5819 12.7147 61.6135 12.5516 61.6125 12.3871C61.6111 12.0592 61.481 11.7449 61.25 11.5121L59.25 9.51211L69.525 6.76211L66.775 17.0371L64.7375 14.9996C64.5033 14.7668 64.1865 14.6361 63.8563 14.6361C63.526 14.6361 63.2092 14.7668 62.975 14.9996L44.7375 33.2871L39.425 27.9746C39.1908 27.7418 38.874 27.6111 38.5438 27.6111C38.2135 27.6111 37.8967 27.7418 37.6625 27.9746L26.175 39.4746L24.4 37.6996L38.55 23.5621L43.85 28.8621C44.0842 29.0949 44.401 29.2256 44.7313 29.2256C45.0615 29.2256 45.3783 29.0949 45.6125 28.8621L61.25 13.2746Z" fill="url(#paint0_linear_505_322)"/>
<path d="M18.125 12.5H19.375C19.5407 12.5 19.6997 12.5658 19.8169 12.6831C19.9341 12.8003 20 12.9592 20 13.125H22.5C22.5001 12.4046 22.2514 11.7063 21.7958 11.1482C21.3402 10.5901 20.7058 10.2066 20 10.0625V8.75H17.5V10.0625C16.7405 10.2167 16.0654 10.6476 15.6058 11.2716C15.1462 11.8955 14.9348 12.668 15.0127 13.4391C15.0905 14.2101 15.4521 14.9247 16.0273 15.4441C16.6024 15.9636 17.35 16.2508 18.125 16.25H19.375C19.5407 16.25 19.6997 16.3158 19.8169 16.4331C19.9341 16.5503 20 16.7092 20 16.875C20 17.0408 19.9341 17.1997 19.8169 17.3169C19.6997 17.4342 19.5407 17.5 19.375 17.5H18.125C17.9592 17.5 17.8002 17.4342 17.683 17.3169C17.5658 17.1997 17.5 17.0408 17.5 16.875H15C14.9852 17.6061 15.2273 18.3192 15.6841 18.8902C16.1409 19.4612 16.7835 19.8539 17.5 20V21.25H20V20C20.8288 19.9171 21.5907 19.5084 22.1182 18.8637C22.6456 18.2191 22.8954 17.3913 22.8125 16.5625C22.7296 15.7337 22.3209 14.9718 21.6762 14.4443C21.0316 13.9169 20.2038 13.6671 19.375 13.75H18.125C17.9592 13.75 17.8002 13.6842 17.683 13.5669C17.5658 13.4497 17.5 13.2908 17.5 13.125C17.5 12.9592 17.5658 12.8003 17.683 12.6831C17.8002 12.5658 17.9592 12.5 18.125 12.5Z" fill="#FF9B0D"/>
<path d="M18.75 3.75C16.525 3.75 14.3499 4.4098 12.4998 5.64597C10.6498 6.88213 9.20785 8.63914 8.35636 10.6948C7.50487 12.7505 7.28209 15.0125 7.71617 17.1948C8.15025 19.3771 9.22171 21.3816 10.7951 22.9549C12.3684 24.5283 14.373 25.5998 16.5552 26.0338C18.7375 26.4679 20.9995 26.2451 23.0552 25.3936C25.1109 24.5422 26.8679 23.1002 28.104 21.2502C29.3402 19.4001 30 17.225 30 15C30 12.0163 28.8147 9.15483 26.705 7.04505C24.5952 4.93526 21.7337 3.75 18.75 3.75ZM18.75 23.75C17.0194 23.75 15.3277 23.2368 13.8888 22.2754C12.4498 21.3139 11.3283 19.9473 10.6661 18.3485C10.0038 16.7496 9.83051 14.9903 10.1681 13.293C10.5058 11.5956 11.3391 10.0365 12.5628 8.81282C13.7865 7.58911 15.3456 6.75575 17.043 6.41813C18.7403 6.08051 20.4996 6.25379 22.0985 6.91605C23.6973 7.57832 25.0639 8.69983 26.0254 10.1388C26.9868 11.5777 27.5 13.2694 27.5 15C27.5 17.3206 26.5781 19.5462 24.9372 21.1872C23.2962 22.8281 21.0706 23.75 18.75 23.75Z" fill="#FF9B0D"/>
<defs>
<linearGradient id="paint0_linear_505_322" x1="46.9738" y1="3.68848" x2="46.9738" y2="42.4871" gradientUnits="userSpaceOnUse">
<stop stop-color="#7EC13D"/>
<stop offset="1" stop-color="#51891B"/>
</linearGradient>
</defs>
</svg>
