<svg width="80" height="80" viewBox="0 0 80 80" fill="none" xmlns="http://www.w3.org/2000/svg">
<path d="M41.25 2.50293C39.634 2.50293 38.2577 3.55268 37.7368 4.99807H6.24999C4.1941 4.99807 2.49999 6.69211 2.49999 8.74798V21.248C2.47599 22.9386 5.02405 22.9386 4.99999 21.248V8.74798C4.99999 8.03389 5.53585 7.4981 6.24999 7.4981H37.5049V9.998H8.74999C8.05966 9.99809 7.50006 10.5577 7.49999 11.248V46.248C7.50005 46.9383 8.05966 47.498 8.74999 47.498H66.25C66.9403 47.498 67.4999 46.9383 67.5 46.248V30.0005H70V48.748C70 49.4621 69.4641 49.998 68.75 49.998H6.24999C5.53585 49.998 4.99999 49.4621 4.99999 48.748V32.4981C5.02399 30.8075 2.47592 30.8075 2.49999 32.4981V48.748C2.49999 50.8039 4.1941 52.4981 6.24999 52.4981H68.75C70.8059 52.4981 72.5 50.8039 72.5 48.748V30.0005H73.7476C75.8034 30.0005 77.5049 28.299 77.5049 26.2431V6.24794C77.5049 4.19207 75.8034 2.50293 73.7476 2.50293H41.25ZM41.25 4.99316H73.7476C74.4617 4.99316 75.0049 5.53385 75.0049 6.24794V26.2431C75.0049 26.9572 74.4617 27.5004 73.7476 27.5004H52.4976C52.2012 27.4992 51.9139 27.603 51.687 27.7934L44.9951 33.5331V28.7455C44.9926 28.059 44.4365 27.5032 43.75 27.5004H41.25C40.5359 27.5004 40.0049 26.9572 40.0049 26.2431V6.24794C40.0049 5.53385 40.5359 4.99316 41.25 4.99316ZM51.2524 9.99555V22.498C51.2526 23.4779 52.3289 24.0767 53.1616 23.5601L63.1641 17.3124C63.9489 16.823 63.9489 15.6803 63.1641 15.1908L53.1616 8.93354C52.4119 8.4644 51.2524 8.88394 51.2524 9.99555ZM53.7524 12.2563L60.1391 16.2505L53.7524 20.2373V12.2563ZM9.99999 12.4982H37.5049V26.2433C37.5049 28.2992 39.1941 30.0006 41.25 30.0006H42.4951V36.2458C42.4889 37.3196 43.7508 37.9003 44.563 37.198L52.959 30.0006H65V44.9982H40C40 40.8649 36.6309 37.5055 32.4975 37.5055H31.2524V34.3219C32.7831 32.947 33.7549 30.9604 33.7549 28.7481V27.5032C34.4452 27.5007 35.0026 26.9386 35 26.2482V22.5006C35 18.3673 31.6309 14.9982 27.4976 14.9982H24.9976C20.8642 14.9982 17.5049 18.3673 17.5049 22.5006V26.2482C17.5024 26.9386 18.0597 27.5004 18.75 27.5032V28.7481C18.7499 30.9601 19.7173 32.9471 21.2475 34.3219V37.5055H19.9951C15.8617 37.5055 12.5024 40.8649 12.5024 44.9982H9.99999V12.4982ZM24.9976 17.5007H27.4976C30.2891 17.5007 32.4975 19.709 32.4975 22.5006V24.4855L30.8813 22.8692C30.46 22.4477 29.8024 22.3824 29.3066 22.7127C29.3066 22.7127 25.6896 25.0028 22.4951 25.0028H19.9951V22.5004C19.9951 19.7087 22.2059 17.5007 24.9976 17.5007ZM3.73046 24.9811C3.04106 24.9905 2.49055 25.5588 2.49999 26.2482V27.4983C2.47599 29.1888 5.02405 29.1888 4.99999 27.4983V26.2482C5.01 25.5435 4.43515 24.9701 3.73046 24.9811ZM29.7998 25.3156L31.2524 26.7731V28.7481C31.2524 31.5398 29.0441 33.7482 26.2524 33.7482C23.4608 33.7482 21.2475 31.5397 21.2475 28.7481V27.5032H22.4951C25.7002 27.5032 28.9689 25.8502 29.7998 25.3156ZM23.7524 35.8113C24.5356 36.0895 25.3756 36.2506 26.2524 36.2506C27.1301 36.2506 27.9687 36.09 28.7524 35.8113V38.5114C28.7524 38.5114 28.3289 39.9957 26.2524 39.9957C24.176 39.9957 23.7524 38.5284 23.7524 38.5284V35.8113ZM19.9951 39.9956H21.6894C21.6894 39.9956 22.7682 42.4956 26.2524 42.4956C29.7367 42.4956 30.813 39.9956 30.813 39.9956H32.4975C35.2891 39.9956 37.5 42.2065 37.5 44.9981H15.0049C15.0049 42.2065 17.2035 39.9956 19.9951 39.9956Z" fill="#FF9B0D"/>
<path fill-rule="evenodd" clip-rule="evenodd" d="M7.49512 63.2475C7.49512 59.8066 10.3116 57 13.7524 57C17.1933 57 20 59.8066 20 63.2475V64.5023C20 65.9573 19.477 67.2814 18.6377 68.3452C22.2323 68.8973 25 72.0045 25 75.75V78.2523C25.0027 78.9465 24.4393 79.5098 23.7451 79.5073H3.75C3.05968 79.5045 2.50239 78.9427 2.50489 78.2523V75.75C2.50494 72.0033 5.26742 68.8958 8.8623 68.3452C8.02105 67.2814 7.49512 65.9573 7.49512 64.5023V63.2475ZM9.99757 70.7499H17.4976C20.2892 70.7499 22.5 72.9583 22.5 75.75V77.0072H4.99512V75.75C4.99515 72.9583 7.20597 70.7499 9.99757 70.7499ZM17.4976 63.2475C17.4976 61.1483 15.8516 59.5023 13.7524 59.5023C11.6533 59.5023 9.99757 61.1483 9.99757 63.2475V64.5023C9.99757 66.6014 11.6533 68.2499 13.7524 68.2499C15.8516 68.2499 17.4976 66.6014 17.4976 64.5023V63.2475Z" fill="url(#paint0_linear_505_319)"/>
<path fill-rule="evenodd" clip-rule="evenodd" d="M33.7476 63.2475C33.7476 59.8066 36.564 57 40.0049 57C43.4458 57 46.2524 59.8066 46.2524 63.2475V64.5023C46.2524 65.9573 45.7295 67.2814 44.8901 68.3452C48.4841 68.8978 51.2524 72.0049 51.2524 75.75V78.2523C51.2551 78.9465 50.6917 79.5098 49.9976 79.5073H30.0024C29.3083 79.5099 28.7451 78.9465 28.7476 78.2523V75.75C28.7476 72.0037 31.5166 68.8963 35.1123 68.3452C34.2713 67.2814 33.7476 65.9571 33.7476 64.5023V63.2475ZM40.0049 59.5023C42.104 59.5023 43.75 61.1483 43.75 63.2475V64.5023C43.75 66.6014 42.104 68.2499 40.0049 68.2499C37.9058 68.2499 36.2476 66.6014 36.2476 64.5023V63.2475C36.2476 61.1483 37.9058 59.5023 40.0049 59.5023ZM43.75 70.7499H36.2476C33.456 70.7499 31.2476 72.9583 31.2476 75.75V77.0072H48.7524V75.75C48.7524 72.9583 46.5416 70.7499 43.75 70.7499Z" fill="url(#paint1_linear_505_319)"/>
<path fill-rule="evenodd" clip-rule="evenodd" d="M60 63.2475C60 59.8066 62.8067 57 66.2476 57C69.6884 57 72.5024 59.8066 72.5024 63.2475V64.5023C72.5024 65.9573 71.979 67.2814 71.1377 68.3452C74.734 68.8958 77.5049 72.0033 77.5049 75.75V78.2523C77.5075 78.9465 76.9442 79.5098 76.25 79.5073H56.2549C55.5598 79.5113 54.9951 78.9474 54.9976 78.2523V75.75C54.9976 72.0045 57.7678 68.8973 61.3623 68.3452C60.523 67.2814 60 65.9573 60 64.5023V63.2475ZM62.5 70.7499H70.0024C72.794 70.7499 75.0049 72.9583 75.0049 75.75V77.0072H57.5V75.75C57.5 72.9583 59.7084 70.7499 62.5 70.7499ZM70.0024 63.2475C70.0024 61.1483 68.3467 59.5023 66.2476 59.5023C64.1484 59.5023 62.5 61.1483 62.5 63.2475V64.5023C62.5 66.6014 64.1484 68.2499 66.2476 68.2499C68.3467 68.2499 70.0024 66.6014 70.0024 64.5023V63.2475Z" fill="url(#paint2_linear_505_319)"/>
<defs>
<linearGradient id="paint0_linear_505_319" x1="40.0049" y1="57" x2="40.0049" y2="79.5073" gradientUnits="userSpaceOnUse">
<stop stop-color="#7EC13D"/>
<stop offset="1" stop-color="#51891B"/>
</linearGradient>
<linearGradient id="paint1_linear_505_319" x1="40.0049" y1="57" x2="40.0049" y2="79.5073" gradientUnits="userSpaceOnUse">
<stop stop-color="#7EC13D"/>
<stop offset="1" stop-color="#51891B"/>
</linearGradient>
<linearGradient id="paint2_linear_505_319" x1="40.0049" y1="57" x2="40.0049" y2="79.5073" gradientUnits="userSpaceOnUse">
<stop stop-color="#7EC13D"/>
<stop offset="1" stop-color="#51891B"/>
</linearGradient>
</defs>
</svg>
