<svg width="80" height="80" viewBox="0 0 80 80" fill="none" xmlns="http://www.w3.org/2000/svg">
<g clip-path="url(#clip0_505_342)">
<path d="M75.2344 31.2305H72.4352C71.6839 28.4441 70.5774 25.7749 69.1341 23.2679L71.1155 21.2865C72.0132 20.3888 72.5075 19.1921 72.5075 17.9166C72.5075 16.6413 72.0132 15.4446 71.1155 14.547L65.453 8.88465C63.5949 7.02669 60.5716 7.02638 58.7135 8.88465L56.7329 10.8653C54.2259 9.42153 51.5564 8.31481 48.7695 7.56341V4.76561C48.7695 2.13796 46.6317 0 44.0039 0H35.9961C33.3683 0 31.2305 2.13796 31.2305 4.76561V7.56325C28.4447 8.3145 25.7754 9.42137 23.2674 10.8654L21.2865 8.8845C19.4284 7.02654 16.4051 7.02622 14.547 8.8845L8.8845 14.5468C7.02638 16.4051 7.02638 19.4282 8.8845 21.2865L10.8653 23.2673C9.42184 25.774 8.31512 28.443 7.56356 31.2305H4.76561C2.13796 31.2305 0 33.3685 0 35.9961V44.004C0 46.6317 2.1378 48.7695 4.76561 48.7695H7.56341C8.31465 51.5556 9.42137 54.2246 10.8656 56.7326L8.88465 58.7135C7.02654 60.5718 7.02654 63.5949 8.88465 65.4532L14.5471 71.1157C16.4054 72.9738 19.4287 72.9738 21.2866 71.1157L23.2674 69.1347C25.7743 70.5783 28.4433 71.6849 31.2305 72.4364V75.2344C31.2305 77.862 33.3683 80 35.9961 80H44.0039C46.6317 80 48.7695 77.862 48.7695 75.2344V72.4367C51.5556 71.6855 54.2245 70.5788 56.7326 69.1346L58.7135 71.1157C60.5718 72.9738 63.5949 72.9738 65.453 71.1157L71.1153 65.4532C72.013 64.5555 72.5074 63.3588 72.5074 62.0835C72.5074 60.808 72.013 59.6113 71.1153 58.7137L69.1346 56.7329C70.5782 54.226 71.6847 51.5571 72.4363 48.7697H75.2344C77.862 48.7697 80 46.6318 80 44.0042V35.9963C80 33.3685 77.8622 31.2305 75.2344 31.2305ZM76.875 44.004C76.875 44.9086 76.1391 45.6445 75.2344 45.6445H71.2163C70.4883 45.6445 69.8568 46.1473 69.6935 46.8567C68.9361 50.149 67.6405 53.2742 65.8426 56.1452C65.456 56.7623 65.5471 57.5646 66.0619 58.0795L68.9058 60.9232C69.2132 61.2305 69.3825 61.6426 69.3825 62.0834C69.3825 62.524 69.2133 62.936 68.9058 63.2433L63.2433 68.9058C62.6037 69.5453 61.5629 69.5455 60.9234 68.9058L58.0795 66.0619C57.5646 65.5472 56.7624 65.4562 56.1454 65.8426C53.272 67.6416 50.147 68.9374 46.8568 69.6938C46.1473 69.8571 45.6445 70.4886 45.6445 71.2166V75.2344C45.6445 76.1391 44.9086 76.875 44.0039 76.875H35.9961C35.0914 76.875 34.3555 76.1391 34.3555 75.2344V71.2163C34.3555 70.4883 33.8527 69.8568 33.1433 69.6935C29.8513 68.9363 26.7261 67.6407 23.8548 65.8426C23.5991 65.6826 23.3116 65.6044 23.026 65.6044C22.6223 65.6044 22.2221 65.7605 21.9205 66.0621L19.0768 68.9058C18.4371 69.5457 17.3965 69.5457 16.7568 68.9058L11.0943 63.2433C10.4546 62.6037 10.4546 61.5629 11.0943 60.9232L13.9382 58.0795C14.4531 57.5646 14.5442 56.7624 14.1578 56.1454C12.3587 53.272 11.0629 50.1468 10.3064 46.8568C10.1432 46.1473 9.51168 45.6445 8.78356 45.6445H4.76561C3.86092 45.6445 3.12499 44.9086 3.12499 44.004V35.9961C3.12499 35.0914 3.86092 34.3555 4.76561 34.3555H8.78372C9.51168 34.3555 10.1432 33.8527 10.3065 33.1433C11.0639 29.8508 12.3596 26.7258 14.1574 23.8548C14.5438 23.2377 14.4529 22.4354 13.9381 21.9205L11.0943 19.0768C10.4546 18.4371 10.4546 17.3963 11.0943 16.7567L16.7568 11.0943C17.3967 10.4546 18.4374 10.4548 19.077 11.0943L21.9209 13.9381C22.4355 14.4528 23.2377 14.544 23.8548 14.1574C26.7282 12.3584 29.8533 11.0626 33.1433 10.3062C33.8528 10.1429 34.3556 9.51137 34.3556 8.7834V4.76561C34.3556 3.86092 35.0916 3.12499 35.9963 3.12499H44.004C44.9087 3.12499 45.6447 3.86092 45.6447 4.76561V8.7834C45.6447 9.51137 46.1475 10.1429 46.857 10.3062C50.1486 11.0631 53.2737 12.3587 56.1457 14.1571C56.7631 14.5435 57.5651 14.4526 58.0798 13.9378L60.9234 11.0943C61.5632 10.4546 62.6038 10.4548 63.2433 11.0943L68.9058 16.7567C69.2132 17.064 69.3825 17.476 69.3825 17.9166C69.3825 18.3574 69.2133 18.7695 68.9058 19.0768L66.0616 21.921C65.5468 22.4359 65.4557 23.238 65.8421 23.8551C67.6402 26.7271 68.9357 29.8521 69.6925 33.1432C69.8557 33.8527 70.4872 34.3555 71.2153 34.3555H75.2347C76.1394 34.3555 76.8753 35.0914 76.8753 35.9961V44.004H76.875Z" fill="#FF9B0D"/>
<path d="M50.1843 59.3632C47.0675 61.0066 43.5457 61.8752 40.0001 61.8752C27.9382 61.8752 18.1251 52.0621 18.1251 40.0002C18.1251 36.4548 18.9936 32.9334 20.6367 29.8169C21.0392 29.0535 20.7465 28.1084 19.9831 27.706C19.2198 27.3037 18.2748 27.596 17.8722 28.3594C15.9932 31.9237 15.0001 35.9488 15.0001 40.0002C15.0001 53.7854 26.2151 65.0002 40.0001 65.0002C44.0518 65.0002 48.0775 64.0069 51.6418 62.1274C52.4051 61.7249 52.6978 60.7799 52.2953 60.0165C51.8928 59.253 50.9476 58.9609 50.1843 59.3632Z" fill="url(#paint0_linear_505_342)"/>
<path d="M40 15C35.9489 15 31.9233 15.9933 28.3583 17.8728C27.595 18.2752 27.3024 19.2202 27.7047 19.9836C28.1071 20.747 29.0521 21.0395 29.8157 20.6372C32.9332 18.9937 36.4549 18.1252 40 18.1252C52.0619 18.1252 61.875 27.9383 61.875 40.0002C61.875 43.545 61.0066 47.0664 59.3635 50.1836C58.9611 50.947 59.2538 51.8922 60.0172 52.2945C60.2496 52.417 60.4988 52.475 60.7444 52.475C61.3057 52.475 61.848 52.1719 62.1278 51.6408C64.0067 48.0761 64.9999 44.0508 64.9999 40.0002C65 26.2148 53.785 15 40 15Z" fill="#FF9B0D"/>
<path d="M49.5665 28.6133C48.1568 28.6133 46.8316 29.1623 45.8349 30.1591L37.3468 38.6472L34.1652 35.4658C33.1685 34.4689 31.8433 33.9198 30.4337 33.9198C29.024 33.9198 27.6988 34.4689 26.7019 35.4656C24.6444 37.5233 24.6444 40.8713 26.7019 42.9289L33.6152 49.8422C34.644 50.8709 35.9954 51.3853 37.3468 51.3853C38.6982 51.3853 40.0496 50.8709 41.0783 49.8422L53.2982 37.6223C55.3557 35.5647 55.3557 32.2167 53.2982 30.1591C52.3015 29.1623 50.9762 28.6133 49.5665 28.6133ZM51.0885 35.4125L38.8687 47.6323C38.0296 48.4716 36.664 48.4716 35.8249 47.6323L28.9116 40.7191C28.0724 39.88 28.0724 38.5145 28.9116 37.6755C29.3182 37.2688 29.8587 37.045 30.4335 37.045C31.0083 37.045 31.5488 37.2689 31.9554 37.6755L36.2419 41.9619C36.8521 42.5719 37.8415 42.5719 38.4516 41.9619L48.0448 32.3688C48.4513 31.9622 48.9918 31.7384 49.5666 31.7384C50.1415 31.7384 50.6821 31.9623 51.0885 32.3689C51.4951 32.7755 51.7188 33.3159 51.7188 33.8908C51.7188 34.4655 51.4949 35.0059 51.0885 35.4125Z" fill="#FF9B0D"/>
<path d="M23.4266 24.9904C23.8266 24.9904 24.2268 24.8377 24.5319 24.5326C25.1421 23.9224 25.1421 22.933 24.5319 22.3227C23.9218 21.7127 22.9326 21.7127 22.3223 22.3227L22.3215 22.3235C21.7113 22.9337 21.7116 23.9226 22.3218 24.5329C22.6271 24.8379 23.0268 24.9904 23.4266 24.9904Z" fill="#FF9B0D"/>
<path d="M57.5738 55.3718C56.9109 54.8196 55.9256 54.9091 55.3732 55.5719L55.3724 55.5729C54.8199 56.2357 54.9099 57.2205 55.5729 57.773C55.8649 58.0163 56.2195 58.1349 56.5721 58.1349C57.0201 58.1349 57.4649 57.9432 57.774 57.5722C58.3263 56.9096 58.2368 55.9243 57.5738 55.3718Z" fill="#FF9B0D"/>
</g>
<defs>
<linearGradient id="paint0_linear_505_342" x1="33.738" y1="27.5254" x2="33.738" y2="65.0002" gradientUnits="userSpaceOnUse">
<stop stop-color="#7EC13D"/>
<stop offset="1" stop-color="#51891B"/>
</linearGradient>
<clipPath id="clip0_505_342">
<rect width="80" height="80" fill="white"/>
</clipPath>
</defs>
</svg>
