<svg width="80" height="80" viewBox="0 0 80 80" fill="none" xmlns="http://www.w3.org/2000/svg">
<path d="M23.1091 68.9135L21.9848 68.2848C22.0092 68.0212 22.0215 67.7595 22.0215 67.4999C22.0215 67.2399 22.0093 66.9783 21.9848 66.715L23.1091 66.0864C23.3517 65.9507 23.5423 65.7381 23.6506 65.4821C23.7589 65.2262 23.7788 64.9414 23.7072 64.6728C23.1745 62.6851 22.1028 60.8833 20.6103 59.4665C20.4165 59.2832 20.1693 59.1664 19.9046 59.1331C19.6399 59.0997 19.3714 59.1515 19.1382 59.281L18.0529 59.8877L18.6633 60.9789L17.9297 59.9072C17.4701 59.6064 16.9954 59.3293 16.5075 59.0771V57.8674C16.5075 57.5923 16.4167 57.3248 16.2492 57.1065C16.0817 56.8883 15.8468 56.7314 15.581 56.6601C14.5276 56.3818 13.4419 56.2443 12.3523 56.2512C11.3611 56.267 10.3758 56.406 9.41892 56.665C9.15305 56.7361 8.91809 56.8929 8.75055 57.1113C8.583 57.3296 8.49226 57.5971 8.49241 57.8723L8.4802 59.1211C7.98943 59.3439 7.51786 59.6069 7.07028 59.9072L6.94577 59.8877L5.86545 59.2846C5.63243 59.155 5.36413 59.1031 5.09958 59.1365C4.83503 59.1698 4.58803 59.2867 4.3945 59.4702C2.90135 60.8853 1.82797 62.6852 1.2927 64.6716C1.22069 64.9403 1.24043 65.2254 1.34878 65.4817C1.45713 65.738 1.64789 65.9508 1.89085 66.0864L3.01511 66.715C2.99069 66.9787 2.97849 67.2403 2.97849 67.4999C2.97849 67.7599 2.99069 68.0216 3.01511 68.2848L1.89085 68.9135C1.64821 69.0491 1.45769 69.2617 1.34937 69.5177C1.24104 69.7737 1.2211 70.0585 1.2927 70.3271C1.82475 72.3148 2.89614 74.1166 4.3884 75.5333C4.58166 75.7172 4.82871 75.8344 5.09338 75.8678C5.35806 75.9012 5.62647 75.849 5.85935 75.7189L6.94577 75.1122L7.07028 75.0927C7.52965 75.3938 8.00433 75.6708 8.49241 75.9227V77.1324C8.49244 77.4076 8.58325 77.6751 8.75077 77.8933C8.91829 78.1116 9.15314 78.2685 9.41892 78.3397C10.4216 78.6103 11.4554 78.7482 12.4939 78.7499C12.5451 78.7499 12.5964 78.7487 12.6465 78.7487C13.638 78.733 14.6238 78.594 15.581 78.3349C15.8469 78.2638 16.0819 78.107 16.2494 77.8887C16.4169 77.6703 16.5077 77.4028 16.5075 77.1276L16.5173 75.8788C17.009 75.6562 17.4814 75.3933 17.9297 75.0927L18.0542 75.1122L19.1345 75.7153C19.3673 75.8456 19.6358 75.8979 19.9005 75.8645C20.1652 75.8311 20.4123 75.7138 20.6054 75.5297C22.0986 74.1146 23.172 72.3147 23.7072 70.3283C23.7793 70.0596 23.7595 69.7745 23.6512 69.5182C23.5428 69.2619 23.3521 69.0491 23.1091 68.9135ZM19.3994 66.2756C19.5622 67.0837 19.5622 67.9162 19.3994 68.7243C19.3505 68.9823 19.384 69.249 19.4951 69.4869C19.6061 69.7248 19.7892 69.9218 20.0183 70.0499L20.9924 70.5944C20.6382 71.4934 20.1361 72.3269 19.5068 73.0602L19.2737 72.9296C18.853 72.6922 18.3752 72.5748 17.8923 72.5903C17.4095 72.6058 16.9402 72.7536 16.5356 73.0175C16.2029 73.2408 15.8522 73.436 15.487 73.601C15.0438 73.8054 14.6687 74.133 14.4064 74.5446C14.1441 74.9563 14.0057 75.4346 14.0075 75.9227V76.1217C13.0097 76.2909 11.9906 76.2921 10.9924 76.1254V75.9227C10.9946 75.4346 10.8563 74.9561 10.5939 74.5444C10.3316 74.1327 9.95632 73.8052 9.51291 73.601C9.14881 73.4372 8.79925 73.2428 8.46798 73.0199C8.06345 72.7548 7.59377 72.6062 7.1104 72.5903C6.62702 72.5744 6.14858 72.6918 5.72747 72.9296L5.48821 73.0639C4.86004 72.3293 4.35953 71.4946 4.0075 70.5944L4.98162 70.05C5.21075 69.9218 5.39378 69.7248 5.50485 69.4869C5.61591 69.249 5.64938 68.9823 5.60052 68.7243C5.43775 67.9162 5.43775 67.0837 5.60052 66.2755C5.64937 66.0176 5.61589 65.7508 5.50484 65.513C5.39378 65.2751 5.21077 65.0781 4.98166 64.9499L4.00753 64.4055C4.36174 63.5065 4.86387 62.673 5.49313 61.9397L5.72628 62.0703C6.1467 62.3086 6.62464 62.4264 7.10765 62.4109C7.59065 62.3954 8.06005 62.2472 8.46432 61.9824C8.79644 61.7588 9.1468 61.5636 9.5117 61.3989C9.95543 61.195 10.331 60.8676 10.5936 60.4558C10.8562 60.0441 10.9947 59.5654 10.9925 59.0771V58.8781C11.4523 58.7994 11.9176 58.757 12.384 58.7512C12.9279 58.7381 13.4718 58.7794 14.0075 58.8745V59.0771C14.0057 59.5652 14.1441 60.0436 14.4064 60.4552C14.6687 60.8668 15.0438 61.1944 15.487 61.3989C15.8509 61.5632 16.2004 61.7576 16.532 61.9799C16.9368 62.2448 17.4066 62.3932 17.8902 62.4092C18.3737 62.4251 18.8523 62.3079 19.2737 62.0703L19.5117 61.9372C20.1401 62.6712 20.6407 63.5055 20.9925 64.4054L20.0183 64.9499C19.7892 65.0781 19.6062 65.275 19.4951 65.5129C19.384 65.7508 19.3505 66.0176 19.3994 66.2756Z" fill="#FF9B0D"/>
<path d="M12.5 62.5C11.5111 62.5 10.5444 62.7932 9.72215 63.3427C8.89991 63.8921 8.25904 64.673 7.8806 65.5866C7.50217 66.5002 7.40315 67.5055 7.59608 68.4755C7.789 69.4454 8.26521 70.3363 8.96447 71.0355C9.66373 71.7348 10.5546 72.211 11.5246 72.4039C12.4945 72.5969 13.4998 72.4978 14.4134 72.1194C15.3271 71.741 16.1079 71.1001 16.6574 70.2779C17.2068 69.4556 17.5 68.4889 17.5 67.5C17.4987 66.1743 16.9715 64.9033 16.0341 63.9659C15.0967 63.0285 13.8257 62.5013 12.5 62.5ZM12.5 70C12.0055 70 11.5222 69.8534 11.1111 69.5787C10.7 69.304 10.3795 68.9135 10.1903 68.4567C10.0011 67.9999 9.95158 67.4972 10.048 67.0123C10.1445 66.5273 10.3826 66.0819 10.7322 65.7322C11.0819 65.3826 11.5273 65.1445 12.0123 65.048C12.4972 64.9516 12.9999 65.0011 13.4567 65.1903C13.9135 65.3795 14.304 65.7 14.5787 66.1111C14.8534 66.5222 15 67.0055 15 67.5C14.9991 68.1628 14.7355 68.7982 14.2668 69.2668C13.7982 69.7355 13.1628 69.9991 12.5 70Z" fill="#FF9B0D"/>
<path d="M65 48.75C64.0111 48.75 63.0444 49.0432 62.2221 49.5927C61.3999 50.1421 60.759 50.923 60.3806 51.8366C60.0022 52.7502 59.9031 53.7555 60.0961 54.7255C60.289 55.6954 60.7652 56.5863 61.4645 57.2855C62.1637 57.9848 63.0546 58.461 64.0246 58.6539C64.9945 58.8469 65.9998 58.7478 66.9134 58.3694C67.8271 57.991 68.6079 57.3501 69.1574 56.5279C69.7068 55.7056 70 54.7389 70 53.75C69.9987 52.4243 69.4715 51.1533 68.5341 50.2159C67.5967 49.2785 66.3257 48.7513 65 48.75ZM65 56.25C64.5055 56.25 64.0222 56.1034 63.6111 55.8287C63.2 55.554 62.8795 55.1635 62.6903 54.7067C62.5011 54.2499 62.4516 53.7472 62.548 53.2623C62.6445 52.7773 62.8826 52.3319 63.2322 51.9822C63.5819 51.6326 64.0273 51.3945 64.5123 51.298C64.9972 51.2016 65.4999 51.2511 65.9567 51.4403C66.4135 51.6295 66.804 51.95 67.0787 52.3611C67.3534 52.7722 67.5 53.2555 67.5 53.75C67.4991 54.4128 67.2355 55.0482 66.7668 55.5168C66.2982 55.9855 65.6628 56.2491 65 56.25Z" fill="#FF9B0D"/>
<path d="M57.5 66.25H26.25V68.75H57.5C59.8198 68.7472 62.0438 67.8244 63.6841 66.1841C65.3244 64.5438 66.2472 62.3198 66.25 60H63.75C63.7481 61.657 63.0889 63.2456 61.9173 64.4173C60.7456 65.5889 59.157 66.2481 57.5 66.25Z" fill="url(#paint0_linear_505_332)"/>
<path d="M13.75 32.5H11.25C11.2528 34.8198 12.1756 37.0438 13.8159 38.6841C15.4563 40.3244 17.6802 41.2472 20 41.25H57.5C59.157 41.2519 60.7456 41.9111 61.9173 43.0827C63.0889 44.2544 63.7481 45.843 63.75 47.5H66.25C66.2472 45.1802 65.3244 42.9562 63.6841 41.3159C62.0438 39.6756 59.8198 38.7528 57.5 38.75H20C18.343 38.7481 16.7544 38.089 15.5827 36.9173C14.411 35.7456 13.7519 34.157 13.75 32.5Z" fill="url(#paint1_linear_505_332)"/>
<path d="M11.25 20.0002H13.75C13.7519 18.3432 14.411 16.7546 15.5827 15.5829C16.7544 14.4112 18.343 13.7521 20 13.7502H45V16.2502C45 16.4714 45.0587 16.6886 45.1701 16.8798C45.2815 17.0709 45.4417 17.229 45.6342 17.338C45.8267 17.447 46.0447 17.5029 46.2659 17.5001C46.4871 17.4973 46.7036 17.4358 46.8933 17.3219L53.1433 13.5719C53.3284 13.4609 53.4815 13.3038 53.5878 13.116C53.6942 12.9281 53.75 12.716 53.75 12.5002C53.75 12.2843 53.6942 12.0722 53.5878 11.8844C53.4815 11.6965 53.3284 11.5395 53.1433 11.4284L46.8933 7.67838C46.7036 7.56447 46.4871 7.50295 46.2659 7.5001C46.0447 7.49726 45.8267 7.55319 45.6341 7.66218C45.4416 7.77117 45.2814 7.92932 45.17 8.12047C45.0586 8.31162 44.9999 8.52891 45 8.75016V11.2502H20C17.6802 11.253 15.4563 12.1757 13.8159 13.8161C12.1756 15.4564 11.2528 17.6804 11.25 20.0002ZM47.5 10.9584L50.0708 12.5002L47.5 14.0419V10.9584Z" fill="url(#paint2_linear_505_332)"/>
<path d="M7.5 22.5V30C7.49991 30.1642 7.53217 30.3268 7.59496 30.4785C7.65775 30.6302 7.74982 30.768 7.86591 30.8841C7.982 31.0002 8.11984 31.0923 8.27154 31.155C8.42323 31.2178 8.58582 31.2501 8.75 31.25H16.25C16.4142 31.2501 16.5768 31.2178 16.7285 31.155C16.8802 31.0923 17.018 31.0002 17.1341 30.8841C17.2502 30.768 17.3423 30.6302 17.405 30.4785C17.4678 30.3268 17.5001 30.1642 17.5 30V22.5C17.5001 22.3358 17.4678 22.1732 17.405 22.0215C17.3423 21.8698 17.2502 21.732 17.1341 21.6159C17.018 21.4998 16.8802 21.4077 16.7285 21.345C16.5768 21.2822 16.4142 21.2499 16.25 21.25H8.75C8.58582 21.2499 8.42323 21.2822 8.27154 21.345C8.11984 21.4077 7.982 21.4998 7.86591 21.6159C7.74982 21.732 7.65775 21.8698 7.59496 22.0215C7.53217 22.1732 7.49991 22.3358 7.5 22.5ZM10 23.75H15V28.75H10V23.75Z" fill="#FF9B0D"/>
<path d="M72.6892 9.45918L69.8937 9.03194L68.6316 6.34395C68.5307 6.12902 68.3707 5.94726 68.1703 5.81994C67.9699 5.69262 67.7374 5.625 67.5 5.625C67.2626 5.625 67.03 5.69262 66.8296 5.81994C66.6293 5.94726 66.4693 6.12902 66.3684 6.34395L65.1062 9.03194L62.3108 9.45918C62.0837 9.49393 61.8706 9.5906 61.6949 9.73857C61.5191 9.88654 61.3876 10.0801 61.3147 10.2979C61.2418 10.5158 61.2303 10.7495 61.2816 10.9735C61.3328 11.1974 61.4448 11.4029 61.6053 11.5673L63.6646 13.6779L63.1762 16.6735C63.1385 16.9051 63.1667 17.1425 63.2575 17.3588C63.3484 17.5751 63.4982 17.7614 63.69 17.8966C63.8818 18.0317 64.1077 18.1101 64.342 18.1228C64.5762 18.1356 64.8093 18.0822 65.0146 17.9687L67.5 16.5954L69.9853 17.9687C70.1906 18.0823 70.4237 18.1358 70.6579 18.1231C70.8922 18.1104 71.1181 18.0319 71.3098 17.8967C71.5014 17.7614 71.6512 17.575 71.7421 17.3588C71.8329 17.1425 71.8612 16.9051 71.8237 16.6735L71.3354 13.6779L73.3948 11.5673C73.5552 11.4029 73.6672 11.1974 73.7184 10.9735C73.7697 10.7495 73.7582 10.5158 73.6853 10.2979C73.6124 10.0801 73.4809 9.88654 73.3051 9.73857C73.1294 9.5906 72.9163 9.49393 72.6892 9.45918ZM69.1052 12.384C68.9685 12.524 68.8666 12.6941 68.8077 12.8807C68.7488 13.0673 68.7344 13.2651 68.7659 13.4582L68.9416 14.5361L68.1042 14.0734C67.9193 13.971 67.7114 13.9172 67.5 13.9172C67.2886 13.9172 67.0806 13.971 66.8957 14.0734L66.0583 14.5361L66.2341 13.4582C66.2655 13.2651 66.2512 13.0673 66.1923 12.8807C66.1333 12.6941 66.0314 12.524 65.8948 12.384L65.094 11.5625L66.1438 11.4025C66.3466 11.3716 66.5387 11.2911 66.7031 11.1683C66.8675 11.0454 66.999 10.884 67.0862 10.6982L67.5 9.81685L67.9137 10.6982C68.0009 10.884 68.1324 11.0454 68.2968 11.1683C68.4612 11.2911 68.6533 11.3716 68.8561 11.4025L69.906 11.5625L69.1052 12.384Z" fill="#FF9B0D"/>
<path d="M67.5 1.25C65.275 1.25 63.0999 1.9098 61.2498 3.14597C59.3998 4.38213 57.9578 6.13914 57.1064 8.19481C56.2549 10.2505 56.0321 12.5125 56.4662 14.6948C56.9003 16.8771 57.9717 18.8816 59.5451 20.4549C61.1184 22.0283 63.123 23.0998 65.3052 23.5338C67.4875 23.9679 69.7495 23.7451 71.8052 22.8936C73.8609 22.0422 75.6179 20.6002 76.854 18.7502C78.0902 16.9001 78.75 14.725 78.75 12.5C78.7467 9.51731 77.5604 6.65772 75.4514 4.54864C73.3423 2.43957 70.4827 1.25326 67.5 1.25ZM67.5 21.25C65.7694 21.25 64.0777 20.7368 62.6388 19.7754C61.1998 18.8139 60.0783 17.4473 59.4161 15.8485C58.7538 14.2496 58.5805 12.4903 58.9181 10.793C59.2558 9.09563 60.0891 7.53652 61.3128 6.31282C62.5365 5.08911 64.0956 4.25575 65.793 3.91813C67.4903 3.58051 69.2496 3.75379 70.8485 4.41605C72.4473 5.07832 73.8139 6.19983 74.7754 7.63876C75.7368 9.07769 76.25 10.7694 76.25 12.5C76.2472 14.8198 75.3244 17.0437 73.6841 18.6841C72.0438 20.3244 69.8198 21.2472 67.5 21.25Z" fill="#FF9B0D"/>
<defs>
<linearGradient id="paint0_linear_505_332" x1="46.25" y1="60" x2="46.25" y2="68.75" gradientUnits="userSpaceOnUse">
<stop stop-color="#7EC13D"/>
<stop offset="1" stop-color="#51891B"/>
</linearGradient>
<linearGradient id="paint1_linear_505_332" x1="38.75" y1="32.5" x2="38.75" y2="47.5" gradientUnits="userSpaceOnUse">
<stop stop-color="#7EC13D"/>
<stop offset="1" stop-color="#51891B"/>
</linearGradient>
<linearGradient id="paint2_linear_505_332" x1="32.5" y1="7.5" x2="32.5" y2="20.0002" gradientUnits="userSpaceOnUse">
<stop stop-color="#7EC13D"/>
<stop offset="1" stop-color="#51891B"/>
</linearGradient>
</defs>
</svg>
