<svg width="40" height="40" viewBox="0 0 40 40" fill="none" xmlns="http://www.w3.org/2000/svg">
<path fill-rule="evenodd" clip-rule="evenodd" d="M36.7546 28.3387C36.609 28.3231 36.4619 28.3462 36.3281 28.4055L28.9893 31.6672H27.4935C27.0333 31.6672 26.6602 32.0403 26.6602 32.5005C26.6602 32.9607 27.0333 33.3338 27.4935 33.3338H29.1667C29.2833 33.3339 29.3986 33.3095 29.5052 33.2622L37.0052 29.9289C37.426 29.742 37.6155 29.2493 37.4284 28.8286C37.3074 28.5567 37.0505 28.37 36.7546 28.3387V28.3387Z" fill="black"/>
<path fill-rule="evenodd" clip-rule="evenodd" d="M16.6667 6.66699C16.4679 6.66696 16.2757 6.738 16.1247 6.86719L15.3857 7.50033H10.8333C10.7167 7.50024 10.6014 7.52466 10.4948 7.57191L2.99479 10.9052C2.17192 11.2708 2.43294 12.5006 3.33333 12.5003H5.94727C6.4075 12.5003 6.7806 12.1272 6.7806 11.667C6.77668 11.4723 6.70468 11.2852 6.57715 11.138L11.0107 9.16699H13.4408L11.4974 10.8337H9.22689C8.76665 10.8337 8.39356 11.2068 8.39356 11.667C8.39356 12.1272 8.76665 12.5003 9.22689 12.5003H10V15.0003H3.33333C2.8731 15.0003 2.5 15.3734 2.5 15.8337C2.5 16.2939 2.8731 16.667 3.33333 16.667H10V19.167H3.33333C2.8731 19.167 2.5 19.5401 2.5 20.0003C2.5 20.4606 2.8731 20.8337 3.33333 20.8337H10V23.3337H8.91113C8.4509 23.3337 8.0778 23.7068 8.0778 24.167C8.0778 24.6272 8.4509 25.0003 8.91113 25.0003H10V27.5003H3.33333C2.8731 27.5003 2.5 27.8734 2.5 28.3337C2.5 28.7939 2.8731 29.167 3.33333 29.167H10V31.667H3.33333C2.8731 31.667 2.5 32.0401 2.5 32.5003C2.5 32.9606 2.8731 33.3337 3.33333 33.3337H23.9795C24.4397 33.3337 24.8128 32.9606 24.8128 32.5003C24.8128 32.0401 24.4397 31.667 23.9795 31.667H21.6667V29.167H29.1667C29.2833 29.1671 29.3986 29.1427 29.5052 29.0954L37.0052 25.7621C37.426 25.5752 37.6155 25.0825 37.4284 24.6618C37.3074 24.3899 37.0505 24.2032 36.7546 24.1719C36.609 24.1563 36.4619 24.1794 36.3281 24.2387L28.9893 27.5003H21.6667V25.0003H29.1667C29.2833 25.0004 29.3986 24.976 29.5052 24.9287L37.0052 21.5954C37.426 21.4085 37.6155 20.9158 37.4284 20.4951C37.3074 20.2232 37.0505 20.0365 36.7546 20.0052C36.609 19.9897 36.4619 20.0127 36.3281 20.072L28.9893 23.3337H21.6667V20.8337H29.1667C29.2833 20.8337 29.3986 20.8093 29.5052 20.7621L37.0052 17.4287C37.426 17.2419 37.6155 16.7492 37.4284 16.3285C37.3074 16.0566 37.0505 15.8698 36.7546 15.8386C36.609 15.823 36.4619 15.8461 36.3281 15.9053L28.9893 19.167H21.6667V16.667H29.1667C29.2833 16.6671 29.3986 16.6427 29.5052 16.5954L37.0052 13.2621C37.426 13.0752 37.6155 12.5825 37.4284 12.1618C37.3074 11.8899 37.0505 11.7032 36.7546 11.6719C36.609 11.6563 36.4619 11.6794 36.3281 11.7387L28.9893 15.0003H21.6667V12.8828L22.1126 12.5003H29.1667C29.2833 12.5004 29.3986 12.476 29.5052 12.4287L37.0052 9.0954C37.8281 8.72988 37.5671 7.50007 36.6667 7.50033H27.4886C27.4886 7.04452 27.1224 6.67327 26.6667 6.66699H24.2627C23.8025 6.66699 23.4294 7.04009 23.4294 7.50033C23.4294 7.96056 23.8025 8.33366 24.2627 8.33366H24.4141L20.2913 11.8672C20.1064 12.0255 20 12.2569 20 12.5003V31.667H11.6667V12.8828L16.9743 8.33366H19.0999C19.5602 8.33366 19.9333 7.96056 19.9333 7.50033C19.9333 7.04009 19.5602 6.66699 19.0999 6.66699H16.6667ZM26.0026 9.16699H32.7393L28.9893 10.8337H24.0576L26.0026 9.16699Z" fill="black"/>
<path fill-rule="evenodd" clip-rule="evenodd" d="M3.33333 23.334C3.11232 23.334 2.90036 23.4218 2.74408 23.5781C2.5878 23.7344 2.5 23.9463 2.5 24.1673C2.5 24.3883 2.5878 24.6003 2.74408 24.7566C2.90036 24.9128 3.11232 25.0007 3.33333 25.0007H5.56478C5.78579 25.0007 5.99775 24.9128 6.15404 24.7566C6.31032 24.6003 6.39811 24.3883 6.39811 24.1673C6.39811 23.9463 6.31032 23.7344 6.15404 23.5781C5.99775 23.4218 5.78579 23.334 5.56478 23.334H3.33333Z" fill="black"/>
<path fill-rule="evenodd" clip-rule="evenodd" d="M15.8333 16.459C15.7231 16.459 15.614 16.4805 15.5122 16.5222C15.4104 16.5639 15.3179 16.6251 15.2401 16.7022C15.1622 16.7793 15.1005 16.8708 15.0585 16.9715C15.0164 17.0722 14.9949 17.1801 14.9951 17.2891V18.2526C13.9205 18.5922 13.1201 19.564 13.1201 20.7249C13.1201 22.1725 14.3644 23.3291 15.8333 23.3291C16.4343 23.3291 16.8685 23.7636 16.8685 24.2764C16.8685 24.7892 16.4343 25.2204 15.8333 25.2204C15.2324 25.2204 14.7966 24.7892 14.7966 24.2764C14.797 24.0566 14.709 23.8457 14.5522 23.69C14.3953 23.5344 14.1822 23.4467 13.96 23.4463C13.8496 23.4461 13.7403 23.4674 13.6383 23.509C13.5364 23.5507 13.4437 23.6118 13.3657 23.6889C13.2876 23.766 13.2258 23.8576 13.1836 23.9584C13.1415 24.0592 13.1199 24.1673 13.1201 24.2764C13.1201 25.4373 13.9205 26.4091 14.9951 26.7487V27.7122C14.9949 27.8212 15.0164 27.9291 15.0585 28.0298C15.1005 28.1305 15.1622 28.222 15.2401 28.2991C15.3179 28.3762 15.4104 28.4374 15.5122 28.4791C15.614 28.5209 15.7231 28.5423 15.8333 28.5423C15.9435 28.5423 16.0527 28.5209 16.1545 28.4791C16.2563 28.4374 16.3487 28.3762 16.4266 28.2991C16.5044 28.222 16.5662 28.1305 16.6082 28.0298C16.6502 27.9291 16.6718 27.8212 16.6716 27.7122V26.7487C17.7458 26.4091 18.5449 25.4373 18.5449 24.2764C18.5449 22.8288 17.3022 21.6722 15.8333 21.6722C15.2324 21.6722 14.7966 21.2377 14.7966 20.7249C14.7966 20.2122 15.2323 19.7809 15.8333 19.7809C16.4343 19.7809 16.8685 20.2122 16.8685 20.7249C16.8683 20.8339 16.8898 20.9418 16.9319 21.0425C16.9739 21.1432 17.0356 21.2347 17.1135 21.3118C17.1913 21.3889 17.2838 21.4501 17.3856 21.4918C17.4874 21.5335 17.5965 21.555 17.7067 21.555C17.8169 21.555 17.926 21.5335 18.0278 21.4918C18.1296 21.4501 18.2221 21.3889 18.3 21.3118C18.3778 21.2347 18.4395 21.1432 18.4816 21.0425C18.5236 20.9418 18.5451 20.8339 18.5449 20.7249C18.5449 19.564 17.7458 18.5922 16.6716 18.2526V17.2891C16.6718 17.1801 16.6502 17.0722 16.6082 16.9715C16.5662 16.8708 16.5044 16.7793 16.4266 16.7022C16.3487 16.6251 16.2563 16.5639 16.1545 16.5222C16.0527 16.4805 15.9435 16.459 15.8333 16.459Z" fill="black"/>
<path fill-rule="evenodd" clip-rule="evenodd" d="M21.6805 6.70312C21.4595 6.70312 21.2475 6.79091 21.0912 6.94719C20.9349 7.10347 20.8471 7.31544 20.8471 7.53646C20.8471 7.75747 20.9349 7.96942 21.0912 8.1257C21.2475 8.28198 21.4595 8.36979 21.6805 8.36979C21.9015 8.36979 22.1134 8.28198 22.2697 8.1257C22.426 7.96942 22.5138 7.75747 22.5138 7.53646C22.5138 7.31544 22.426 7.10347 22.2697 6.94719C22.1134 6.79091 21.9015 6.70312 21.6805 6.70312Z" fill="black"/>
</svg>
