<svg width="40" height="40" viewBox="0 0 40 40" fill="none" xmlns="http://www.w3.org/2000/svg">
<g clip-path="url(#clip0_505_395)">
<path d="M38.6667 22.1231V14.0004C38.6663 13.7214 38.6067 13.4456 38.4918 13.1914C38.3769 12.9372 38.2092 12.7103 38 12.5257V7.33373C38 6.80329 37.7893 6.29459 37.4142 5.91951C37.0391 5.54444 36.5304 5.33373 36 5.33373H31.482C30.2875 3.78999 28.6029 2.69909 26.7057 2.24067C24.8084 1.78225 22.8115 1.98366 21.044 2.81173C20.0619 1.73816 18.8249 0.929551 17.4475 0.460671C16.0701 -0.00820891 14.5967 -0.122223 13.1636 0.129172C11.7304 0.380567 10.3838 0.989255 9.24822 1.89895C8.11264 2.80865 7.22475 3.98998 6.66667 5.33373H4C2.94022 5.33724 1.92484 5.7598 1.17546 6.50918C0.426071 7.25857 0.00351507 8.27394 0 9.33373L0 36.0004C0.00105895 37.0609 0.422826 38.0777 1.17274 38.8277C1.92266 39.5776 2.93946 39.9993 4 40.0004H36.6667C37.1971 40.0004 37.7058 39.7897 38.0809 39.4146C38.456 39.0395 38.6667 38.5308 38.6667 38.0004V29.8777C39.0553 29.7403 39.3919 29.4862 39.6306 29.1502C39.8693 28.8141 39.9983 28.4126 40 28.0004V24.0004C39.9983 23.5882 39.8693 23.1866 39.6306 22.8506C39.3919 22.5145 39.0553 22.2604 38.6667 22.1231ZM36.6667 7.33373V12.0004H33.2193C33.2915 11.5595 33.3296 11.1138 33.3333 10.6671C33.3356 9.27425 33 7.90168 32.3553 6.66706H36C36.1768 6.66706 36.3464 6.7373 36.4714 6.86232C36.5964 6.98735 36.6667 7.15692 36.6667 7.33373ZM30.6253 6.39039C31.2083 7.18915 31.6195 8.09996 31.8332 9.06547C32.0468 10.031 32.0582 11.0303 31.8667 12.0004H17.4667C17.1602 10.3613 17.4221 8.66677 18.2091 7.19669C18.996 5.7266 20.2609 4.56896 21.7948 3.91501C23.3287 3.26107 25.0397 3.14995 26.6453 3.60003C28.2509 4.0501 29.6549 5.03443 30.6253 6.39039ZM14.6667 1.33373C15.6275 1.33237 16.5792 1.52038 17.4673 1.887C18.3554 2.25362 19.1626 2.79167 19.8427 3.47039C18.4634 4.3799 17.3772 5.66956 16.7155 7.18338C16.0538 8.6972 15.8449 10.3703 16.114 12.0004H8.146C7.57056 10.8839 7.2923 9.63803 7.33801 8.38279C7.38373 7.12755 7.75188 5.90523 8.40702 4.83354C9.06215 3.76186 9.9822 2.87691 11.0785 2.26394C12.1749 1.65096 13.4106 1.33061 14.6667 1.33373ZM1.33333 9.33373C1.33614 8.62735 1.618 7.9507 2.11749 7.45121C2.61697 6.95172 3.29362 6.66987 4 6.66706H6.242C5.81093 8.44429 5.9583 10.3127 6.66267 12.0004H4.14C3.457 12.0129 2.79343 11.7728 2.27665 11.326C1.75988 10.8793 1.42632 10.2574 1.34 9.57973C1.33312 9.50015 1.33089 9.42023 1.33333 9.34039V9.33373ZM36.6667 38.6671H4C3.29276 38.6671 2.61448 38.3861 2.11438 37.886C1.61428 37.3859 1.33333 36.7076 1.33333 36.0004V30.6671H5.72667C5.92267 30.6671 6.11628 30.7102 6.29389 30.7931C6.47149 30.876 6.62877 30.9968 6.75467 31.1471L7.83867 32.4504C7.44927 32.9833 7.26789 33.64 7.32862 34.2972C7.38934 34.9545 7.68799 35.5669 8.16844 36.0194C8.64888 36.4719 9.27805 36.7334 9.93771 36.7547C10.5974 36.776 11.2421 36.5556 11.7508 36.1351C12.2594 35.7145 12.5969 35.1226 12.6999 34.4707C12.803 33.8188 12.6643 33.1517 12.3101 32.5948C11.9559 32.0379 11.4105 31.6295 10.7765 31.4464C10.1424 31.2633 9.46323 31.3181 8.86667 31.6004L7.78067 30.2951C7.53 29.9937 7.21597 29.7513 6.86095 29.5852C6.50593 29.419 6.11865 29.3332 5.72667 29.3337H1.33333V26.6671H12.7613C12.9236 27.2955 13.3095 27.8432 13.8467 28.2075C14.3839 28.5717 15.0355 28.7276 15.6793 28.6458C16.3232 28.564 16.9152 28.2502 17.3442 27.7632C17.7733 27.2762 18.01 26.6494 18.01 26.0004C18.01 25.3513 17.7733 24.7246 17.3442 24.2376C16.9152 23.7506 16.3232 23.4368 15.6793 23.355C15.0355 23.2732 14.3839 23.4291 13.8467 23.7933C13.3095 24.1576 12.9236 24.7053 12.7613 25.3337H1.33333V22.6671H5.72667C6.11825 22.6672 6.50507 22.5813 6.85978 22.4154C7.21448 22.2495 7.52841 22.0077 7.77933 21.7071L8.86667 20.4004C9.21983 20.5727 9.60706 20.6638 10 20.6671C10.6032 20.6711 11.1903 20.4718 11.6664 20.1014C12.1425 19.7309 12.48 19.2109 12.6245 18.6252C12.7689 18.0395 12.7119 17.4222 12.4625 16.8729C12.2132 16.3236 11.7861 15.8742 11.2502 15.5973C10.7142 15.3204 10.1006 15.2321 9.50834 15.3466C8.91604 15.4611 8.37957 15.7717 7.98543 16.2284C7.59129 16.6851 7.36246 17.2613 7.33584 17.864C7.30921 18.4666 7.48634 19.0607 7.83867 19.5504L6.75667 20.8517C6.63065 21.0025 6.47312 21.1238 6.29516 21.207C6.1172 21.2903 5.92315 21.3336 5.72667 21.3337H1.33333V12.2671C2.10688 12.954 3.10545 13.3335 4.14 13.3337H36.6667C36.8435 13.3337 37.0131 13.404 37.1381 13.529C37.2631 13.654 37.3333 13.8236 37.3333 14.0004V22.0004H34C32.9391 22.0004 31.9217 22.4218 31.1716 23.172C30.4214 23.9221 30 24.9395 30 26.0004C30 27.0613 30.4214 28.0787 31.1716 28.8288C31.9217 29.579 32.9391 30.0004 34 30.0004H37.3333V38.0004C37.3333 38.1772 37.2631 38.3468 37.1381 38.4718C37.0131 38.5968 36.8435 38.6671 36.6667 38.6671ZM10 32.6671C10.2637 32.6671 10.5215 32.7453 10.7408 32.8918C10.96 33.0383 11.1309 33.2465 11.2318 33.4902C11.3328 33.7338 11.3592 34.0019 11.3077 34.2605C11.2563 34.5192 11.1293 34.7567 10.9428 34.9432C10.7563 35.1297 10.5188 35.2567 10.2601 35.3081C10.0015 35.3596 9.73339 35.3332 9.48976 35.2322C9.24612 35.1313 9.03788 34.9604 8.89137 34.7412C8.74487 34.5219 8.66667 34.2641 8.66667 34.0004C8.66667 33.6468 8.80714 33.3076 9.05719 33.0576C9.30724 32.8075 9.64638 32.6671 10 32.6671ZM14 26.0004C14 25.7367 14.0782 25.4789 14.2247 25.2596C14.3712 25.0404 14.5795 24.8695 14.8231 24.7686C15.0667 24.6676 15.3348 24.6412 15.5935 24.6927C15.8521 24.7441 16.0897 24.8711 16.2761 25.0576C16.4626 25.2441 16.5896 25.4816 16.641 25.7403C16.6925 25.9989 16.6661 26.267 16.5652 26.5106C16.4643 26.7543 16.2934 26.9625 16.0741 27.109C15.8548 27.2555 15.597 27.3337 15.3333 27.3337C14.9797 27.3337 14.6406 27.1933 14.3905 26.9432C14.1405 26.6932 14 26.354 14 26.0004ZM8.66667 18.0004C8.66667 17.7367 8.74487 17.4789 8.89137 17.2596C9.03788 17.0404 9.24612 16.8695 9.48976 16.7686C9.73339 16.6676 10.0015 16.6412 10.2601 16.6927C10.5188 16.7441 10.7563 16.8711 10.9428 17.0576C11.1293 17.2441 11.2563 17.4816 11.3077 17.7403C11.3592 17.9989 11.3328 18.267 11.2318 18.5106C11.1309 18.7543 10.96 18.9625 10.7408 19.109C10.5215 19.2555 10.2637 19.3337 10 19.3337C9.64638 19.3337 9.30724 19.1933 9.05719 18.9432C8.80714 18.6932 8.66667 18.354 8.66667 18.0004ZM38.6667 28.0004C38.6667 28.1772 38.5964 28.3468 38.4714 28.4718C38.3464 28.5968 38.1768 28.6671 38 28.6671H34C33.2928 28.6671 32.6145 28.3861 32.1144 27.886C31.6143 27.3859 31.3333 26.7076 31.3333 26.0004C31.3333 25.2932 31.6143 24.6149 32.1144 24.1148C32.6145 23.6147 33.2928 23.3337 34 23.3337H38C38.1768 23.3337 38.3464 23.404 38.4714 23.529C38.5964 23.654 38.6667 23.8236 38.6667 24.0004V28.0004Z" fill="black"/>
</g>
<defs>
<clipPath id="clip0_505_395">
<rect width="40" height="40" fill="white"/>
</clipPath>
</defs>
</svg>
