<svg width="40" height="40" viewBox="0 0 40 40" fill="none" xmlns="http://www.w3.org/2000/svg">
<g clip-path="url(#clip0_505_397)">
<path d="M38.6047 33.6169L31.0833 27.8695C33.7659 24.3718 35.0177 19.9848 34.5849 15.5981C34.1522 11.2115 32.0672 7.15365 28.753 4.24753C25.4387 1.34142 21.1432 -0.195403 16.7376 -0.0512507C12.3321 0.092902 8.14621 1.90723 5.02901 5.02379C1.91181 8.14035 0.0966045 12.3258 -0.0484622 16.7314C-0.193529 21.1369 1.3424 25.4327 4.24783 28.7476C7.15325 32.0625 11.2107 34.1482 15.5972 34.5819C19.9838 35.0156 24.3711 33.7646 27.8693 31.0829L33.618 38.6069C33.9265 39.0083 34.317 39.3394 34.7635 39.5782C35.2099 39.8169 35.7022 39.9578 36.2073 39.9915C36.2851 39.9969 36.3631 39.9995 36.4413 39.9995C36.9089 40.0001 37.372 39.9085 37.8041 39.7298C38.2361 39.5512 38.6287 39.289 38.9593 38.9583C39.2899 38.6277 39.552 38.2351 39.7306 37.803C39.9091 37.3709 40.0007 36.9077 40 36.4402C40.0016 35.8937 39.8764 35.3544 39.6343 34.8645C39.3922 34.3746 39.0397 33.9475 38.6047 33.6169ZM1.33333 17.3329C1.33333 14.1684 2.27172 11.0749 4.02982 8.44373C5.78792 5.81254 8.28678 3.76178 11.2104 2.55078C14.134 1.33978 17.3511 1.02293 20.4548 1.64029C23.5585 2.25765 26.4094 3.78151 28.647 6.01915C30.8847 8.25679 32.4085 11.1077 33.0259 14.2114C33.6433 17.3151 33.3264 20.5322 32.1154 23.4558C30.9044 26.3794 28.8536 28.8783 26.2225 30.6364C23.5913 32.3945 20.4978 33.3329 17.3333 33.3329C13.0914 33.3279 9.02459 31.6406 6.02508 28.6411C3.02557 25.6416 1.33827 21.5748 1.33333 17.3329ZM38.0167 38.0142C37.7908 38.2365 37.5209 38.4089 37.2243 38.5204C36.9277 38.6319 36.611 38.68 36.2947 38.6615C35.9789 38.6403 35.6713 38.552 35.3923 38.4025C35.1133 38.2531 34.8693 38.0459 34.6767 37.7949L28.8973 30.2315C29.3654 29.8114 29.8105 29.3663 30.2307 28.8982L37.7933 34.6755C38.045 34.868 38.2526 35.1119 38.4024 35.3911C38.5521 35.6702 38.6405 35.9782 38.6617 36.2942C38.6828 36.6103 38.6362 36.9273 38.525 37.2239C38.4137 37.5205 38.2404 37.79 38.0167 38.0142Z" fill="black"/>
<path d="M8.27066 23.0156C8.438 23.3146 8.68212 23.5635 8.97781 23.7366C9.2735 23.9097 9.61003 24.0007 9.95266 24.0003H24.714C25.0566 24.0007 25.3932 23.9097 25.6889 23.7366C25.9845 23.5635 26.2287 23.3146 26.396 23.0156C26.5731 22.7069 26.6658 22.3571 26.6648 22.0013C26.6639 21.6454 26.5693 21.296 26.3907 20.9883L19.012 8.31496C18.8443 8.01758 18.6006 7.77011 18.3058 7.59791C18.011 7.42571 17.6757 7.33496 17.3343 7.33496C16.9929 7.33496 16.6577 7.42571 16.3629 7.59791C16.0681 7.77011 15.8244 8.01758 15.6567 8.31496L8.27666 20.9876C8.09776 21.2954 8.00302 21.6448 8.00196 22.0008C8.00091 22.3568 8.09358 22.7068 8.27066 23.0156ZM9.42866 21.659L16.8113 8.97896C16.8622 8.88431 16.9378 8.80527 17.0301 8.75027C17.1224 8.69528 17.2279 8.66641 17.3353 8.66675C17.4428 8.66709 17.5481 8.69664 17.64 8.75222C17.732 8.8078 17.8071 8.88733 17.8573 8.9823L25.2387 21.6596C25.3004 21.7645 25.333 21.884 25.333 22.0056C25.333 22.1273 25.3004 22.2468 25.2387 22.3516C25.1872 22.4463 25.1114 22.5255 25.019 22.5809C24.9266 22.6364 24.8211 22.6661 24.7133 22.667H9.95266C9.84485 22.666 9.73925 22.6363 9.64678 22.5808C9.5543 22.5254 9.47831 22.4463 9.42666 22.3516C9.36524 22.2465 9.33304 22.1268 9.3334 22.005C9.33375 21.8832 9.36664 21.7638 9.42866 21.659Z" fill="black"/>
<path d="M17.3333 2.66699C17.1565 2.66699 16.987 2.73723 16.8619 2.86225C16.7369 2.98728 16.6667 3.15685 16.6667 3.33366C16.6667 3.51047 16.7369 3.68004 16.8619 3.80506C16.987 3.93009 17.1565 4.00033 17.3333 4.00033C20.7293 4.00206 23.9964 5.30016 26.4676 7.62951C28.9387 9.95886 30.4274 13.1437 30.6296 16.5336C30.8317 19.9235 29.7321 23.2628 27.5554 25.8693C25.3786 28.4758 22.2889 30.1531 18.9172 30.5584C15.5455 30.9637 12.1463 30.0666 9.41378 28.0503C6.68125 26.0339 4.82156 23.0505 4.21451 19.7092C3.60747 16.368 4.29887 12.921 6.14752 10.0724C7.99616 7.22369 10.8626 5.18822 14.1613 4.38166C14.3331 4.33958 14.4811 4.23098 14.5728 4.07977C14.6645 3.92855 14.6924 3.7471 14.6503 3.57533C14.6083 3.40355 14.4997 3.25553 14.3484 3.16383C14.1972 3.07212 14.0158 3.04424 13.844 3.08633C10.2116 3.97387 7.05512 6.21467 5.0192 9.35106C2.98328 12.4875 2.22155 16.2828 2.8896 19.9619C3.55765 23.6409 5.60508 26.9262 8.61369 29.1466C11.6223 31.367 15.3651 32.355 19.0776 31.9088C22.7902 31.4627 26.1923 29.616 28.5892 26.746C30.986 23.876 32.1968 20.1992 31.9742 16.4666C31.7515 12.734 30.1122 9.22721 27.3912 6.66249C24.6701 4.09778 21.0726 2.66864 17.3333 2.66699Z" fill="black"/>
<path d="M36.4713 35.5289C36.3456 35.4075 36.1772 35.3403 36.0024 35.3418C35.8276 35.3433 35.6604 35.4135 35.5368 35.5371C35.4132 35.6607 35.3431 35.8279 35.3415 36.0027C35.34 36.1775 35.4072 36.3459 35.5287 36.4716L36.1953 37.1383C36.3211 37.2597 36.4895 37.3269 36.6643 37.3254C36.8391 37.3239 37.0063 37.2538 37.1299 37.1302C37.2535 37.0065 37.3236 36.8393 37.3251 36.6645C37.3266 36.4897 37.2594 36.3213 37.138 36.1956L36.4713 35.5289Z" fill="black"/>
<path d="M17.3333 18C17.5101 18 17.6797 17.9298 17.8047 17.8047C17.9298 17.6797 18 17.5101 18 17.3333V12.6667C18 12.4899 17.9298 12.3203 17.8047 12.1953C17.6797 12.0702 17.5101 12 17.3333 12C17.1565 12 16.987 12.0702 16.8619 12.1953C16.7369 12.3203 16.6667 12.4899 16.6667 12.6667V17.3333C16.6667 17.5101 16.7369 17.6797 16.8619 17.8047C16.987 17.9298 17.1565 18 17.3333 18Z" fill="black"/>
<path d="M17.3333 21.333C17.5101 21.333 17.6797 21.2628 17.8047 21.1377C17.9298 21.0127 18 20.8432 18 20.6663V19.9997C18 19.8229 17.9298 19.6533 17.8047 19.5283C17.6797 19.4032 17.5101 19.333 17.3333 19.333C17.1565 19.333 16.987 19.4032 16.8619 19.5283C16.7369 19.6533 16.6667 19.8229 16.6667 19.9997V20.6663C16.6667 20.8432 16.7369 21.0127 16.8619 21.1377C16.987 21.2628 17.1565 21.333 17.3333 21.333Z" fill="black"/>
</g>
<defs>
<clipPath id="clip0_505_397">
<rect width="40" height="40" fill="white"/>
</clipPath>
</defs>
</svg>
