<svg width="40" height="40" viewBox="0 0 40 40" fill="none" xmlns="http://www.w3.org/2000/svg">
<g clip-path="url(#clip0_505_374)">
<path d="M38.2721 36.5397C38.2716 36.5397 38.2709 36.5397 38.2705 36.5397L37.9463 36.54L37.9274 18.7395C37.927 18.3912 37.6445 18.1091 37.2963 18.1091C37.2962 18.1091 37.2959 18.1091 37.2956 18.1091C36.947 18.1095 36.6649 18.3923 36.6653 18.7408L36.6842 36.5414L31.0196 36.5475L31.016 33.1574L31.0046 22.3524C31.0046 22.3517 31.0045 22.3511 31.0045 22.3504L30.9933 11.7248C30.993 11.4932 31.0829 11.2754 31.2465 11.1116C31.41 10.9477 31.6275 10.8573 31.859 10.8571L35.7904 10.8529C35.7907 10.8529 35.7911 10.8529 35.7914 10.8529C36.0225 10.8529 36.2399 10.9428 36.4035 11.1061C36.5674 11.2697 36.6578 11.4872 36.658 11.7189L36.6634 16.5248C36.6638 16.873 36.9462 17.1551 37.2944 17.1551C37.2946 17.1551 37.2949 17.1551 37.2952 17.1551C37.6437 17.1547 37.9259 16.8719 37.9255 16.5233L37.9201 11.7174C37.9194 11.1488 37.6975 10.6145 37.2949 10.2128C36.893 9.8116 36.3592 9.59082 35.7915 9.59082C35.7907 9.59082 35.7898 9.59082 35.7892 9.59082L31.8578 9.59496C31.2891 9.59566 30.7547 9.81762 30.353 10.2201C29.9514 10.6226 29.7304 11.1576 29.7312 11.7261L29.7404 20.4106C29.4754 20.2922 29.1821 20.2258 28.8734 20.2258L24.942 20.2301C24.6383 20.2304 24.3446 20.2944 24.0755 20.4148L24.0738 18.7994C24.0725 17.6267 23.1176 16.6729 21.9428 16.6729L18.0114 16.677C16.8376 16.6784 15.8836 17.6344 15.885 18.8082L15.8918 25.2522C15.6268 25.1339 15.3335 25.0674 15.0248 25.0674L11.0935 25.0716C10.7898 25.0719 10.496 25.136 10.2269 25.2564L10.225 23.4836C10.2237 22.311 9.26877 21.3572 8.09393 21.3572L4.16263 21.3614C3.59396 21.362 3.05959 21.584 2.65787 21.9865C2.25623 22.3889 2.0353 22.9239 2.03592 23.4925L2.04991 36.5787L1.72608 36.579C1.26905 36.5794 0.8396 36.7579 0.516867 37.0814C0.194135 37.4049 0.0166358 37.8346 0.0171827 38.2915C0.0181202 39.2343 0.785303 40.0006 1.72795 40.0006C1.72842 40.0006 1.72913 40.0006 1.72967 40.0006L28.2338 39.9723C28.5824 39.9719 28.8646 39.6891 28.8642 39.3406C28.8638 38.9921 28.5792 38.7117 28.2325 38.7102L1.72842 38.7385C1.72827 38.7385 1.72811 38.7385 1.72795 38.7385C1.48077 38.7385 1.2796 38.5375 1.27936 38.2903C1.27921 38.1704 1.32577 38.0577 1.41046 37.973C1.49506 37.8882 1.60764 37.8414 1.72749 37.8414L7.47487 37.8352L9.60931 37.8327L16.5362 37.8253L19.9648 37.8217L32.0857 37.8087L37.3166 37.8032C37.3169 37.8032 37.3174 37.8032 37.3177 37.8032L38.2716 37.8022C38.2718 37.8022 38.272 37.8022 38.2721 37.8022C38.5193 37.8022 38.7204 38.0032 38.7206 38.2503C38.7208 38.3703 38.6742 38.4831 38.5896 38.5678C38.505 38.6526 38.3924 38.6992 38.2727 38.6993L30.4653 38.7078C30.1167 38.7082 29.8345 38.991 29.8349 39.3395C29.8353 39.6878 30.1177 39.9699 30.4659 39.9699C30.4661 39.9699 30.4664 39.9699 30.4666 39.9699L38.2739 39.9614C38.7309 39.961 39.1603 39.7825 39.483 39.459C39.8058 39.1356 39.9832 38.7058 39.9827 38.2489C39.9819 37.306 39.2147 36.5397 38.2721 36.5397ZM7.45886 36.5726L3.31216 36.577L3.29826 23.4908C3.29802 23.2593 3.38787 23.0414 3.55146 22.8776C3.71505 22.7138 3.93263 22.6235 4.16411 22.6232L8.09628 22.6189C8.5737 22.6189 8.96244 23.0073 8.96299 23.4847L8.96885 28.999L8.97682 36.571L7.45886 36.5726ZM15.0628 36.5645L10.239 36.5696L10.2291 27.2011C10.2286 26.7231 10.617 26.3339 11.0949 26.3335L15.0271 26.3292C15.5045 26.3292 15.8933 26.7176 15.8938 27.1951L15.9017 34.5827L15.9038 36.5636L15.0628 36.5645ZM19.979 36.5593L17.1658 36.5623L17.1469 18.8066C17.1465 18.3287 17.5348 17.9393 18.0126 17.9388L21.9449 17.9347C22.4223 17.9347 22.811 18.323 22.8116 18.8005L22.8245 30.9265L22.8304 36.5562L19.979 36.5593ZM24.8951 36.554L24.0925 36.5549L24.0774 22.3596C24.0774 22.128 24.1672 21.9103 24.3307 21.7464C24.4942 21.5825 24.7118 21.4922 24.9433 21.4919L28.8755 21.4877C29.3526 21.4877 29.7412 21.8755 29.7422 22.3525L29.7573 36.5488L24.8951 36.554Z" fill="black"/>
<path d="M6.12034 15.8047C6.12058 15.8047 6.12214 15.8047 6.12237 15.8047C6.66081 15.804 7.15002 15.5913 7.51198 15.2463L11.0623 17.1469C11.0424 17.2617 11.0317 17.3789 11.0318 17.4979C11.033 18.6101 11.9387 19.515 13.0508 19.515C13.0511 19.515 13.0528 19.515 13.053 19.515C14.1663 19.5137 15.0712 18.607 15.0702 17.4936C15.0698 17.0983 14.9546 16.7295 14.7569 16.4179L19.2364 10.9823C19.4636 11.0711 19.7105 11.1205 19.9688 11.1205C19.969 11.1205 19.9707 11.1205 19.971 11.1205C20.5055 11.1199 21.0078 10.9129 21.3876 10.5377L24.9048 12.3409C24.8887 12.4438 24.8802 12.5491 24.8803 12.6565C24.8816 13.7687 25.7873 14.6735 26.8994 14.6735C26.8997 14.6735 26.9014 14.6735 26.9016 14.6735C27.4409 14.6729 27.9479 14.4623 28.3289 14.0806C28.7097 13.6989 28.9193 13.1916 28.9188 12.6522C28.9183 12.1756 28.7513 11.7373 28.4733 11.3917L33.2985 3.97123C33.4634 4.01498 33.6364 4.03857 33.8149 4.03857C33.8151 4.03857 33.8168 4.03857 33.8171 4.03857C34.3564 4.03794 34.8633 3.8274 35.2443 3.44568C35.6252 3.06389 35.8348 2.55663 35.8342 2.01718C35.8331 0.904916 34.9274 0 33.8131 0C33.2737 0.000624996 32.7668 0.211171 32.3858 0.592887C32.005 0.974682 31.7953 1.48194 31.7959 2.02139C31.7964 2.49811 31.9635 2.93639 32.2414 3.28193L27.4161 10.7026C27.2505 10.6587 27.0768 10.6349 26.8976 10.6349C26.3462 10.6356 25.8462 10.8584 25.4819 11.2183L21.964 9.41471C21.9801 9.3112 21.9885 9.2058 21.9884 9.09901C21.9871 7.98675 21.0814 7.08191 19.9671 7.08191C19.4277 7.08254 18.9209 7.29308 18.5398 7.6748C18.1589 8.05659 17.9493 8.56386 17.9499 9.10331C17.9503 9.49862 18.0655 9.86736 18.2632 10.179L13.7834 15.615C13.5557 15.526 13.3082 15.4765 13.0491 15.4765C12.5267 15.4771 12.0352 15.6751 11.6586 16.0344L8.10893 14.1341C8.12885 14.0202 8.13978 13.903 8.13963 13.7833C8.13854 12.6709 7.23276 11.7662 6.11847 11.7662C5.5791 11.7666 5.07215 11.9773 4.69113 12.359C4.31028 12.7407 4.10067 13.248 4.10114 13.7875C4.10215 14.8998 5.00801 15.8047 6.12034 15.8047ZM33.2792 1.48444C33.4221 1.34132 33.6121 1.26234 33.8152 1.2621C34.2321 1.2621 34.5718 1.60132 34.5723 2.01843C34.5725 2.22069 34.4939 2.41092 34.3511 2.55405C34.2082 2.69717 34.0181 2.77616 33.816 2.77639L33.8151 3.4074V2.77639C33.3982 2.77639 33.0585 2.43717 33.058 2.02007C33.0578 1.81772 33.1363 1.62757 33.2792 1.48444ZM26.8998 11.897C27.3167 11.897 27.6564 12.2363 27.6569 12.6534C27.6571 12.8555 27.5785 13.0458 27.4357 13.1889C27.2928 13.332 27.1027 13.411 26.9005 13.4112L26.8996 14.0423V13.4112C26.4826 13.4112 26.143 13.072 26.1425 12.655C26.1421 12.2374 26.4813 11.8974 26.8998 11.897ZM19.433 8.56636C19.5759 8.42323 19.766 8.34425 19.969 8.34401C20.386 8.34401 20.7256 8.68323 20.7261 9.10034C20.7264 9.3026 20.6478 9.49284 20.5049 9.63596C20.3621 9.77908 20.172 9.85807 19.9698 9.8583L19.9689 10.4893V9.8583C19.5519 9.8583 19.2122 9.51908 19.2118 9.10198C19.2116 8.89963 19.2901 8.70948 19.433 8.56636ZM12.5152 16.9609C12.658 16.8178 12.8481 16.7388 13.0512 16.7386C13.4681 16.7386 13.8078 17.0778 13.8083 17.4948C13.8087 17.9124 13.4694 18.2525 13.0519 18.2529L13.0509 18.8839V18.2529C12.6341 18.2529 12.2944 17.9136 12.2939 17.4965C12.2937 17.2943 12.3722 17.104 12.5152 16.9609ZM5.58425 13.2505C5.72714 13.1073 5.91722 13.0284 6.12034 13.0282C6.53729 13.0282 6.8769 13.3674 6.87737 13.7844C6.87776 14.202 6.53854 14.5421 6.12112 14.5426L6.12026 15.1736V14.5426C5.70316 14.5426 5.36347 14.2033 5.363 13.7862C5.36293 13.5839 5.44144 13.3937 5.58425 13.2505Z" fill="black"/>
</g>
<defs>
<clipPath id="clip0_505_374">
<rect width="40" height="40" fill="white"/>
</clipPath>
</defs>
</svg>
