<svg width="40" height="40" viewBox="0 0 40 40" fill="none" xmlns="http://www.w3.org/2000/svg">
<g clip-path="url(#clip0_505_419)">
<path d="M7.11398 20.4926C7.11031 20.4941 7.10665 20.4953 7.10299 20.4971C6.98122 20.5472 4.12265 21.7606 4.12265 25.0983V36.6537L3.90017 36.8466C3.15158 37.4954 3.07071 38.6322 3.71951 39.3805C4.37411 40.1361 5.51028 40.2057 6.25369 39.5614L16.9287 30.3064L21.366 35.087C22.0432 35.8163 23.1958 35.8584 23.9233 35.1639L28.8296 30.4788C29.0643 30.2545 29.0729 29.8825 28.8489 29.6475C28.6246 29.4125 28.2523 29.404 28.0176 29.6286L23.1113 34.3133C22.8647 34.5486 22.4667 34.5444 22.2278 34.2868L17.4039 29.09C17.1881 28.8577 16.8271 28.8382 16.5878 29.0457L5.48342 38.6728C5.21823 38.9029 4.8276 38.8638 4.60818 38.6105C4.38388 38.3517 4.41195 37.959 4.67044 37.735C4.87399 37.5583 15.6281 28.2349 16.6574 27.3425C16.658 27.3419 16.6583 27.3416 16.6589 27.3413C16.9122 27.1231 17.2949 27.1481 17.5189 27.3892L18.2205 28.1451L22.3035 32.5439C22.5299 32.7878 22.9074 32.7917 23.1406 32.5693C23.6386 32.0935 32.4332 23.696 32.7966 23.3487C33.1579 23.0035 33.1601 22.4252 32.8009 22.0773L32.2931 21.586L35.531 21.5286L35.5884 24.7751L34.9618 24.169C34.6203 23.8382 34.0835 23.8364 33.7396 24.1647L30.0018 27.7338C29.7671 27.9581 29.7583 28.3301 29.9826 28.5651C30.2066 28.7997 30.5789 28.8083 30.8139 28.584L34.3472 25.2103L35.3103 26.1426C35.8636 26.6778 36.7908 26.2759 36.7773 25.5057L36.701 21.1972C36.6925 20.7202 36.2948 20.3406 35.8206 20.3476L31.5237 20.4236C30.7556 20.437 30.3848 21.3751 30.9375 21.9104L31.7633 22.7097L29.9722 24.4199C29.6213 21.5952 27.1478 20.5435 27.0346 20.4971C27.0309 20.4953 27.0273 20.4941 27.0236 20.4926L20.3262 17.8989V16.355C21.3873 15.5261 22.1243 14.3021 22.3148 12.9059C23.6246 12.8031 24.5737 11.7355 24.5737 10.4923C24.5737 9.91213 24.3655 9.35762 23.9944 8.92458V6.85427C23.9944 5.26614 23.4467 3.71157 22.4521 2.47683C21.4731 1.26163 20.1004 0.399506 18.587 0.0494694C18.2712 -0.0234674 17.955 0.173676 17.8818 0.490143C17.8088 0.806304 18.006 1.12216 18.3221 1.1951C20.9695 1.80728 22.8186 4.13455 22.8186 6.85457V8.16988C22.6715 8.12746 22.5198 8.09847 22.3648 8.08321C22.3648 7.55648 22.3145 7.60073 20.5896 5.74648C20.2493 5.38088 19.6985 5.31344 19.2804 5.58688C17.3288 6.8619 14.9481 7.50216 12.7518 7.34469C12.2537 7.30684 11.8134 7.63491 11.6876 8.09908C11.5445 8.11647 11.3608 8.15493 11.1981 8.20742V6.85427C11.1981 4.10983 13.1461 1.71634 15.8298 1.16366C16.1478 1.09836 16.3525 0.787383 16.2869 0.469391C16.2213 0.151398 15.9103 -0.0533746 15.5927 0.0122381C12.3648 0.67691 10.0223 3.55441 10.0223 6.85457V8.97921C9.64693 9.40767 9.44307 9.9341 9.44307 10.4923C9.44307 11.7447 10.4013 12.8046 11.7032 12.9062C11.8961 14.2627 12.6282 15.5725 13.8034 16.4398V17.8989L7.11398 20.4926ZM22.3651 9.27126C22.9849 9.38631 23.3981 9.90633 23.3981 10.4923C23.3981 11.0834 22.9822 11.5997 22.3651 11.7142V9.27126ZM11.6522 11.7142C11.0364 11.6001 10.6192 11.0852 10.6192 10.4923C10.6192 9.91182 11.0941 9.44307 11.6522 9.30056V11.7142ZM14.9701 27.2491L9.75069 31.7743V26.1233C9.75069 25.7983 9.48763 25.5353 9.16262 25.5353C8.83791 25.5353 8.57485 25.7983 8.57485 26.1233V32.7936L5.29849 35.6341V25.0983C5.29849 22.5885 7.41549 21.6418 7.54641 21.586L11.5546 20.032L13.3148 23.5599C13.5904 24.1122 14.2963 24.292 14.8026 23.9322L15.0156 23.7811L15.4471 24.4305L14.9701 27.2491ZM16.3464 26.163L16.5622 24.8871H17.5714L17.7878 26.1652C17.316 25.9564 16.7896 25.9683 16.3464 26.163ZM17.753 23.7112H16.3809L15.9747 23.1L17.067 22.3242L18.1592 23.0997L17.753 23.7112ZM14.9796 18.089V17.0898C16.3458 17.6285 17.9025 17.59 19.1507 17.052V18.0933L17.067 20.6656L14.9796 18.089ZM26.5906 21.5857C26.7374 21.6489 28.8394 22.5977 28.8394 25.0983V25.5017L25.563 28.6304V26.1233C25.563 25.7983 25.2997 25.5353 24.975 25.5353C24.6503 25.5353 24.3872 25.7983 24.3872 26.1233V29.7531L22.7597 31.3071L19.2017 27.4737L18.6868 24.4305L19.1184 23.7808L19.3314 23.9322C19.8355 24.2905 20.5423 24.1144 20.8191 23.5599L22.5793 20.032L26.5906 21.5857ZM21.478 19.6057L19.8538 22.861C19.7635 22.7972 18.0063 21.5491 17.9163 21.485L19.9258 19.0048L21.478 19.6057ZM12.8281 12.1878C12.8281 11.5241 12.8281 9.45375 12.8281 8.52755C15.1581 8.65694 17.6926 7.99501 19.816 6.64065C20.593 7.475 21.0422 7.94283 21.1893 8.12105C21.1893 12.8458 21.1899 12.1036 21.1877 12.2501C21.1111 14.6555 19.1953 16.3004 17.0767 16.3004C14.5197 16.3004 12.8281 14.3128 12.8281 12.1878ZM14.2053 19.0057L16.2152 21.4865C15.3931 22.0706 14.3436 22.8162 14.2801 22.861L12.656 19.6057L14.2053 19.0057Z" fill="black"/>
</g>
<defs>
<clipPath id="clip0_505_419">
<rect width="40" height="40" fill="white"/>
</clipPath>
</defs>
</svg>
