<svg width="40" height="40" viewBox="0 0 40 40" fill="none" xmlns="http://www.w3.org/2000/svg">
<g clip-path="url(#clip0_505_354)">
<path d="M18.125 27.5254H11.1594C10.9936 27.5254 10.8346 27.4595 10.7174 27.3423C10.6002 27.2251 10.5344 27.0662 10.5344 26.9004V9.08789C10.5344 8.92213 10.6002 8.76316 10.7174 8.64595C10.8346 8.52874 10.9936 8.46289 11.1594 8.46289H18.125C18.2907 8.46289 18.4497 8.52874 18.5669 8.64595C18.6841 8.76316 18.75 8.92213 18.75 9.08789V26.9004C18.75 27.0662 18.6841 27.2251 18.5669 27.3423C18.4497 27.4595 18.2907 27.5254 18.125 27.5254ZM11.7875 26.2754H17.5V9.71289H11.7844L11.7875 26.2754Z" fill="black"/>
<path d="M14.6406 9.6625C14.4749 9.6625 14.3159 9.59665 14.1987 9.47944C14.0815 9.36223 14.0156 9.20326 14.0156 9.0375V0.625C14.0156 0.45924 14.0815 0.300269 14.1987 0.183058C14.3159 0.065848 14.4749 0 14.6406 0C14.8064 0 14.9654 0.065848 15.0826 0.183058C15.1998 0.300269 15.2656 0.45924 15.2656 0.625V9.0625C15.2592 9.22389 15.1905 9.37651 15.074 9.48837C14.9574 9.60022 14.8021 9.66263 14.6406 9.6625Z" fill="black"/>
<path d="M14.6406 33.5441C14.4749 33.5441 14.3159 33.4783 14.1987 33.3611C14.0815 33.2439 14.0156 33.0849 14.0156 32.9191V26.9004C14.0156 26.7346 14.0815 26.5757 14.1987 26.4584C14.3159 26.3412 14.4749 26.2754 14.6406 26.2754C14.8064 26.2754 14.9654 26.3412 15.0826 26.4584C15.1998 26.5757 15.2656 26.7346 15.2656 26.9004V32.9191C15.2656 33.0849 15.1998 33.2439 15.0826 33.3611C14.9654 33.4783 14.8064 33.5441 14.6406 33.5441Z" fill="black"/>
<path d="M39.3125 23.8191H32.35C32.1842 23.8191 32.0253 23.7533 31.9081 23.6361C31.7909 23.5189 31.725 23.3599 31.725 23.1941V13.9629C31.725 13.7971 31.7909 13.6382 31.9081 13.5209C32.0253 13.4037 32.1842 13.3379 32.35 13.3379H39.3125C39.4783 13.3379 39.6372 13.4037 39.7544 13.5209C39.8717 13.6382 39.9375 13.7971 39.9375 13.9629V23.1941C39.9375 23.3599 39.8717 23.5189 39.7544 23.6361C39.6372 23.7533 39.4783 23.8191 39.3125 23.8191ZM32.975 22.5691H38.6875V14.5879H32.975V22.5691Z" fill="black"/>
<path d="M35.8312 14.5342C35.6655 14.5342 35.5065 14.4683 35.3893 14.3511C35.2721 14.2339 35.2062 14.0749 35.2062 13.9092V7.37793C35.2062 7.21217 35.2721 7.0532 35.3893 6.93599C35.5065 6.81878 35.6655 6.75293 35.8312 6.75293C35.997 6.75293 36.156 6.81878 36.2732 6.93599C36.3904 7.0532 36.4562 7.21217 36.4562 7.37793V13.9092C36.4562 14.0749 36.3904 14.2339 36.2732 14.3511C36.156 14.4683 35.997 14.5342 35.8312 14.5342Z" fill="black"/>
<path d="M35.8312 31.8027C35.6655 31.8027 35.5065 31.7369 35.3893 31.6197C35.2721 31.5025 35.2062 31.3435 35.2062 31.1777V23.1934C35.2062 23.0276 35.2721 22.8686 35.3893 22.7514C35.5065 22.6342 35.6655 22.5684 35.8312 22.5684C35.997 22.5684 36.156 22.6342 36.2732 22.7514C36.3904 22.8686 36.4562 23.0276 36.4562 23.1934V31.1777C36.4562 31.3435 36.3904 31.5025 36.2732 31.6197C36.156 31.7369 35.997 31.8027 35.8312 31.8027Z" fill="black"/>
<path d="M28.7156 13.5723H21.7531C21.5874 13.5723 21.4284 13.5064 21.3112 13.3892C21.194 13.272 21.1281 13.113 21.1281 12.9473V5.44727C21.1281 5.28151 21.194 5.12253 21.3112 5.00532C21.4284 4.88811 21.5874 4.82227 21.7531 4.82227H28.7156C28.8814 4.82227 29.0403 4.88811 29.1576 5.00532C29.2748 5.12253 29.3406 5.28151 29.3406 5.44727V12.9473C29.3406 13.113 29.2748 13.272 29.1576 13.3892C29.0403 13.5064 28.8814 13.5723 28.7156 13.5723ZM22.3781 12.3223H28.0906V6.07227H22.3781V12.3223Z" fill="black"/>
<path d="M25.2344 6.03125C25.0686 6.03125 24.9096 5.9654 24.7924 5.84819C24.6752 5.73098 24.6094 5.57201 24.6094 5.40625V0.625C24.6094 0.45924 24.6752 0.300269 24.7924 0.183058C24.9096 0.065848 25.0686 0 25.2344 0C25.4001 0 25.5591 0.065848 25.6763 0.183058C25.7935 0.300269 25.8594 0.45924 25.8594 0.625V5.40625C25.8594 5.57201 25.7935 5.73098 25.6763 5.84819C25.5591 5.9654 25.4001 6.03125 25.2344 6.03125Z" fill="black"/>
<path d="M25.2344 25.0379C25.0686 25.0379 24.9096 24.972 24.7924 24.8548C24.6752 24.7376 24.6094 24.5787 24.6094 24.4129V12.9473C24.6094 12.7815 24.6752 12.6225 24.7924 12.5053C24.9096 12.3881 25.0686 12.3223 25.2344 12.3223C25.4001 12.3223 25.5591 12.3881 25.6763 12.5053C25.7935 12.6225 25.8594 12.7815 25.8594 12.9473V24.4129C25.8594 24.5787 25.7935 24.7376 25.6763 24.8548C25.5591 24.972 25.4001 25.0379 25.2344 25.0379Z" fill="black"/>
<path d="M7.525 34.0625H0.5625C0.39674 34.0625 0.237769 33.9967 0.120558 33.8794C0.00334804 33.7622 -0.0625 33.6033 -0.0625 33.4375V28.2812C-0.0625 28.1155 0.00334804 27.9565 0.120558 27.8393C0.237769 27.7221 0.39674 27.6562 0.5625 27.6562H7.525C7.69076 27.6562 7.84973 27.7221 7.96694 27.8393C8.08415 27.9565 8.15 28.1155 8.15 28.2812V33.4375C8.15 33.6033 8.08415 33.7622 7.96694 33.8794C7.84973 33.9967 7.69076 34.0625 7.525 34.0625ZM1.1875 32.8125H6.9V28.9062H1.1875V32.8125Z" fill="black"/>
<path d="M4.04376 40C3.878 40 3.71903 39.9342 3.60182 39.8169C3.48461 39.6997 3.41876 39.5408 3.41876 39.375V33.4375C3.41876 33.2717 3.48461 33.1128 3.60182 32.9956C3.71903 32.8783 3.878 32.8125 4.04376 32.8125C4.20952 32.8125 4.36849 32.8783 4.4857 32.9956C4.60291 33.1128 4.66876 33.2717 4.66876 33.4375V39.375C4.66876 39.5408 4.60291 39.6997 4.4857 39.8169C4.36849 39.9342 4.20952 40 4.04376 40Z" fill="black"/>
<path d="M4.04376 28.9059C3.878 28.9059 3.71903 28.84 3.60182 28.7228C3.48461 28.6056 3.41876 28.4466 3.41876 28.2809V11.6621C3.41876 11.4963 3.48461 11.3374 3.60182 11.2202C3.71903 11.103 3.878 11.0371 4.04376 11.0371C4.20952 11.0371 4.36849 11.103 4.4857 11.2202C4.60291 11.3374 4.66876 11.4963 4.66876 11.6621V28.2809C4.66876 28.4466 4.60291 28.6056 4.4857 28.7228C4.36849 28.84 4.20952 28.9059 4.04376 28.9059Z" fill="black"/>
</g>
<defs>
<clipPath id="clip0_505_354">
<rect width="40" height="40" fill="white"/>
</clipPath>
</defs>
</svg>
