<svg width="40" height="40" viewBox="0 0 40 40" fill="none" xmlns="http://www.w3.org/2000/svg">
<path d="M36.09 31.1018C36.8801 30.0154 37.3083 28.7079 37.314 27.3645C37.3225 27.1879 37.2605 27.0151 37.1416 26.8842C37.0227 26.7533 36.8566 26.675 36.68 26.6665C36.3136 26.6528 36.0035 26.9345 35.982 27.3005C35.987 28.3652 35.659 29.4048 35.044 30.2738C33.7433 31.9165 31.2753 31.9998 30.7933 31.9998C30.4251 31.9998 30.1266 32.2983 30.1266 32.6665C30.1266 33.0347 30.4251 33.3332 30.7933 33.3332C31.3826 33.3332 34.4073 33.2258 36.09 31.1018Z" fill="black"/>
<path d="M22.6666 22.666C22.6666 22.2978 22.3682 21.9993 22 21.9993C21.6318 21.9993 21.3333 22.2978 21.3333 22.666C21.3333 24.1388 22.5272 25.3327 24 25.3327V25.9993C24 26.3675 24.2985 26.666 24.6666 26.666C25.0348 26.666 25.3333 26.3675 25.3333 25.9993V25.3327C26.8061 25.3327 28 24.1388 28 22.666C28 21.1933 26.8061 19.9993 25.3333 19.9993V17.3327C26.0697 17.3327 26.6666 17.9296 26.6666 18.666C26.6666 19.0342 26.9651 19.3327 27.3333 19.3327C27.7015 19.3327 28 19.0342 28 18.666C28 17.1933 26.8061 15.9993 25.3333 15.9993V15.3327C25.3333 14.9645 25.0348 14.666 24.6666 14.666C24.2985 14.666 24 14.9645 24 15.3327V15.9993C22.5272 15.9993 21.3333 17.1933 21.3333 18.666C21.3333 20.1388 22.5272 21.3327 24 21.3327V23.9993C23.2636 23.9993 22.6666 23.4024 22.6666 22.666ZM22.6666 18.666C22.6666 17.9296 23.2636 17.3327 24 17.3327V19.9993C23.2636 19.9993 22.6666 19.4024 22.6666 18.666ZM25.3333 21.3327C26.0697 21.3327 26.6666 21.9296 26.6666 22.666C26.6666 23.4024 26.0697 23.9993 25.3333 23.9993V21.3327Z" fill="black"/>
<path d="M39.4427 22.5135C37.8 15.5329 34.148 11.4882 31.5107 9.37552C34.818 9.62485 35.8827 11.0009 35.914 11.0422C36.1229 11.3403 36.5323 11.4158 36.8337 11.2118C37.1352 11.0077 37.2172 10.5995 37.018 10.2949C36.97 10.2229 36.044 8.90019 33.3513 8.29485C34.0399 7.72885 34.4472 6.89061 34.4667 5.99952C34.3775 4.52215 33.3491 3.26937 31.9173 2.89419C31.976 2.41262 32.0059 1.92798 32.0067 1.44285C32.006 0.99592 31.7814 0.579073 31.4085 0.332645C31.0356 0.086218 30.5641 0.0429923 30.1527 0.217521C29.8161 0.369904 29.5035 0.57045 29.2247 0.812854C28.8975 1.14907 28.4471 1.33693 27.978 1.33285C27.5096 1.33615 27.0602 1.14837 26.7333 0.812854C25.5584 -0.272253 23.7469 -0.272253 22.572 0.812854C22.2448 1.1498 21.7937 1.33776 21.324 1.33285C20.8557 1.33675 20.4062 1.14886 20.08 0.812854C19.8019 0.57097 19.4902 0.370666 19.1547 0.218187C18.7435 0.0448288 18.2729 0.0886447 17.9008 0.334926C17.5287 0.581207 17.3044 0.9973 17.3033 1.44352C17.3033 3.10219 17.6313 6.06085 19.708 8.04752C18.6166 8.71115 17.5973 9.48667 16.6667 10.3615V5.33285C16.6667 3.81285 14.5167 2.66619 11.6667 2.66619C8.81667 2.66619 6.66667 3.81285 6.66667 5.33285V12.0495C4.32867 12.2829 2.66667 13.3329 2.66667 14.6662V31.6229C1.056 32.0555 0 32.9329 0 33.9995V37.3329C0 38.8529 2.15 39.9995 5 39.9995C7.54867 39.9995 9.53333 39.0815 9.92467 37.7995C11.0754 38.4088 12.3652 38.7075 13.6667 38.6662C16.5167 38.6662 18.6667 37.5195 18.6667 35.9995V27.3329C18.6667 25.8129 16.5167 24.6662 13.6667 24.6662C13.3327 24.666 12.9989 24.6827 12.6667 24.7162V14.6662C12.6667 13.2062 10.682 12.0942 8 12.0082V7.17885C9.13415 7.75531 10.395 8.03751 11.6667 7.99952C12.9383 8.03751 14.1992 7.75531 15.3333 7.17885V11.7255C14.894 12.2169 14.4527 12.7522 14.0173 13.3455C13.818 13.6424 13.8883 14.0436 14.1768 14.255C14.4652 14.4663 14.8691 14.4124 15.092 14.1329C15.5202 13.5532 15.9791 12.9968 16.4667 12.4662C16.472 12.4602 16.4767 12.4542 16.482 12.4489C17.7546 11.0345 19.2491 9.83684 20.9067 8.90285C21.2335 9.06049 21.5792 9.17544 21.9353 9.24485L20.2167 10.8489C19.9475 11.1003 19.9332 11.5224 20.1847 11.7915C20.4361 12.0607 20.8582 12.075 21.1273 11.8235L23.794 9.33619H24.0067V11.3362C24.0067 11.7044 24.3051 12.0029 24.6733 12.0029C25.0415 12.0029 25.34 11.7044 25.34 11.3362V9.33285H25.5527L28.2193 11.8202C28.3934 11.9829 28.6411 12.0403 28.869 11.9709C29.097 11.9014 29.2706 11.7156 29.3244 11.4835C29.3782 11.2514 29.3041 11.0082 29.13 10.8455L27.4 9.23485C27.754 9.16479 28.0975 9.0494 28.422 8.89152C30.184 9.84485 35.976 13.6115 38.1453 22.8189C39.0887 26.8269 38.7487 29.8929 37.1353 31.9295C35.0713 34.5329 31.49 34.6662 30.7933 34.6662H21.3333C20.9651 34.6662 20.6667 34.9647 20.6667 35.3329C20.6667 35.701 20.9651 35.9995 21.3333 35.9995H30.7933C31.9267 35.9995 35.7967 35.7655 38.18 32.7575C40.0587 30.3849 40.484 26.9382 39.4427 22.5135ZM5 32.6662C7.20467 32.6662 8.66667 33.4662 8.66667 33.9995C8.66667 34.5329 7.20467 35.3329 5 35.3329C2.79533 35.3329 1.33333 34.5329 1.33333 33.9995C1.33333 33.4662 2.79533 32.6662 5 32.6662ZM5 38.6662C2.79533 38.6662 1.33333 37.8662 1.33333 37.3329V35.8455C2.46749 36.422 3.72832 36.7042 5 36.6662C6.27168 36.7042 7.53251 36.422 8.66667 35.8455V37.3329C8.66667 37.8662 7.20467 38.6662 5 38.6662ZM13.6667 37.3329C11.462 37.3329 10 36.5329 10 35.9995V29.1789C11.1342 29.7553 12.395 30.0375 13.6667 29.9995C14.9383 30.0375 16.1992 29.7553 17.3333 29.1789V35.9995C17.3333 36.5329 15.8713 37.3329 13.6667 37.3329ZM17.3333 27.3329C17.3333 27.8662 15.8713 28.6662 13.6667 28.6662C11.462 28.6662 10 27.8662 10 27.3329C10 26.7995 11.462 25.9995 13.6667 25.9995C15.8713 25.9995 17.3333 26.7995 17.3333 27.3329ZM8.66667 27.3329V32.1535C7.53251 31.5771 6.27168 31.2949 5 31.3329C4.66604 31.3326 4.33228 31.3493 4 31.3829V16.5122C5.13415 17.0886 6.39499 17.3708 7.66667 17.3329C8.93835 17.3708 10.1992 17.0886 11.3333 16.5122V24.9562C9.72267 25.3889 8.66667 26.2662 8.66667 27.3329ZM11.3333 14.6662C11.3333 15.1995 9.87133 15.9995 7.66667 15.9995C5.462 15.9995 4 15.1995 4 14.6662C4 14.1329 5.462 13.3329 7.66667 13.3329C9.87133 13.3329 11.3333 14.1329 11.3333 14.6662ZM11.6667 6.66619C9.462 6.66619 8 5.86619 8 5.33285C8 4.79952 9.462 3.99952 11.6667 3.99952C13.8713 3.99952 15.3333 4.79952 15.3333 5.33285C15.3333 5.86619 13.8713 6.66619 11.6667 6.66619ZM33.1333 5.99952C33.1333 7.09219 31.95 7.98885 30.4667 7.99952C30.2186 7.99795 29.9713 7.96956 29.7293 7.91485C30.6969 6.88256 31.3695 5.60931 31.6767 4.22819C32.4791 4.46463 33.0563 5.16649 33.1333 5.99952ZM19.2453 1.85285C19.8083 2.38041 20.5525 2.67157 21.324 2.66619C22.096 2.67198 22.8407 2.38079 23.404 1.85285C23.7335 1.52015 24.1824 1.33297 24.6507 1.33297C25.119 1.33297 25.5678 1.52015 25.8973 1.85285C26.4607 2.38118 27.2057 2.67243 27.978 2.66619C28.7502 2.67215 29.4952 2.38095 30.0587 1.85285C30.2434 1.68957 30.449 1.55148 30.67 1.44219C30.67 2.68019 30.44 5.74085 28.292 7.41885C27.8088 7.78179 27.223 7.98227 26.6187 7.99152C27.1958 7.00026 27.6526 5.94368 27.9793 4.84419C28.0432 4.61458 27.9797 4.36837 27.8127 4.19829C27.6458 4.02821 27.4008 3.9601 27.1701 4.01962C26.9393 4.07914 26.7578 4.25725 26.694 4.48685C26.3248 5.74003 25.7571 6.92595 25.0127 7.99952H24.3273C23.5843 6.925 23.0166 5.73936 22.6453 4.48685C22.5465 4.1321 22.1788 3.92466 21.824 4.02352C21.4693 4.12238 21.2618 4.4901 21.3607 4.84485C21.6877 5.9453 22.145 7.00277 22.7227 7.99485C22.1063 7.99169 21.5073 7.78994 21.0147 7.41952C18.8667 5.74219 18.6367 2.68152 18.6367 1.44752C18.8576 1.55337 19.0625 1.68982 19.2453 1.85285Z" fill="black"/>
<path d="M36.09 31.1018C36.8801 30.0153 37.3083 28.7078 37.314 27.3644C37.3225 27.1878 37.2605 27.015 37.1416 26.8841C37.0227 26.7532 36.8566 26.6749 36.68 26.6664C36.3139 26.6535 36.0042 26.9348 35.982 27.3004C35.987 28.3651 35.659 29.4047 35.044 30.2738C33.7433 31.9164 31.2753 31.9998 30.7933 31.9998C30.4251 31.9998 30.1266 32.2983 30.1266 32.6664C30.1266 33.0346 30.4251 33.3331 30.7933 33.3331C31.3826 33.3331 34.4073 33.2258 36.09 31.1018Z" fill="black"/>
</svg>
