<svg width="40" height="40" viewBox="0 0 40 40" fill="none" xmlns="http://www.w3.org/2000/svg">
<g clip-path="url(#clip0_505_367)">
<path d="M36.2051 5.58637H29.0446V3.23601C29.0446 2.91259 28.7824 2.65039 28.4589 2.65039C28.1354 2.65039 27.8733 2.91259 27.8733 3.23601V5.58637H25.4475C25.124 5.58637 24.8619 5.84857 24.8619 6.17199C24.8619 6.4954 25.124 6.75761 25.4475 6.75761H27.8733V9.23735H27.4338C26.8201 9.23735 26.3207 9.73669 26.3207 10.3503V17.2445C26.3207 17.8583 26.8201 18.3575 27.4338 18.3575H27.8733V23.0035C27.8733 23.3269 28.1354 23.5891 28.4589 23.5891C28.7824 23.5891 29.0446 23.3269 29.0446 23.0035V18.3575H29.4841C30.0977 18.3575 30.5971 17.8582 30.5971 17.2445V10.3503C30.5971 9.73661 30.0977 9.23735 29.4841 9.23735H29.0446V6.75761H36.2051C37.6122 6.75761 38.7572 7.90245 38.7572 9.30965V29.353H1.24283V9.30973C1.24283 7.90253 2.38768 6.75768 3.79488 6.75768H14.0605V7.90058H13.621C13.0073 7.90058 12.508 8.39991 12.508 9.01356V15.9078C12.508 16.5215 13.0074 17.0208 13.621 17.0208H14.0605V22.1955C14.0605 22.5189 14.3227 22.7811 14.6462 22.7811C14.9696 22.7811 15.2318 22.5189 15.2318 22.1955V17.0208H15.6713C16.285 17.0208 16.7843 16.5214 16.7843 15.9078V9.01356C16.7843 8.39984 16.2849 7.90058 15.6713 7.90058H15.2318V6.75761H17.6576C17.981 6.75761 18.2432 6.4954 18.2432 6.17199C18.2432 5.84857 17.981 5.58637 17.6576 5.58637H15.2318V5.29715C15.2318 4.97373 14.9696 4.71153 14.6462 4.71153C14.3227 4.71153 14.0605 4.97373 14.0605 5.29715V5.58637H3.79488C1.74186 5.58637 0.0715942 7.25663 0.0715942 9.30965V29.9386C0.0715942 31.9917 1.74186 33.6619 3.79488 33.6619H12.7095V36.6395L10.822 38.829H10.0728C9.74937 38.829 9.48717 39.0912 9.48717 39.4146C9.48717 39.738 9.74937 40.0002 10.0728 40.0002H29.8732C30.1967 40.0002 30.4588 39.738 30.4588 39.4146C30.4588 39.0912 30.1967 38.829 29.8732 38.829H29.1779L27.2904 36.6395V33.6619H36.2051C38.2581 33.6619 39.9284 31.9917 39.9284 29.9386V9.30973C39.9284 7.25671 38.2581 5.58637 36.2051 5.58637ZM29.4258 17.1865H27.492V10.4087H29.4259V17.1865H29.4258ZM15.613 15.8495H13.6792V9.07181H15.613V15.8495ZM36.2051 32.4907H24.3529C24.0294 32.4907 23.7673 32.7529 23.7673 33.0763C23.7673 33.3997 24.0294 33.6619 24.3529 33.6619H26.1192V36.2715H24.6605C24.337 36.2715 24.0748 36.5337 24.0748 36.8571C24.0748 37.1806 24.337 37.4428 24.6605 37.4428H26.4364L27.6315 38.829H12.3684L13.5635 37.4428H15.3394C15.6629 37.4428 15.9251 37.1806 15.9251 36.8571C15.9251 36.5337 15.6629 36.2715 15.3394 36.2715H13.8807V33.6619H21.8571C22.1806 33.6619 22.4428 33.3997 22.4428 33.0763C22.4428 32.7529 22.1806 32.4907 21.8571 32.4907H3.79488C2.58921 32.4907 1.57687 31.6501 1.31139 30.5243H38.6885C38.4231 31.6501 37.4108 32.4907 36.2051 32.4907Z" fill="black"/>
<path d="M6.18718 17.0976C5.86376 17.0976 5.60156 17.3598 5.60156 17.6832V19.097C5.60156 19.7107 6.10082 20.2099 6.71455 20.2099H7.15408V23.3286C7.15408 23.6521 7.41628 23.9143 7.73969 23.9143C8.06311 23.9143 8.32531 23.6521 8.32531 23.3286V20.2099H8.76484C9.37857 20.2099 9.87783 19.7107 9.87783 19.097V12.2027C9.87783 11.589 9.37849 11.0897 8.76484 11.0897H8.32531V10.153C8.32531 9.82958 8.06311 9.56738 7.73969 9.56738C7.41628 9.56738 7.15408 9.82958 7.15408 10.153V11.0897H6.71455C6.10082 11.0897 5.60156 11.589 5.60156 12.2027V15.1875C5.60156 15.5109 5.86376 15.7731 6.18718 15.7731C6.5106 15.7731 6.7728 15.5109 6.7728 15.1875V12.261H7.73899H7.73977C7.73977 12.261 7.74024 12.261 7.74055 12.261H8.70675V19.0388H6.7728V17.6833C6.7728 17.3598 6.5106 17.0976 6.18718 17.0976Z" fill="black"/>
<path d="M20.5273 15.8617H20.9669V18.9804C20.9669 19.3038 21.229 19.566 21.5525 19.566C21.876 19.566 22.1381 19.3038 22.1381 18.9804V15.8617H22.5777C23.1913 15.8617 23.6906 15.3624 23.6906 14.7487V10.1553C23.6906 9.83191 23.4285 9.56971 23.105 9.56971C22.7815 9.56971 22.5194 9.83191 22.5194 10.1553V14.6905H20.5855V4.08668H22.5194V7.65965C22.5194 7.98307 22.7815 8.24527 23.105 8.24527C23.4285 8.24527 23.6906 7.98307 23.6906 7.65965V4.02843C23.6906 3.41478 23.1913 2.91544 22.5777 2.91544H22.1381V0.585618C22.1381 0.262201 21.876 0 21.5525 0C21.229 0 20.9669 0.262201 20.9669 0.585618V2.91544H20.5273C19.9136 2.91544 19.4143 3.41478 19.4143 4.02843V14.7487C19.4143 15.3625 19.9136 15.8617 20.5273 15.8617Z" fill="black"/>
<path d="M31.8385 16.0547C31.9443 16.251 32.1461 16.3625 32.3545 16.3625C32.4483 16.3625 32.5435 16.3398 32.6319 16.2922L35.3294 14.8377L35.1354 15.347C35.0202 15.6493 35.1719 15.9876 35.4742 16.1028C35.5428 16.1288 35.6133 16.1412 35.6826 16.1412C35.9185 16.1412 36.1409 15.9976 36.23 15.764L36.8893 14.0332C37.0045 13.7309 36.8527 13.3926 36.5505 13.2774L34.7134 12.5776C34.4113 12.4625 34.0729 12.6141 33.9577 12.9164C33.8425 13.2186 33.9942 13.557 34.2965 13.6721L34.7224 13.8344L32.0761 15.2613C31.7914 15.4148 31.685 15.77 31.8385 16.0547Z" fill="black"/>
<path d="M3.53423 27.4973C3.62933 27.7195 3.84554 27.8526 4.07284 27.8526C4.14967 27.8526 4.22783 27.8374 4.30303 27.8052L11.8597 24.5711L12.5464 26.3704C12.6065 26.5279 12.7316 26.6518 12.8895 26.7105C13.0474 26.7691 13.2231 26.757 13.3714 26.677L25.8556 19.9459C26.1403 19.7924 26.2466 19.4372 26.0931 19.1525C25.9397 18.8679 25.5846 18.7615 25.2997 18.915L13.4028 25.3295L12.7366 23.5841C12.6798 23.4352 12.5648 23.3159 12.4181 23.2537C12.2713 23.1915 12.1056 23.1919 11.9591 23.2545L3.84218 26.7284C3.54492 26.8557 3.40703 27.1999 3.53423 27.4973Z" fill="black"/>
</g>
<defs>
<clipPath id="clip0_505_367">
<rect width="40" height="40" fill="white"/>
</clipPath>
</defs>
</svg>
