<svg width="16" height="16" viewBox="0 0 16 16" fill="none" xmlns="http://www.w3.org/2000/svg">
<g clip-path="url(#clip0_501_1429)">
<path d="M13.625 0C12.8496 0 12.2188 0.630813 12.2188 1.40625C12.2188 1.72078 12.3262 2.0085 12.5014 2.243L10.2079 4.73163C10.1006 4.70534 9.99025 4.6875 9.875 4.6875C9.58712 4.6875 9.31969 4.77506 9.09656 4.92406L7.46109 3.69781C7.50259 3.56534 7.53125 3.42722 7.53125 3.28125C7.53125 2.50581 6.90044 1.875 6.125 1.875C5.34956 1.875 4.71875 2.50581 4.71875 3.28125C4.71875 3.42722 4.74741 3.56534 4.78891 3.69781L3.15344 4.92406C2.93031 4.77506 2.66287 4.6875 2.375 4.6875C1.59956 4.6875 0.96875 5.31831 0.96875 6.09375C0.96875 6.86919 1.59956 7.5 2.375 7.5C3.15044 7.5 3.78125 6.86919 3.78125 6.09375C3.78125 5.94778 3.75259 5.80966 3.71109 5.67719L5.34656 4.45094C5.56966 4.59994 5.83712 4.6875 6.125 4.6875C6.41288 4.6875 6.68031 4.59994 6.90344 4.45094L8.53891 5.67719C8.49741 5.80966 8.46875 5.94778 8.46875 6.09375C8.46875 6.86919 9.09956 7.5 9.875 7.5C10.6504 7.5 11.2812 6.86919 11.2812 6.09375C11.2812 5.77922 11.1738 5.4915 10.9986 5.257L13.2921 2.76837C13.3994 2.79466 13.5098 2.8125 13.625 2.8125C14.4004 2.8125 15.0312 2.18169 15.0312 1.40625C15.0312 0.630813 14.4004 0 13.625 0Z" fill="url(#paint0_linear_501_1429)"/>
<path d="M7.0625 7.5H5.1875C4.92841 7.5 4.71875 7.70966 4.71875 7.96875V14.125H7.53125V7.96875C7.53125 7.70966 7.32159 7.5 7.0625 7.5Z" fill="url(#paint1_linear_501_1429)"/>
<path d="M10.8125 9.375H8.9375C8.67841 9.375 8.46875 9.58466 8.46875 9.84375V14.125H11.2812V9.84375C11.2812 9.58466 11.0716 9.375 10.8125 9.375Z" fill="url(#paint2_linear_501_1429)"/>
<path d="M14.5625 5.625H12.6875C12.4284 5.625 12.2188 5.83466 12.2188 6.09375V14.125H15.0312V6.09375C15.0312 5.83466 14.8216 5.625 14.5625 5.625Z" fill="url(#paint3_linear_501_1429)"/>
<path d="M3.3125 10.3125H1.4375C1.17841 10.3125 0.96875 10.5222 0.96875 10.7812V14.125H3.78125V10.7812C3.78125 10.5222 3.57159 10.3125 3.3125 10.3125Z" fill="url(#paint4_linear_501_1429)"/>
<path d="M15.5312 15.0625C13.438 15.0625 12.4772 15.0625 12.0978 15.0625C11.9243 15.0625 11.8624 15.0625 11.8628 15.0625C11.1721 15.0625 8.60122 15.0625 0.46875 15.0625C0.209656 15.0625 0 15.2722 0 15.5312C0 15.7903 0.209656 16 0.46875 16C6.14125 16 10.2322 16 15.5312 16C15.7903 16 16 15.7903 16 15.5312C16 15.2722 15.7903 15.0625 15.5312 15.0625Z" fill="url(#paint5_linear_501_1429)"/>
</g>
<defs>
<linearGradient id="paint0_linear_501_1429" x1="8" y1="0" x2="8" y2="7.5" gradientUnits="userSpaceOnUse">
<stop stop-color="#7EC13D"/>
<stop offset="1" stop-color="#51891B"/>
</linearGradient>
<linearGradient id="paint1_linear_501_1429" x1="6.125" y1="7.5" x2="6.125" y2="14.125" gradientUnits="userSpaceOnUse">
<stop stop-color="#7EC13D"/>
<stop offset="1" stop-color="#51891B"/>
</linearGradient>
<linearGradient id="paint2_linear_501_1429" x1="9.875" y1="9.375" x2="9.875" y2="14.125" gradientUnits="userSpaceOnUse">
<stop stop-color="#7EC13D"/>
<stop offset="1" stop-color="#51891B"/>
</linearGradient>
<linearGradient id="paint3_linear_501_1429" x1="13.625" y1="5.625" x2="13.625" y2="14.125" gradientUnits="userSpaceOnUse">
<stop stop-color="#7EC13D"/>
<stop offset="1" stop-color="#51891B"/>
</linearGradient>
<linearGradient id="paint4_linear_501_1429" x1="2.375" y1="10.3125" x2="2.375" y2="14.125" gradientUnits="userSpaceOnUse">
<stop stop-color="#7EC13D"/>
<stop offset="1" stop-color="#51891B"/>
</linearGradient>
<linearGradient id="paint5_linear_501_1429" x1="8" y1="15.0625" x2="8" y2="16" gradientUnits="userSpaceOnUse">
<stop stop-color="#7EC13D"/>
<stop offset="1" stop-color="#51891B"/>
</linearGradient>
<clipPath id="clip0_501_1429">
<rect width="16" height="16" fill="white"/>
</clipPath>
</defs>
</svg>
