<svg width="16" height="16" viewBox="0 0 16 16" fill="none" xmlns="http://www.w3.org/2000/svg">
<g clip-path="url(#clip0_501_1448)">
<path d="M15.6872 4.01109L8.15597 1.35387C8.05506 1.31824 7.94497 1.31824 7.84406 1.35387L0.312813 4.01109C0.125563 4.07715 0.000250375 4.25402 3.74595e-07 4.45259C-0.000249625 4.65115 0.124657 4.8283 0.31175 4.8948L7.843 7.57221C7.89378 7.59027 7.94691 7.5993 8 7.5993C8.05313 7.5993 8.10622 7.59027 8.157 7.57221L15.6882 4.8948C15.8753 4.8283 16.0002 4.65115 16 4.45259C15.9998 4.25402 15.8744 4.07715 15.6872 4.01109Z" fill="url(#paint0_linear_501_1448)"/>
<path d="M14.8741 10.2675V6.17871L13.9366 6.51199V10.2675C13.6543 10.43 13.464 10.7345 13.464 11.0837C13.464 11.4329 13.6543 11.7375 13.9366 11.9V14.2036C13.9366 14.4625 14.1465 14.6724 14.4054 14.6724C14.6643 14.6724 14.8741 14.4625 14.8741 14.2036V11.9001C15.1565 11.7376 15.3468 11.433 15.3468 11.0838C15.3468 10.7346 15.1566 10.43 14.8741 10.2675Z" fill="url(#paint1_linear_501_1448)"/>
<path d="M7.99998 8.5366C7.83907 8.5366 7.6806 8.50926 7.52895 8.45535L3.2951 6.9502V9.01295C3.2951 9.5176 3.82157 9.94438 4.85989 10.2814C5.76492 10.5751 6.88011 10.7369 7.99998 10.7369C9.11985 10.7369 10.235 10.5751 11.1401 10.2814C12.1784 9.94438 12.7049 9.5176 12.7049 9.01295V6.9502L8.47104 8.45535C8.31936 8.50926 8.16089 8.5366 7.99998 8.5366Z" fill="url(#paint2_linear_501_1448)"/>
</g>
<defs>
<linearGradient id="paint0_linear_501_1448" x1="8" y1="1.32715" x2="8" y2="7.5993" gradientUnits="userSpaceOnUse">
<stop stop-color="#7EC13D"/>
<stop offset="1" stop-color="#51891B"/>
</linearGradient>
<linearGradient id="paint1_linear_501_1448" x1="14.4054" y1="6.17871" x2="14.4054" y2="14.6724" gradientUnits="userSpaceOnUse">
<stop stop-color="#7EC13D"/>
<stop offset="1" stop-color="#51891B"/>
</linearGradient>
<linearGradient id="paint2_linear_501_1448" x1="7.99998" y1="6.9502" x2="7.99998" y2="10.7369" gradientUnits="userSpaceOnUse">
<stop stop-color="#7EC13D"/>
<stop offset="1" stop-color="#51891B"/>
</linearGradient>
<clipPath id="clip0_501_1448">
<rect width="16" height="16" fill="white"/>
</clipPath>
</defs>
</svg>
