<svg width="16" height="16" viewBox="0 0 16 16" fill="none" xmlns="http://www.w3.org/2000/svg">
<g clip-path="url(#clip0_501_1452)">
<path d="M4.16191 10.1485C3.91742 9.90414 3.82535 10.0269 3.77098 10.0814C2.36313 11.4892 1.11327 14.8861 1.77402 14.5543C4.17941 13.3466 4.58019 13.7062 5.98799 12.2984C6.04242 12.244 6.16757 12.1543 5.91597 11.9026L4.16191 10.1485Z" fill="url(#paint0_linear_501_1452)"/>
<path d="M11.7514 10.1298C11.6876 9.92678 11.8213 9.82894 11.8775 9.76821C14.9848 6.41355 16.9596 1.94409 15.4962 0.480563C14.0404 -0.975075 9.7088 1.05741 6.35506 4.14226C6.28871 4.20336 6.15793 4.31909 5.92398 4.27024L4.87908 4.02143C4.58897 3.95244 4.17905 4.06841 3.96818 4.27928L0.134121 8.11329C-0.0767536 8.32421 -0.00824105 8.53465 0.286387 8.5809L3.05944 9.01669C3.35406 9.06304 3.76764 8.92837 3.97847 8.71745C3.97847 8.71745 4.12155 8.57398 4.2653 8.71769C5.05841 9.5107 6.53223 10.9845 7.28784 11.7402C7.43803 11.8903 7.29418 12.0332 7.29418 12.0332C7.08326 12.2441 6.94864 12.6576 6.99499 12.9522L7.43073 15.7252C7.47703 16.02 7.68747 16.0885 7.89834 15.8776L11.7324 12.0435C11.9433 11.8326 12.0593 11.4228 11.9902 11.1326L11.7514 10.1298ZM10.893 5.17648C10.2436 4.52708 10.2436 3.47429 10.893 2.82499C11.5424 2.17559 12.5952 2.17559 13.2446 2.82499C13.8939 3.47425 13.8939 4.52708 13.2446 5.17643C12.5952 5.82584 11.5423 5.82584 10.893 5.17648Z" fill="url(#paint1_linear_501_1452)"/>
</g>
<defs>
<linearGradient id="paint0_linear_501_1452" x1="3.82993" y1="10.002" x2="3.82993" y2="14.577" gradientUnits="userSpaceOnUse">
<stop stop-color="#7EC13D"/>
<stop offset="1" stop-color="#51891B"/>
</linearGradient>
<linearGradient id="paint1_linear_501_1452" x1="8.00003" y1="0" x2="8.00003" y2="16" gradientUnits="userSpaceOnUse">
<stop stop-color="#7EC13D"/>
<stop offset="1" stop-color="#51891B"/>
</linearGradient>
<clipPath id="clip0_501_1452">
<rect width="16" height="16" fill="white"/>
</clipPath>
</defs>
</svg>
