<svg width="52" height="79" viewBox="0 0 52 79" fill="none" xmlns="http://www.w3.org/2000/svg">
<path d="M45.0377 2.21924H6.96289V24.0348H45.0377V2.21924Z" stroke="#314F9C" stroke-width="3" stroke-linecap="round" stroke-linejoin="round"/>
<path d="M19.0251 20.0991C17.1756 18.249 16.1367 15.7401 16.1367 13.1241C16.1367 10.5081 17.1756 7.99917 19.0251 6.14905" stroke="#314F9C" stroke-width="3" stroke-linecap="round" stroke-linejoin="round"/>
<path d="M32.9746 6.14905C34.8241 7.99917 35.863 10.5081 35.863 13.1241C35.863 15.7401 34.8241 18.249 32.9746 20.0991" stroke="#314F9C" stroke-width="3" stroke-linecap="round" stroke-linejoin="round"/>
<path d="M23.2754 15.8548C23.2754 16.5775 23.5625 17.2705 24.0735 17.7815C24.5845 18.2925 25.2775 18.5795 26.0002 18.5795C26.7228 18.5795 27.4158 18.2925 27.9268 17.7815C28.4378 17.2705 28.7249 16.5775 28.7249 15.8548C28.7249 14.347 27.6089 13.6525 26.0002 13.1301C24.5695 12.6612 23.2754 11.9072 23.2754 10.4054C23.2754 9.68272 23.5625 8.98969 24.0735 8.4787C24.5845 7.96772 25.2775 7.68066 26.0002 7.68066C26.7228 7.68066 27.4158 7.96772 27.9268 8.4787C28.4378 8.98969 28.7249 9.68272 28.7249 10.4054" stroke="#314F9C" stroke-width="3" stroke-linecap="round" stroke-linejoin="round"/>
<path d="M26 6.14905V7.6865" stroke="#314F9C" stroke-width="3" stroke-linecap="round" stroke-linejoin="round"/>
<path d="M26 18.5675V20.0991" stroke="#314F9C" stroke-width="3" stroke-linecap="round" stroke-linejoin="round"/>
<path d="M11.8599 41.339H2" stroke="#314F9C" stroke-width="3" stroke-linecap="round" stroke-linejoin="round"/>
<path d="M50.0006 41.339H40.1406" stroke="#314F9C" stroke-width="3" stroke-linecap="round" stroke-linejoin="round"/>
<path d="M26 67.6243C24.1429 67.625 22.3038 67.2599 20.5879 66.5496C18.872 65.8392 17.3129 64.7977 15.9998 63.4845C14.6866 62.1713 13.645 60.6122 12.9347 58.8963C12.2244 57.1804 11.8592 55.3414 11.8599 53.4843V31.4788H2V53.4843C2 59.8495 4.5285 65.9539 9.02938 70.4548C13.5303 74.9557 19.6348 77.4843 26 77.4843V77.4843C32.3652 77.4843 38.4697 74.9557 42.9706 70.4548C47.4715 65.9539 50 59.8495 50 53.4843V31.4788H40.1401V53.4843C40.1408 55.3414 39.7756 57.1804 39.0653 58.8963C38.355 60.6122 37.3134 62.1713 36.0002 63.4845C34.6871 64.7977 33.128 65.8392 31.4121 66.5496C29.6962 67.2599 27.8571 67.625 26 67.6243V67.6243Z" stroke="#314F9C" stroke-width="3" stroke-linecap="round" stroke-linejoin="round"/>
<path d="M26.291 48.7824V29.0446" stroke="#314F9C" stroke-width="3" stroke-linecap="round" stroke-linejoin="round"/>
<path d="M19.4707 44.5505V33.2717" stroke="#314F9C" stroke-width="3" stroke-linecap="round" stroke-linejoin="round"/>
<path d="M32.5293 44.5505V33.2717" stroke="#314F9C" stroke-width="3" stroke-linecap="round" stroke-linejoin="round"/>
<path d="M43.7026 48.2185V53.1099C43.7026 62.7444 36.1635 70.9185 26.535 71.1797C24.1669 71.2487 21.809 70.8422 19.6008 69.9842C17.3926 69.1261 15.3789 67.834 13.6787 66.1842C11.9785 64.5344 10.6265 62.5605 9.70248 60.379C8.77845 58.1976 8.30117 55.853 8.29901 53.4839V48.2185C8.29901 48.0392 8.26371 47.8616 8.19509 47.696C8.12648 47.5303 8.02593 47.3799 7.89915 47.2531C7.77237 47.1263 7.62191 47.0257 7.45626 46.9571C7.29061 46.8885 7.11295 46.8532 6.93365 46.8532C6.75386 46.8524 6.57579 46.8871 6.40945 46.9554C6.24312 47.0237 6.09179 47.1241 5.96438 47.251C5.83697 47.3778 5.73598 47.5286 5.66699 47.6947C5.59801 47.8607 5.5625 48.0387 5.5625 48.2185V53.0802C5.5625 64.5133 14.9239 74.1122 26.3392 73.9222C31.6958 73.8227 36.7998 71.6264 40.5548 67.8048C44.3097 63.9833 46.4159 58.8415 46.4212 53.4839V48.2185C46.4212 48.0387 46.3857 47.8607 46.3167 47.6947C46.2478 47.5286 46.1468 47.3778 46.0194 47.251C45.8919 47.1241 45.7406 47.0237 45.5743 46.9554C45.408 46.8871 45.2299 46.8524 45.0501 46.8532C44.6911 46.8578 44.3482 47.0038 44.096 47.2593C43.8438 47.5149 43.7025 47.8595 43.7026 48.2185Z" fill="#314F9C"/>
</svg>
