<svg width="68" height="69" viewBox="0 0 68 69" fill="none" xmlns="http://www.w3.org/2000/svg">
<path d="M28.5137 52.3834C28.5137 53.7267 29.0473 55.0151 29.9972 55.965C30.9471 56.9149 32.2354 57.4485 33.5788 57.4485C34.9222 57.4485 36.2105 56.9149 37.1604 55.965C38.1103 55.0151 38.644 53.7267 38.644 52.3834C38.644 49.5839 36.5713 48.2948 33.5788 47.3181C30.9213 46.4493 28.5137 45.0468 28.5137 42.253C28.5137 40.9096 29.0473 39.6213 29.9972 38.6714C30.9471 37.7215 32.2354 37.1879 33.5788 37.1879C34.9222 37.1879 36.2105 37.7215 37.1604 38.6714C38.1103 39.6213 38.644 40.9096 38.644 42.253" stroke="#314F9C" stroke-width="3" stroke-linecap="round" stroke-linejoin="round"/>
<path d="M33.5859 34.3652V37.2215" stroke="#314F9C" stroke-width="3" stroke-linecap="round" stroke-linejoin="round"/>
<path d="M33.5859 57.4482V60.3045" stroke="#314F9C" stroke-width="3" stroke-linecap="round" stroke-linejoin="round"/>
<path d="M15.1806 31.4128C10.2563 34.7846 6.23543 39.3143 3.47159 44.6038C-1.54814 54.2572 4.0395 66.994 13.3294 66.994H53.8394C63.135 66.994 68.7168 54.2856 63.7028 44.6038C60.9383 39.313 56.9154 34.783 51.9882 31.4128" stroke="#314F9C" stroke-width="3" stroke-linecap="round" stroke-linejoin="round"/>
<path d="M7.50195 32.3101V26.1206C7.50195 23.7276 8.45258 21.4325 10.1447 19.7403C11.8369 18.0482 14.1319 17.0975 16.5249 17.0975H50.658C53.0506 17.099 55.3448 18.0502 57.0366 19.742C58.7284 21.4338 59.6795 23.728 59.681 26.1206V32.3158" stroke="#314F9C" stroke-width="3" stroke-linecap="round" stroke-linejoin="round"/>
<path d="M29.8413 11.5607C32.4569 11.5607 34.5771 9.44035 34.5771 6.82484C34.5771 4.20932 32.4569 2.08911 29.8413 2.08911C27.2258 2.08911 25.1055 4.20932 25.1055 6.82484C25.1055 9.44035 27.2258 11.5607 29.8413 11.5607Z" stroke="#314F9C" stroke-width="3" stroke-linecap="round" stroke-linejoin="round"/>
<path d="M37.3262 2.08911C38.5822 2.08911 39.7867 2.588 40.6749 3.47614C41.563 4.36428 42.062 5.56882 42.062 6.82484C42.062 8.08085 41.563 9.28553 40.6749 10.1737C39.7867 11.0618 38.5822 11.5607 37.3262 11.5607" stroke="#314F9C" stroke-width="3" stroke-linecap="round" stroke-linejoin="round"/>
<path d="M15.7266 24.9902H51.4495" stroke="#314F9C" stroke-width="3" stroke-linecap="round" stroke-linejoin="round"/>
</svg>
