<svg width="1126" height="553" viewBox="0 0 1126 553" fill="none" xmlns="http://www.w3.org/2000/svg">
<path opacity="0.2" d="M184.942 552.234L190.716 542.234H179.169L184.942 552.234ZM0.583984 2.23438H5.67148V0.234375H0.583984V2.23438ZM15.8465 2.23438H26.0215V0.234375H15.8465V2.23438ZM36.1965 2.23438H46.3715V0.234375H36.1965V2.23438ZM56.5465 2.23438H66.7215V0.234375H56.5465V2.23438ZM76.8965 2.23438H87.0715V0.234375H76.8965V2.23438ZM97.2465 2.23438H107.421V0.234375H97.2465V2.23438ZM117.596 2.23438H127.771V0.234375H117.596V2.23438ZM137.947 2.23438H148.122V0.234375H137.947V2.23438ZM158.297 2.23438H168.472V0.234375H158.297V2.23438ZM178.647 2.23438H188.822V0.234375H178.647V2.23438ZM198.997 2.23438H209.172V0.234375H198.997V2.23438ZM219.347 2.23438H229.522V0.234375H219.347V2.23438ZM239.697 2.23438H249.872V0.234375H239.697V2.23438ZM260.047 2.23438H270.222V0.234375H260.047V2.23438ZM280.397 2.23438H290.572V0.234375H280.397V2.23438ZM300.746 2.23438H310.921V0.234375H300.746V2.23438ZM321.096 2.23438H331.271V0.234375H321.096V2.23438ZM341.446 2.23438H351.621V0.234375H341.446V2.23438ZM361.796 2.23438H371.971V0.234375H361.796V2.23438ZM382.146 2.23438H392.321V0.234375H382.146V2.23438ZM402.496 2.23438H407.584V0.234375H402.496V2.23438ZM407.584 2.23438H412.578V0.234375H407.584V2.23438ZM422.565 2.23438H432.553V0.234375H422.565V2.23438ZM442.54 2.23438H452.528V0.234375H442.54V2.23438ZM462.515 2.23438H472.503V0.234375H462.515V2.23438ZM482.49 2.23438H492.478V0.234375H482.49V2.23438ZM502.465 2.23438H512.453V0.234375H502.465V2.23438ZM522.44 2.23438H532.428V0.234375H522.44V2.23438ZM542.415 2.23438H552.403V0.234375H542.415V2.23438ZM562.39 2.23438H572.378V0.234375H562.39V2.23438ZM582.365 2.23438H592.353V0.234375H582.365V2.23438ZM602.34 2.23438H612.328V0.234375H602.34V2.23438ZM622.315 2.23438H632.303V0.234375H622.315V2.23438ZM642.29 2.23438H652.278V0.234375H642.29V2.23438ZM662.265 2.23438H672.253V0.234375H662.265V2.23438ZM682.24 2.23438H692.228V0.234375H682.24V2.23438ZM702.215 2.23438H712.203V0.234375H702.215V2.23438ZM722.19 2.23438H732.178V0.234375H722.19V2.23438ZM742.165 2.23438H752.153V0.234375H742.165V2.23438ZM762.14 2.23438H772.128V0.234375H762.14V2.23438ZM782.115 2.23438H792.103V0.234375H782.115V2.23438ZM802.09 2.23438H807.084V0.234375H802.09V2.23438ZM807.084 2.23438H812.113V0.234375H807.084V2.23438ZM822.171 2.23438H832.228V0.234375H822.171V2.23438ZM842.286 2.23438H852.344V0.234375H842.286V2.23438ZM862.401 2.23438H872.459V0.234375H862.401V2.23438ZM882.517 2.23438H892.574V0.234375H882.517V2.23438ZM902.632 2.23438H912.69V0.234375H902.632V2.23438ZM922.747 2.23438H932.805V0.234375H922.747V2.23438ZM942.863 2.23438H952.921V0.234375H942.863V2.23438ZM962.978 2.23438H973.036V0.234375H962.978V2.23438ZM983.094 2.23438H993.151V0.234375H983.094V2.23438ZM1003.21 2.23438H1013.27V0.234375H1003.21V2.23438ZM1023.32 2.23438H1033.38V0.234375H1023.32V2.23438ZM1043.44 2.23438H1053.5V0.234375H1043.44V2.23438ZM1063.56 2.23438H1068.58V0.234375H1063.56V2.23438ZM1068.58 2.23438C1070.4 2.23438 1072.2 2.32278 1073.98 2.49547L1074.17 0.504872C1072.33 0.325924 1070.47 0.234375 1068.58 0.234375V2.23438ZM1084.56 4.58896C1088.03 5.64264 1091.37 7.03161 1094.51 8.71835L1095.46 6.95532C1092.2 5.20706 1088.74 3.76722 1085.14 2.67488L1084.56 4.58896ZM1103.48 14.7168C1106.26 17.0039 1108.81 19.559 1111.1 22.3426L1112.65 21.073C1110.28 18.1887 1107.63 15.5413 1104.75 13.1715L1103.48 14.7168ZM1117.1 31.3036C1118.79 34.4528 1120.18 37.785 1121.23 41.2629L1123.14 40.683C1122.05 37.0775 1120.61 33.6233 1118.86 30.3593L1117.1 31.3036ZM1123.32 51.8402C1123.5 53.6146 1123.58 55.414 1123.58 57.2344H1125.58C1125.58 55.3492 1125.49 53.4852 1125.31 51.6464L1123.32 51.8402ZM1123.58 57.2344V62.5558H1125.58V57.2344H1123.58ZM1123.58 73.1987V83.8415H1125.58V73.1987H1123.58ZM1123.58 94.4844V105.127H1125.58V94.4844H1123.58ZM1123.58 115.77V126.413H1125.58V115.77H1123.58ZM1123.58 137.056V147.699H1125.58V137.056H1123.58ZM1123.58 158.342V168.984H1125.58V158.342H1123.58ZM1123.58 179.627V190.27H1125.58V179.627H1123.58ZM1123.58 200.913V206.234H1125.58V200.913H1123.58ZM1123.58 206.234C1123.58 208.055 1123.5 209.854 1123.32 211.629L1125.31 211.822C1125.49 209.984 1125.58 208.12 1125.58 206.234H1123.58ZM1121.23 222.206C1120.18 225.684 1118.79 229.016 1117.1 232.165L1118.86 233.109C1120.61 229.845 1122.05 226.391 1123.14 222.786L1121.23 222.206ZM1111.1 241.126C1108.81 243.91 1106.26 246.465 1103.48 248.752L1104.75 250.297C1107.63 247.927 1110.28 245.28 1112.65 242.396L1111.1 241.126ZM1094.51 254.75C1091.37 256.437 1088.03 257.826 1084.56 258.88L1085.14 260.794C1088.74 259.702 1092.2 258.262 1095.46 256.513L1094.51 254.75ZM1073.98 260.973C1072.2 261.146 1070.4 261.234 1068.58 261.234V263.234C1070.47 263.234 1072.33 263.143 1074.17 262.964L1073.98 260.973ZM1068.58 261.234H1063.58V263.234H1068.58V261.234ZM1053.56 261.234H1043.55V263.234H1053.56V261.234ZM1033.53 261.234H1023.52V263.234H1033.53V261.234ZM1013.5 261.234H1003.49V263.234H1013.5V261.234ZM993.47 261.234H983.455V263.234H993.47V261.234ZM973.44 261.234H963.425V263.234H973.44V261.234ZM953.41 261.234H943.395V263.234H953.41V261.234ZM933.379 261.234H923.364V263.234H933.379V261.234ZM913.349 261.234H903.334V263.234H913.349V261.234ZM893.319 261.234H883.304V263.234H893.319V261.234ZM873.289 261.234H863.273V263.234H873.289V261.234ZM853.258 261.234H843.243V263.234H853.258V261.234ZM833.228 261.234H823.213V263.234H833.228V261.234ZM813.198 261.234H803.182V263.234H813.198V261.234ZM793.167 261.234H783.152V263.234H793.167V261.234ZM773.137 261.234H763.122V263.234H773.137V261.234ZM753.107 261.234H743.092V263.234H753.107V261.234ZM733.076 261.234H723.061V263.234H733.076V261.234ZM713.046 261.234H703.031V263.234H713.046V261.234ZM693.016 261.234H683.001V263.234H693.016V261.234ZM672.986 261.234H662.971V263.234H672.986V261.234ZM652.955 261.234H642.94V263.234H652.955V261.234ZM632.925 261.234H622.91V263.234H632.925V261.234ZM612.895 261.234H602.88V263.234H612.895V261.234ZM592.865 261.234H582.849V263.234H592.865V261.234ZM572.834 261.234H562.819V263.234H572.834V261.234ZM552.804 261.234H542.789V263.234H552.804V261.234ZM532.774 261.234H522.759V263.234H532.774V261.234ZM512.743 261.234H502.728V263.234H512.743V261.234ZM492.713 261.234H482.698V263.234H492.713V261.234ZM472.683 261.234H462.668V263.234H472.683V261.234ZM452.653 261.234H442.637V263.234H452.653V261.234ZM432.622 261.234H422.607V263.234H432.622V261.234ZM412.592 261.234H407.584V263.234H412.592V261.234ZM407.584 261.234H402.376V263.234H407.584V261.234ZM391.961 261.234H381.546V263.234H391.961V261.234ZM371.131 261.234H360.716V263.234H371.131V261.234ZM350.301 261.234H339.886V263.234H350.301V261.234ZM329.471 261.234H319.056V263.234H329.471V261.234ZM308.641 261.234H298.225V263.234H308.641V261.234ZM287.81 261.234H277.395V263.234H287.81V261.234ZM266.98 261.234H256.565V263.234H266.98V261.234ZM246.15 261.234H240.942V263.234H246.15V261.234ZM240.942 261.234C239.057 261.234 237.193 261.326 235.354 261.505L235.548 263.495C237.323 263.323 239.122 263.234 240.942 263.234V261.234ZM224.391 263.675C220.785 264.767 217.331 266.207 214.067 267.955L215.012 269.718C218.161 268.032 221.493 266.643 224.971 265.589L224.391 263.675ZM204.781 274.171C201.897 276.541 199.249 279.189 196.879 282.073L198.425 283.343C200.712 280.559 203.267 278.004 206.051 275.717L204.781 274.171ZM190.663 291.359C188.915 294.623 187.475 298.078 186.383 301.683L188.297 302.263C189.351 298.785 190.74 295.453 192.426 292.304L190.663 291.359ZM184.213 312.646C184.034 314.485 183.942 316.349 183.942 318.234H185.942C185.942 316.414 186.031 314.615 186.203 312.84L184.213 312.646ZM183.942 318.234V323.109H185.942V318.234H183.942ZM183.942 332.859V342.609H185.942V332.859H183.942ZM183.942 352.359V362.109H185.942V352.359H183.942ZM183.942 371.859V381.609H185.942V371.859H183.942ZM183.942 391.359V401.109H185.942V391.359H183.942ZM183.942 410.859V420.609H185.942V410.859H183.942ZM183.942 430.359V440.109H185.942V430.359H183.942ZM183.942 449.859V459.609H185.942V449.859H183.942ZM183.942 469.359V479.109H185.942V469.359H183.942ZM183.942 488.859V498.609H185.942V488.859H183.942ZM183.942 508.359V518.109H185.942V508.359H183.942ZM183.942 527.859V537.609H185.942V527.859H183.942Z" fill="#314F9C"/>
</svg>
