<svg width="1126" height="553" viewBox="0 0 1126 553" fill="none" xmlns="http://www.w3.org/2000/svg">
<path d="M1124.5 1.5H1125V1H1124.5V1.5ZM1124.5 262.5V263H1125V262.5H1124.5ZM151.5 262.5V262H151V262.5H151.5ZM151.5 552.5L154.387 547.5H148.613L151.5 552.5ZM0.5 2H2.4951V1H0.5V2ZM6.48529 2H10.4755V1H6.48529V2ZM14.4657 2H18.4559V1H14.4657V2ZM22.4461 2H26.4363V1H22.4461V2ZM30.4265 2H34.4167V1H30.4265V2ZM38.4069 2H42.3971V1H38.4069V2ZM46.3873 2H50.3774V1H46.3873V2ZM54.3676 2H58.3578V1H54.3676V2ZM62.348 2H66.3382V1H62.348V2ZM70.3284 2H74.3186V1H70.3284V2ZM78.3088 2H82.299V1H78.3088V2ZM86.2892 2H90.2794V1H86.2892V2ZM94.2696 2H98.2598V1H94.2696V2ZM102.25 2H106.24V1H102.25V2ZM110.23 2H114.221V1H110.23V2ZM118.211 2H122.201V1H118.211V2ZM126.191 2H130.181V1H126.191V2ZM134.172 2H138.162V1H134.172V2ZM142.152 2H146.142V1H142.152V2ZM150.132 2H154.122V1H150.132V2ZM158.113 2H162.103V1H158.113V2ZM166.093 2H170.083V1H166.093V2ZM174.073 2H178.064V1H174.073V2ZM182.054 2H186.044V1H182.054V2ZM190.034 2H194.024V1H190.034V2ZM198.015 2H202.005V1H198.015V2ZM205.995 2H209.985V1H205.995V2ZM213.975 2H217.966V1H213.975V2ZM221.956 2H225.946V1H221.956V2ZM229.936 2H233.926V1H229.936V2ZM237.916 2H241.907V1H237.916V2ZM245.897 2H249.887V1H245.897V2ZM253.877 2H257.867V1H253.877V2ZM261.858 2H265.848V1H261.858V2ZM269.838 2H273.828V1H269.838V2ZM277.818 2H281.809V1H277.818V2ZM285.799 2H289.789V1H285.799V2ZM293.779 2H297.769V1H293.779V2ZM301.76 2H305.75V1H301.76V2ZM309.74 2H313.73V1H309.74V2ZM317.72 2H321.711V1H317.72V2ZM325.701 2H329.691V1H325.701V2ZM333.681 2H337.671V1H333.681V2ZM341.662 2H345.652V1H341.662V2ZM349.642 2H353.632V1H349.642V2ZM357.622 2H361.613V1H357.622V2ZM365.603 2H369.593V1H365.603V2ZM373.583 2H377.574V1H373.583V2ZM381.564 2H385.554V1H381.564V2ZM389.544 2H393.534V1H389.544V2ZM397.525 2H401.515V1H397.525V2ZM405.505 2H407.5V1H405.505V2ZM407.5 2H409.497V1H407.5V2ZM413.492 2H417.487V1H413.492V2ZM421.483 2H425.478V1H421.483V2ZM429.473 2H433.467V1H429.473V2ZM437.462 2H441.457V1H437.462V2ZM445.452 2H449.448V1H445.452V2ZM453.443 2H457.438V1H453.443V2ZM461.432 2H465.427V1H461.432V2ZM469.422 2H473.417V1H469.422V2ZM477.413 2H481.408V1H477.413V2ZM485.402 2H489.397V1H485.402V2ZM493.392 2H497.388V1H493.392V2ZM501.383 2H505.378V1H501.383V2ZM509.372 2H513.367V1H509.372V2ZM517.362 2H521.358V1H517.362V2ZM525.353 2H529.348V1H525.353V2ZM533.343 2H537.338V1H533.343V2ZM541.333 2H545.328V1H541.333V2ZM549.323 2H553.318V1H549.323V2ZM557.312 2H561.307V1H557.312V2ZM565.302 2H569.297V1H565.302V2ZM573.292 2H577.287V1H573.292V2ZM581.282 2H585.277V1H581.282V2ZM589.272 2H593.267V1H589.272V2ZM597.262 2H601.257V1H597.262V2ZM605.252 2H609.247V1H605.252V2ZM613.242 2H617.237V1H613.242V2ZM621.232 2H625.227V1H621.232V2ZM629.222 2H633.217V1H629.222V2ZM637.212 2H641.207V1H637.212V2ZM645.202 2H649.197V1H645.202V2ZM653.192 2H657.187V1H653.192V2ZM661.182 2H665.177V1H661.182V2ZM669.172 2H673.167V1H669.172V2ZM677.162 2H681.157V1H677.162V2ZM685.152 2H689.147V1H685.152V2ZM693.142 2H697.137V1H693.142V2ZM701.132 2H705.127V1H701.132V2ZM709.122 2H713.117V1H709.122V2ZM717.112 2H721.107V1H717.112V2ZM725.102 2H729.097V1H725.102V2ZM733.092 2H737.087V1H733.092V2ZM741.082 2H745.077V1H741.082V2ZM749.072 2H753.067V1H749.072V2ZM757.062 2H761.057V1H757.062V2ZM765.052 2H769.047V1H765.052V2ZM773.042 2H777.037V1H773.042V2ZM781.032 2H785.027V1H781.032V2ZM789.022 2H793.017V1H789.022V2ZM797.012 2H801.007V1H797.012V2ZM805.002 2H807V1H805.002V2ZM807 2H808.984V1H807V2ZM812.953 2H816.922V1H812.953V2ZM820.891 2H824.859V1H820.891V2ZM828.828 2H832.797V1H828.828V2ZM836.766 2H840.734V1H836.766V2ZM844.703 2H848.672V1H844.703V2ZM852.641 2H856.609V1H852.641V2ZM860.578 2H864.547V1H860.578V2ZM868.516 2H872.484V1H868.516V2ZM876.453 2H880.422V1H876.453V2ZM884.391 2H888.359V1H884.391V2ZM892.328 2H896.297V1H892.328V2ZM900.266 2H904.234V1H900.266V2ZM908.203 2H912.172V1H908.203V2ZM916.141 2H920.109V1H916.141V2ZM924.078 2H928.047V1H924.078V2ZM932.016 2H935.984V1H932.016V2ZM939.953 2H943.922V1H939.953V2ZM947.891 2H951.859V1H947.891V2ZM955.828 2H959.797V1H955.828V2ZM963.766 2H967.734V1H963.766V2ZM971.703 2H975.672V1H971.703V2ZM979.641 2H983.609V1H979.641V2ZM987.578 2H991.547V1H987.578V2ZM995.516 2H999.484V1H995.516V2ZM1003.45 2H1007.42V1H1003.45V2ZM1011.39 2H1015.36V1H1011.39V2ZM1019.33 2H1023.3V1H1019.33V2ZM1027.27 2H1031.23V1H1027.27V2ZM1035.2 2H1039.17V1H1035.2V2ZM1043.14 2H1047.11V1H1043.14V2ZM1051.08 2H1055.05V1H1051.08V2ZM1059.02 2H1062.98V1H1059.02V2ZM1066.95 2H1070.92V1H1066.95V2ZM1074.89 2H1078.86V1H1074.89V2ZM1082.83 2H1086.8V1H1082.83V2ZM1090.77 2H1094.73V1H1090.77V2ZM1098.7 2H1102.67V1H1098.7V2ZM1106.64 2H1110.61V1H1106.64V2ZM1114.58 2H1118.55V1H1114.58V2ZM1122.52 2H1124.5V1H1122.52V2ZM1124 1.5V3.47727H1125V1.5H1124ZM1124 7.43182V11.3864H1125V7.43182H1124ZM1124 15.3409V19.2955H1125V15.3409H1124ZM1124 23.25V27.2045H1125V23.25H1124ZM1124 31.1591V35.1136H1125V31.1591H1124ZM1124 39.0682V43.0227H1125V39.0682H1124ZM1124 46.9773V50.9318H1125V46.9773H1124ZM1124 54.8864V58.8409H1125V54.8864H1124ZM1124 62.7954V66.75H1125V62.7954H1124ZM1124 70.7045V74.6591H1125V70.7045H1124ZM1124 78.6136V82.5682H1125V78.6136H1124ZM1124 86.5227V90.4773H1125V86.5227H1124ZM1124 94.4318V98.3863H1125V94.4318H1124ZM1124 102.341V106.295H1125V102.341H1124ZM1124 110.25V114.205H1125V110.25H1124ZM1124 118.159V122.114H1125V118.159H1124ZM1124 126.068V130.023H1125V126.068H1124ZM1124 133.977V137.932H1125V133.977H1124ZM1124 141.886V145.841H1125V141.886H1124ZM1124 149.795V153.75H1125V149.795H1124ZM1124 157.705V161.659H1125V157.705H1124ZM1124 165.614V169.568H1125V165.614H1124ZM1124 173.523V177.477H1125V173.523H1124ZM1124 181.432V185.386H1125V181.432H1124ZM1124 189.341V193.295H1125V189.341H1124ZM1124 197.25V201.204H1125V197.25H1124ZM1124 205.159V209.114H1125V205.159H1124ZM1124 213.068V217.023H1125V213.068H1124ZM1124 220.977V224.932H1125V220.977H1124ZM1124 228.886V232.841H1125V228.886H1124ZM1124 236.795V240.75H1125V236.795H1124ZM1124 244.704V248.659H1125V244.704H1124ZM1124 252.614V256.568H1125V252.614H1124ZM1124 260.523V262.5H1125V260.523H1124ZM1124.5 262H1122.51V263H1124.5V262ZM1118.53 262H1114.54V263H1118.53V262ZM1110.56 262H1106.57V263H1110.56V262ZM1102.59 262H1098.61V263H1102.59V262ZM1094.62 262H1090.64V263H1094.62V262ZM1086.66 262H1082.68V263H1086.66V262ZM1078.69 262H1074.71V263H1078.69V262ZM1070.72 262H1066.74V263H1070.72V262ZM1062.76 262H1058.78V263H1062.76V262ZM1054.79 262H1050.81V263H1054.79V262ZM1046.82 262H1042.84V263H1046.82V262ZM1038.86 262H1034.88V263H1038.86V262ZM1030.89 262H1026.91V263H1030.89V262ZM1022.93 262H1018.94V263H1022.93V262ZM1014.96 262H1010.98V263H1014.96V262ZM1006.99 262H1003.01V263H1006.99V262ZM999.025 262H995.042V263H999.025V262ZM991.058 262H987.075V263H991.058V262ZM983.092 262H979.108V263H983.092V262ZM975.125 262H971.142V263H975.125V262ZM967.158 262H963.175V263H967.158V262ZM959.192 262H955.208V263H959.192V262ZM951.225 262H947.242V263H951.225V262ZM943.258 262H939.275V263H943.258V262ZM935.292 262H931.308V263H935.292V262ZM927.325 262H923.342V263H927.325V262ZM919.358 262H915.375V263H919.358V262ZM911.392 262H907.408V263H911.392V262ZM903.425 262H899.442V263H903.425V262ZM895.458 262H891.475V263H895.458V262ZM887.492 262H883.508V263H887.492V262ZM879.525 262H875.542V263H879.525V262ZM871.558 262H867.575V263H871.558V262ZM863.592 262H859.608V263H863.592V262ZM855.625 262H851.642V263H855.625V262ZM847.658 262H843.675V263H847.658V262ZM839.692 262H835.708V263H839.692V262ZM831.725 262H827.742V263H831.725V262ZM823.758 262H819.775V263H823.758V262ZM815.792 262H811.808V263H815.792V262ZM807.825 262H803.842V263H807.825V262ZM799.858 262H795.875V263H799.858V262ZM791.891 262H787.908V263H791.891V262ZM783.925 262H779.941V263H783.925V262ZM775.958 262H771.975V263H775.958V262ZM767.991 262H764.008V263H767.991V262ZM760.025 262H756.042V263H760.025V262ZM752.058 262H748.075V263H752.058V262ZM744.091 262H740.108V263H744.091V262ZM736.125 262H732.141V263H736.125V262ZM728.158 262H724.175V263H728.158V262ZM720.191 262H716.208V263H720.191V262ZM712.225 262H708.241V263H712.225V262ZM704.258 262H700.275V263H704.258V262ZM696.291 262H692.308V263H696.291V262ZM688.325 262H684.341V263H688.325V262ZM680.358 262H676.375V263H680.358V262ZM672.391 262H668.408V263H672.391V262ZM664.425 262H660.441V263H664.425V262ZM656.458 262H652.475V263H656.458V262ZM648.491 262H644.508V263H648.491V262ZM640.525 262H636.541V263H640.525V262ZM632.558 262H628.575V263H632.558V262ZM624.591 262H620.608V263H624.591V262ZM616.625 262H612.641V263H616.625V262ZM608.658 262H604.675V263H608.658V262ZM600.691 262H596.708V263H600.691V262ZM592.725 262H588.741V263H592.725V262ZM584.758 262H580.775V263H584.758V262ZM576.791 262H572.808V263H576.791V262ZM568.825 262H564.841V263H568.825V262ZM560.858 262H556.875V263H560.858V262ZM552.891 262H548.908V263H552.891V262ZM544.925 262H540.941V263H544.925V262ZM536.958 262H532.975V263H536.958V262ZM528.991 262H525.008V263H528.991V262ZM521.025 262H517.041V263H521.025V262ZM513.058 262H509.075V263H513.058V262ZM505.091 262H501.108V263H505.091V262ZM497.125 262H493.141V263H497.125V262ZM489.158 262H485.175V263H489.158V262ZM481.191 262H477.208V263H481.191V262ZM473.225 262H469.241V263H473.225V262ZM465.258 262H461.275V263H465.258V262ZM457.291 262H453.308V263H457.291V262ZM449.325 262H445.341V263H449.325V262ZM441.358 262H437.375V263H441.358V262ZM433.391 262H429.408V263H433.391V262ZM425.424 262H421.441V263H425.424V262ZM417.458 262H413.474V263H417.458V262ZM409.491 262H407.5V263H409.491V262ZM407.5 262H405.5V263H407.5V262ZM401.5 262H397.5V263H401.5V262ZM393.5 262H389.5V263H393.5V262ZM385.5 262H381.5V263H385.5V262ZM377.5 262H373.5V263H377.5V262ZM369.5 262H365.5V263H369.5V262ZM361.5 262H357.5V263H361.5V262ZM353.5 262H349.5V263H353.5V262ZM345.5 262H341.5V263H345.5V262ZM337.5 262H333.5V263H337.5V262ZM329.5 262H325.5V263H329.5V262ZM321.5 262H317.5V263H321.5V262ZM313.5 262H309.5V263H313.5V262ZM305.5 262H301.5V263H305.5V262ZM297.5 262H293.5V263H297.5V262ZM289.5 262H285.5V263H289.5V262ZM281.5 262H277.5V263H281.5V262ZM273.5 262H269.5V263H273.5V262ZM265.5 262H261.5V263H265.5V262ZM257.5 262H253.5V263H257.5V262ZM249.5 262H245.5V263H249.5V262ZM241.5 262H237.5V263H241.5V262ZM233.5 262H229.5V263H233.5V262ZM225.5 262H221.5V263H225.5V262ZM217.5 262H213.5V263H217.5V262ZM209.5 262H205.5V263H209.5V262ZM201.5 262H197.5V263H201.5V262ZM193.5 262H189.5V263H193.5V262ZM185.5 262H181.5V263H185.5V262ZM177.5 262H173.5V263H177.5V262ZM169.5 262H165.5V263H169.5V262ZM161.5 262H157.5V263H161.5V262ZM153.5 262H151.5V263H153.5V262ZM151 262.5V264.514H152V262.5H151ZM151 268.542V272.569H152V268.542H151ZM151 276.597V280.625H152V276.597H151ZM151 284.653V288.681H152V284.653H151ZM151 292.708V296.736H152V292.708H151ZM151 300.764V304.792H152V300.764H151ZM151 308.819V312.847H152V308.819H151ZM151 316.875V320.903H152V316.875H151ZM151 324.931V328.958H152V324.931H151ZM151 332.986V337.014H152V332.986H151ZM151 341.042V345.069H152V341.042H151ZM151 349.097V353.125H152V349.097H151ZM151 357.153V361.181H152V357.153H151ZM151 365.208V369.236H152V365.208H151ZM151 373.264V377.292H152V373.264H151ZM151 381.319V385.347H152V381.319H151ZM151 389.375V393.403H152V389.375H151ZM151 397.431V401.458H152V397.431H151ZM151 405.486V409.514H152V405.486H151ZM151 413.542V417.569H152V413.542H151ZM151 421.597V425.625H152V421.597H151ZM151 429.653V433.681H152V429.653H151ZM151 437.708V441.736H152V437.708H151ZM151 445.764V449.792H152V445.764H151ZM151 453.819V457.847H152V453.819H151ZM151 461.875V465.903H152V461.875H151ZM151 469.93V473.958H152V469.93H151ZM151 477.986V482.014H152V477.986H151ZM151 486.042V490.069H152V486.042H151ZM151 494.097V498.125H152V494.097H151ZM151 502.153V506.18H152V502.153H151ZM151 510.208V514.236H152V510.208H151ZM151 518.264V522.291H152V518.264H151ZM151 526.319V530.347H152V526.319H151ZM151 534.375V538.403H152V534.375H151ZM151 542.43V546.458H152V542.43H151ZM1124.5 1.5H1125.5V0.5H1124.5V1.5ZM1124.5 262.5V263.5H1125.5V262.5H1124.5ZM151.5 262.5V261.5H150.5V262.5H151.5ZM151.5 552.5L157.273 542.5H145.727L151.5 552.5ZM0.5 2.5H2.4951V0.5H0.5V2.5ZM6.48529 2.5H10.4755V0.5H6.48529V2.5ZM14.4657 2.5H18.4559V0.5H14.4657V2.5ZM22.4461 2.5H26.4363V0.5H22.4461V2.5ZM30.4265 2.5H34.4167V0.5H30.4265V2.5ZM38.4069 2.5H42.3971V0.5H38.4069V2.5ZM46.3873 2.5H50.3774V0.5H46.3873V2.5ZM54.3676 2.5H58.3578V0.5H54.3676V2.5ZM62.348 2.5H66.3382V0.5H62.348V2.5ZM70.3284 2.5H74.3186V0.5H70.3284V2.5ZM78.3088 2.5H82.299V0.5H78.3088V2.5ZM86.2892 2.5H90.2794V0.5H86.2892V2.5ZM94.2696 2.5H98.2598V0.5H94.2696V2.5ZM102.25 2.5H106.24V0.5H102.25V2.5ZM110.23 2.5H114.221V0.5H110.23V2.5ZM118.211 2.5H122.201V0.5H118.211V2.5ZM126.191 2.5H130.181V0.5H126.191V2.5ZM134.172 2.5H138.162V0.5H134.172V2.5ZM142.152 2.5H146.142V0.5H142.152V2.5ZM150.132 2.5H154.122V0.5H150.132V2.5ZM158.113 2.5H162.103V0.5H158.113V2.5ZM166.093 2.5H170.083V0.5H166.093V2.5ZM174.073 2.5H178.064V0.5H174.073V2.5ZM182.054 2.5H186.044V0.5H182.054V2.5ZM190.034 2.5H194.024V0.5H190.034V2.5ZM198.015 2.5H202.005V0.5H198.015V2.5ZM205.995 2.5H209.985V0.5H205.995V2.5ZM213.975 2.5H217.966V0.5H213.975V2.5ZM221.956 2.5H225.946V0.5H221.956V2.5ZM229.936 2.5H233.926V0.5H229.936V2.5ZM237.916 2.5H241.907V0.5H237.916V2.5ZM245.897 2.5H249.887V0.5H245.897V2.5ZM253.877 2.5H257.867V0.5H253.877V2.5ZM261.858 2.5H265.848V0.5H261.858V2.5ZM269.838 2.5H273.828V0.5H269.838V2.5ZM277.818 2.5H281.809V0.5H277.818V2.5ZM285.799 2.5H289.789V0.5H285.799V2.5ZM293.779 2.5H297.769V0.5H293.779V2.5ZM301.76 2.5H305.75V0.5H301.76V2.5ZM309.74 2.5H313.73V0.5H309.74V2.5ZM317.72 2.5H321.711V0.5H317.72V2.5ZM325.701 2.5H329.691V0.5H325.701V2.5ZM333.681 2.5H337.671V0.5H333.681V2.5ZM341.662 2.5H345.652V0.5H341.662V2.5ZM349.642 2.5H353.632V0.5H349.642V2.5ZM357.622 2.5H361.613V0.5H357.622V2.5ZM365.603 2.5H369.593V0.5H365.603V2.5ZM373.583 2.5H377.574V0.5H373.583V2.5ZM381.564 2.5H385.554V0.5H381.564V2.5ZM389.544 2.5H393.534V0.5H389.544V2.5ZM397.525 2.5H401.515V0.5H397.525V2.5ZM405.505 2.5H407.5V0.5H405.505V2.5ZM407.5 2.5H409.497V0.5H407.5V2.5ZM413.492 2.5H417.487V0.5H413.492V2.5ZM421.483 2.5H425.478V0.5H421.483V2.5ZM429.473 2.5H433.467V0.5H429.473V2.5ZM437.462 2.5H441.457V0.5H437.462V2.5ZM445.452 2.5H449.448V0.5H445.452V2.5ZM453.443 2.5H457.438V0.5H453.443V2.5ZM461.432 2.5H465.427V0.5H461.432V2.5ZM469.422 2.5H473.417V0.5H469.422V2.5ZM477.413 2.5H481.408V0.5H477.413V2.5ZM485.402 2.5H489.397V0.5H485.402V2.5ZM493.392 2.5H497.388V0.5H493.392V2.5ZM501.383 2.5H505.378V0.5H501.383V2.5ZM509.372 2.5H513.367V0.5H509.372V2.5ZM517.362 2.5H521.358V0.5H517.362V2.5ZM525.353 2.5H529.348V0.5H525.353V2.5ZM533.343 2.5H537.338V0.5H533.343V2.5ZM541.333 2.5H545.328V0.5H541.333V2.5ZM549.323 2.5H553.318V0.5H549.323V2.5ZM557.312 2.5H561.307V0.5H557.312V2.5ZM565.302 2.5H569.297V0.5H565.302V2.5ZM573.292 2.5H577.287V0.5H573.292V2.5ZM581.282 2.5H585.277V0.5H581.282V2.5ZM589.272 2.5H593.267V0.5H589.272V2.5ZM597.262 2.5H601.257V0.5H597.262V2.5ZM605.252 2.5H609.247V0.5H605.252V2.5ZM613.242 2.5H617.237V0.5H613.242V2.5ZM621.232 2.5H625.227V0.5H621.232V2.5ZM629.222 2.5H633.217V0.5H629.222V2.5ZM637.212 2.5H641.207V0.5H637.212V2.5ZM645.202 2.5H649.197V0.5H645.202V2.5ZM653.192 2.5H657.187V0.5H653.192V2.5ZM661.182 2.5H665.177V0.5H661.182V2.5ZM669.172 2.5H673.167V0.5H669.172V2.5ZM677.162 2.5H681.157V0.5H677.162V2.5ZM685.152 2.5H689.147V0.5H685.152V2.5ZM693.142 2.5H697.137V0.5H693.142V2.5ZM701.132 2.5H705.127V0.5H701.132V2.5ZM709.122 2.5H713.117V0.5H709.122V2.5ZM717.112 2.5H721.107V0.5H717.112V2.5ZM725.102 2.5H729.097V0.5H725.102V2.5ZM733.092 2.5H737.087V0.5H733.092V2.5ZM741.082 2.5H745.077V0.5H741.082V2.5ZM749.072 2.5H753.067V0.5H749.072V2.5ZM757.062 2.5H761.057V0.5H757.062V2.5ZM765.052 2.5H769.047V0.5H765.052V2.5ZM773.042 2.5H777.037V0.5H773.042V2.5ZM781.032 2.5H785.027V0.5H781.032V2.5ZM789.022 2.5H793.017V0.5H789.022V2.5ZM797.012 2.5H801.007V0.5H797.012V2.5ZM805.002 2.5H807V0.5H805.002V2.5ZM807 2.5H808.984V0.5H807V2.5ZM812.953 2.5H816.922V0.5H812.953V2.5ZM820.891 2.5H824.859V0.5H820.891V2.5ZM828.828 2.5H832.797V0.5H828.828V2.5ZM836.766 2.5H840.734V0.5H836.766V2.5ZM844.703 2.5H848.672V0.5H844.703V2.5ZM852.641 2.5H856.609V0.5H852.641V2.5ZM860.578 2.5H864.547V0.5H860.578V2.5ZM868.516 2.5H872.484V0.5H868.516V2.5ZM876.453 2.5H880.422V0.5H876.453V2.5ZM884.391 2.5H888.359V0.5H884.391V2.5ZM892.328 2.5H896.297V0.5H892.328V2.5ZM900.266 2.5H904.234V0.5H900.266V2.5ZM908.203 2.5H912.172V0.5H908.203V2.5ZM916.141 2.5H920.109V0.5H916.141V2.5ZM924.078 2.5H928.047V0.5H924.078V2.5ZM932.016 2.5H935.984V0.5H932.016V2.5ZM939.953 2.5H943.922V0.5H939.953V2.5ZM947.891 2.5H951.859V0.5H947.891V2.5ZM955.828 2.5H959.797V0.5H955.828V2.5ZM963.766 2.5H967.734V0.5H963.766V2.5ZM971.703 2.5H975.672V0.5H971.703V2.5ZM979.641 2.5H983.609V0.5H979.641V2.5ZM987.578 2.5H991.547V0.5H987.578V2.5ZM995.516 2.5H999.484V0.5H995.516V2.5ZM1003.45 2.5H1007.42V0.5H1003.45V2.5ZM1011.39 2.5H1015.36V0.5H1011.39V2.5ZM1019.33 2.5H1023.3V0.5H1019.33V2.5ZM1027.27 2.5H1031.23V0.5H1027.27V2.5ZM1035.2 2.5H1039.17V0.5H1035.2V2.5ZM1043.14 2.5H1047.11V0.5H1043.14V2.5ZM1051.08 2.5H1055.05V0.5H1051.08V2.5ZM1059.02 2.5H1062.98V0.5H1059.02V2.5ZM1066.95 2.5H1070.92V0.5H1066.95V2.5ZM1074.89 2.5H1078.86V0.5H1074.89V2.5ZM1082.83 2.5H1086.8V0.5H1082.83V2.5ZM1090.77 2.5H1094.73V0.5H1090.77V2.5ZM1098.7 2.5H1102.67V0.5H1098.7V2.5ZM1106.64 2.5H1110.61V0.5H1106.64V2.5ZM1114.58 2.5H1118.55V0.5H1114.58V2.5ZM1122.52 2.5H1124.5V0.5H1122.52V2.5ZM1123.5 1.5V3.47727H1125.5V1.5H1123.5ZM1123.5 7.43182V11.3864H1125.5V7.43182H1123.5ZM1123.5 15.3409V19.2955H1125.5V15.3409H1123.5ZM1123.5 23.25V27.2045H1125.5V23.25H1123.5ZM1123.5 31.1591V35.1136H1125.5V31.1591H1123.5ZM1123.5 39.0682V43.0227H1125.5V39.0682H1123.5ZM1123.5 46.9773V50.9318H1125.5V46.9773H1123.5ZM1123.5 54.8864V58.8409H1125.5V54.8864H1123.5ZM1123.5 62.7954V66.75H1125.5V62.7954H1123.5ZM1123.5 70.7045V74.6591H1125.5V70.7045H1123.5ZM1123.5 78.6136V82.5682H1125.5V78.6136H1123.5ZM1123.5 86.5227V90.4773H1125.5V86.5227H1123.5ZM1123.5 94.4318V98.3863H1125.5V94.4318H1123.5ZM1123.5 102.341V106.295H1125.5V102.341H1123.5ZM1123.5 110.25V114.205H1125.5V110.25H1123.5ZM1123.5 118.159V122.114H1125.5V118.159H1123.5ZM1123.5 126.068V130.023H1125.5V126.068H1123.5ZM1123.5 133.977V137.932H1125.5V133.977H1123.5ZM1123.5 141.886V145.841H1125.5V141.886H1123.5ZM1123.5 149.795V153.75H1125.5V149.795H1123.5ZM1123.5 157.705V161.659H1125.5V157.705H1123.5ZM1123.5 165.614V169.568H1125.5V165.614H1123.5ZM1123.5 173.523V177.477H1125.5V173.523H1123.5ZM1123.5 181.432V185.386H1125.5V181.432H1123.5ZM1123.5 189.341V193.295H1125.5V189.341H1123.5ZM1123.5 197.25V201.204H1125.5V197.25H1123.5ZM1123.5 205.159V209.114H1125.5V205.159H1123.5ZM1123.5 213.068V217.023H1125.5V213.068H1123.5ZM1123.5 220.977V224.932H1125.5V220.977H1123.5ZM1123.5 228.886V232.841H1125.5V228.886H1123.5ZM1123.5 236.795V240.75H1125.5V236.795H1123.5ZM1123.5 244.704V248.659H1125.5V244.704H1123.5ZM1123.5 252.614V256.568H1125.5V252.614H1123.5ZM1123.5 260.523V262.5H1125.5V260.523H1123.5ZM1124.5 261.5H1122.51V263.5H1124.5V261.5ZM1118.53 261.5H1114.54V263.5H1118.53V261.5ZM1110.56 261.5H1106.57V263.5H1110.56V261.5ZM1102.59 261.5H1098.61V263.5H1102.59V261.5ZM1094.62 261.5H1090.64V263.5H1094.62V261.5ZM1086.66 261.5H1082.68V263.5H1086.66V261.5ZM1078.69 261.5H1074.71V263.5H1078.69V261.5ZM1070.72 261.5H1066.74V263.5H1070.72V261.5ZM1062.76 261.5H1058.78V263.5H1062.76V261.5ZM1054.79 261.5H1050.81V263.5H1054.79V261.5ZM1046.82 261.5H1042.84V263.5H1046.82V261.5ZM1038.86 261.5H1034.88V263.5H1038.86V261.5ZM1030.89 261.5H1026.91V263.5H1030.89V261.5ZM1022.93 261.5H1018.94V263.5H1022.93V261.5ZM1014.96 261.5H1010.98V263.5H1014.96V261.5ZM1006.99 261.5H1003.01V263.5H1006.99V261.5ZM999.025 261.5H995.042V263.5H999.025V261.5ZM991.058 261.5H987.075V263.5H991.058V261.5ZM983.092 261.5H979.108V263.5H983.092V261.5ZM975.125 261.5H971.142V263.5H975.125V261.5ZM967.158 261.5H963.175V263.5H967.158V261.5ZM959.192 261.5H955.208V263.5H959.192V261.5ZM951.225 261.5H947.242V263.5H951.225V261.5ZM943.258 261.5H939.275V263.5H943.258V261.5ZM935.292 261.5H931.308V263.5H935.292V261.5ZM927.325 261.5H923.342V263.5H927.325V261.5ZM919.358 261.5H915.375V263.5H919.358V261.5ZM911.392 261.5H907.408V263.5H911.392V261.5ZM903.425 261.5H899.442V263.5H903.425V261.5ZM895.458 261.5H891.475V263.5H895.458V261.5ZM887.492 261.5H883.508V263.5H887.492V261.5ZM879.525 261.5H875.542V263.5H879.525V261.5ZM871.558 261.5H867.575V263.5H871.558V261.5ZM863.592 261.5H859.608V263.5H863.592V261.5ZM855.625 261.5H851.642V263.5H855.625V261.5ZM847.658 261.5H843.675V263.5H847.658V261.5ZM839.692 261.5H835.708V263.5H839.692V261.5ZM831.725 261.5H827.742V263.5H831.725V261.5ZM823.758 261.5H819.775V263.5H823.758V261.5ZM815.792 261.5H811.808V263.5H815.792V261.5ZM807.825 261.5H803.842V263.5H807.825V261.5ZM799.858 261.5H795.875V263.5H799.858V261.5ZM791.891 261.5H787.908V263.5H791.891V261.5ZM783.925 261.5H779.941V263.5H783.925V261.5ZM775.958 261.5H771.975V263.5H775.958V261.5ZM767.991 261.5H764.008V263.5H767.991V261.5ZM760.025 261.5H756.042V263.5H760.025V261.5ZM752.058 261.5H748.075V263.5H752.058V261.5ZM744.091 261.5H740.108V263.5H744.091V261.5ZM736.125 261.5H732.141V263.5H736.125V261.5ZM728.158 261.5H724.175V263.5H728.158V261.5ZM720.191 261.5H716.208V263.5H720.191V261.5ZM712.225 261.5H708.241V263.5H712.225V261.5ZM704.258 261.5H700.275V263.5H704.258V261.5ZM696.291 261.5H692.308V263.5H696.291V261.5ZM688.325 261.5H684.341V263.5H688.325V261.5ZM680.358 261.5H676.375V263.5H680.358V261.5ZM672.391 261.5H668.408V263.5H672.391V261.5ZM664.425 261.5H660.441V263.5H664.425V261.5ZM656.458 261.5H652.475V263.5H656.458V261.5ZM648.491 261.5H644.508V263.5H648.491V261.5ZM640.525 261.5H636.541V263.5H640.525V261.5ZM632.558 261.5H628.575V263.5H632.558V261.5ZM624.591 261.5H620.608V263.5H624.591V261.5ZM616.625 261.5H612.641V263.5H616.625V261.5ZM608.658 261.5H604.675V263.5H608.658V261.5ZM600.691 261.5H596.708V263.5H600.691V261.5ZM592.725 261.5H588.741V263.5H592.725V261.5ZM584.758 261.5H580.775V263.5H584.758V261.5ZM576.791 261.5H572.808V263.5H576.791V261.5ZM568.825 261.5H564.841V263.5H568.825V261.5ZM560.858 261.5H556.875V263.5H560.858V261.5ZM552.891 261.5H548.908V263.5H552.891V261.5ZM544.925 261.5H540.941V263.5H544.925V261.5ZM536.958 261.5H532.975V263.5H536.958V261.5ZM528.991 261.5H525.008V263.5H528.991V261.5ZM521.025 261.5H517.041V263.5H521.025V261.5ZM513.058 261.5H509.075V263.5H513.058V261.5ZM505.091 261.5H501.108V263.5H505.091V261.5ZM497.125 261.5H493.141V263.5H497.125V261.5ZM489.158 261.5H485.175V263.5H489.158V261.5ZM481.191 261.5H477.208V263.5H481.191V261.5ZM473.225 261.5H469.241V263.5H473.225V261.5ZM465.258 261.5H461.275V263.5H465.258V261.5ZM457.291 261.5H453.308V263.5H457.291V261.5ZM449.325 261.5H445.341V263.5H449.325V261.5ZM441.358 261.5H437.375V263.5H441.358V261.5ZM433.391 261.5H429.408V263.5H433.391V261.5ZM425.424 261.5H421.441V263.5H425.424V261.5ZM417.458 261.5H413.474V263.5H417.458V261.5ZM409.491 261.5H407.5V263.5H409.491V261.5ZM407.5 261.5H405.5V263.5H407.5V261.5ZM401.5 261.5H397.5V263.5H401.5V261.5ZM393.5 261.5H389.5V263.5H393.5V261.5ZM385.5 261.5H381.5V263.5H385.5V261.5ZM377.5 261.5H373.5V263.5H377.5V261.5ZM369.5 261.5H365.5V263.5H369.5V261.5ZM361.5 261.5H357.5V263.5H361.5V261.5ZM353.5 261.5H349.5V263.5H353.5V261.5ZM345.5 261.5H341.5V263.5H345.5V261.5ZM337.5 261.5H333.5V263.5H337.5V261.5ZM329.5 261.5H325.5V263.5H329.5V261.5ZM321.5 261.5H317.5V263.5H321.5V261.5ZM313.5 261.5H309.5V263.5H313.5V261.5ZM305.5 261.5H301.5V263.5H305.5V261.5ZM297.5 261.5H293.5V263.5H297.5V261.5ZM289.5 261.5H285.5V263.5H289.5V261.5ZM281.5 261.5H277.5V263.5H281.5V261.5ZM273.5 261.5H269.5V263.5H273.5V261.5ZM265.5 261.5H261.5V263.5H265.5V261.5ZM257.5 261.5H253.5V263.5H257.5V261.5ZM249.5 261.5H245.5V263.5H249.5V261.5ZM241.5 261.5H237.5V263.5H241.5V261.5ZM233.5 261.5H229.5V263.5H233.5V261.5ZM225.5 261.5H221.5V263.5H225.5V261.5ZM217.5 261.5H213.5V263.5H217.5V261.5ZM209.5 261.5H205.5V263.5H209.5V261.5ZM201.5 261.5H197.5V263.5H201.5V261.5ZM193.5 261.5H189.5V263.5H193.5V261.5ZM185.5 261.5H181.5V263.5H185.5V261.5ZM177.5 261.5H173.5V263.5H177.5V261.5ZM169.5 261.5H165.5V263.5H169.5V261.5ZM161.5 261.5H157.5V263.5H161.5V261.5ZM153.5 261.5H151.5V263.5H153.5V261.5ZM150.5 262.5V264.514H152.5V262.5H150.5ZM150.5 268.542V272.569H152.5V268.542H150.5ZM150.5 276.597V280.625H152.5V276.597H150.5ZM150.5 284.653V288.681H152.5V284.653H150.5ZM150.5 292.708V296.736H152.5V292.708H150.5ZM150.5 300.764V304.792H152.5V300.764H150.5ZM150.5 308.819V312.847H152.5V308.819H150.5ZM150.5 316.875V320.903H152.5V316.875H150.5ZM150.5 324.931V328.958H152.5V324.931H150.5ZM150.5 332.986V337.014H152.5V332.986H150.5ZM150.5 341.042V345.069H152.5V341.042H150.5ZM150.5 349.097V353.125H152.5V349.097H150.5ZM150.5 357.153V361.181H152.5V357.153H150.5ZM150.5 365.208V369.236H152.5V365.208H150.5ZM150.5 373.264V377.292H152.5V373.264H150.5ZM150.5 381.319V385.347H152.5V381.319H150.5ZM150.5 389.375V393.403H152.5V389.375H150.5ZM150.5 397.431V401.458H152.5V397.431H150.5ZM150.5 405.486V409.514H152.5V405.486H150.5ZM150.5 413.542V417.569H152.5V413.542H150.5ZM150.5 421.597V425.625H152.5V421.597H150.5ZM150.5 429.653V433.681H152.5V429.653H150.5ZM150.5 437.708V441.736H152.5V437.708H150.5ZM150.5 445.764V449.792H152.5V445.764H150.5ZM150.5 453.819V457.847H152.5V453.819H150.5ZM150.5 461.875V465.903H152.5V461.875H150.5ZM150.5 469.93V473.958H152.5V469.93H150.5ZM150.5 477.986V482.014H152.5V477.986H150.5ZM150.5 486.042V490.069H152.5V486.042H150.5ZM150.5 494.097V498.125H152.5V494.097H150.5ZM150.5 502.153V506.18H152.5V502.153H150.5ZM150.5 510.208V514.236H152.5V510.208H150.5ZM150.5 518.264V522.291H152.5V518.264H150.5ZM150.5 526.319V530.347H152.5V526.319H150.5ZM150.5 534.375V538.403H152.5V534.375H150.5ZM150.5 542.43V546.458H152.5V542.43H150.5Z" fill="url(#paint0_linear_502_1284)"/>
<defs>
<linearGradient id="paint0_linear_502_1284" x1="0.5" y1="1.5" x2="436.049" y2="889.988" gradientUnits="userSpaceOnUse">
<stop stop-color="#3DC172"/>
<stop offset="1" stop-color="#5E9C1F"/>
</linearGradient>
</defs>
</svg>
