<svg width="1920" height="1029" viewBox="0 0 1920 1029" fill="none" xmlns="http://www.w3.org/2000/svg">
<g clip-path="url(#clip0_501_1543)">
<path d="M45.9236 749.626L60.4385 749.887L61.1164 650.606L46.609 650.622L45.9236 749.626Z" fill="url(#paint0_linear_501_1543)"/>
<path d="M82.6294 700.723L97.3488 700.848L98.0229 598.312L83.311 598.479L82.6294 700.723Z" fill="url(#paint1_linear_501_1543)"/>
<path d="M119.888 642.927L134.816 642.889L135.058 604.706L120.134 604.854L119.888 642.927Z" fill="url(#paint2_linear_501_1543)"/>
<path d="M157.014 687.771L172.158 687.862L172.464 637.779L157.325 637.836L157.014 687.771Z" fill="url(#paint3_linear_501_1543)"/>
<path d="M194.905 698.634L210.272 698.755L211.052 566.829L195.693 567.09L194.905 698.634Z" fill="url(#paint4_linear_501_1543)"/>
<path d="M233.527 679.717L249.117 679.785L249.613 592.586L234.027 592.775L233.527 679.717Z" fill="url(#paint5_linear_501_1543)"/>
<path d="M272.281 738.399L288.107 738.638L288.622 643.861L272.8 643.899L272.281 738.399Z" fill="url(#paint6_linear_501_1543)"/>
<path d="M312.354 661.923L328.41 661.938L328.649 615.75L312.596 615.875L312.354 661.923Z" fill="url(#paint7_linear_501_1543)"/>
<path d="M352.68 645.554L368.974 645.52L369.361 567.397L353.07 567.662L352.68 645.554Z" fill="url(#paint8_linear_501_1543)"/>
<path d="M393.464 657.964L410.009 657.968L410.277 600.02L393.74 600.19L393.464 657.964Z" fill="url(#paint9_linear_501_1543)"/>
<path d="M434.706 708.188L451.505 708.343L452.243 541.845L435.456 542.193L434.706 708.188Z" fill="url(#paint10_linear_501_1543)"/>
<path d="M476.91 686.741L493.966 686.832L494.375 588.619L477.327 588.827L476.91 686.741Z" fill="url(#paint11_linear_501_1543)"/>
<path d="M520.039 594.112L537.348 593.919L537.875 459.385L520.576 459.99L520.039 594.112Z" fill="url(#paint12_linear_501_1543)"/>
<path d="M607.677 545.619L625.528 545.27L625.661 505.729L607.814 506.202L607.677 545.619Z" fill="url(#paint13_linear_501_1543)"/>
<path d="M652.207 615.44L670.349 615.307L670.622 527.265L652.487 527.673L652.207 615.44Z" fill="url(#paint14_linear_501_1543)"/>
<path d="M697.565 659.796L716.003 659.804L716.204 587.719L697.774 587.938L697.565 659.796Z" fill="url(#paint15_linear_501_1543)"/>
<path d="M743.791 660.323L762.525 660.334L762.68 598.733L743.95 598.923L743.791 660.323Z" fill="url(#paint16_linear_501_1543)"/>
<path d="M790.653 706.78L809.697 706.943L810.027 559.139L790.998 559.457L790.653 706.78Z" fill="url(#paint17_linear_501_1543)"/>
<path d="M838.496 662.847L857.847 662.866L858.01 577.34L838.67 577.597L838.496 662.847Z" fill="url(#paint18_linear_501_1543)"/>
<path d="M886.903 726.866L906.58 727.097L906.901 531.474L887.248 531.886L886.903 726.866Z" fill="url(#paint19_linear_501_1543)"/>
<path d="M936.442 593.465L956.429 593.256L956.573 485.361L936.598 485.929L936.442 593.465Z" fill="url(#paint20_linear_501_1543)"/>
<path d="M986.55 608.57L1006.87 608.408L1006.97 517.091L986.656 517.56L986.55 608.57Z" fill="url(#paint21_linear_501_1543)"/>
<path d="M1037.48 665.073L1058.15 665.103L1058.3 458.737L1037.65 459.403L1037.48 665.073Z" fill="url(#paint22_linear_501_1543)"/>
<path d="M1089.36 605.576L1110.38 605.402L1110.41 537.325L1089.4 537.73L1089.36 605.576Z" fill="url(#paint23_linear_501_1543)"/>
<path d="M1142.09 609.168L1163.47 609.005L1163.47 509.312L1142.11 509.82L1142.09 609.168Z" fill="url(#paint24_linear_501_1543)"/>
<path d="M1195.71 534.676L1195.72 587.136L1217.47 586.894L1217.46 534.252L1195.71 534.676Z" fill="url(#paint25_linear_501_1543)"/>
<path d="M1250.24 507.946L1250.29 605.546L1272.43 605.364L1272.36 507.424L1250.24 507.946Z" fill="url(#paint26_linear_501_1543)"/>
<path d="M1305.7 473.325L1305.85 654.161L1328.39 654.153L1328.21 472.678L1305.7 473.325Z" fill="url(#paint27_linear_501_1543)"/>
<path d="M1362.18 481.739L1362.38 653.472L1385.31 653.46L1385.09 481.118L1362.18 481.739Z" fill="url(#paint28_linear_501_1543)"/>
<path d="M1419.54 405.717L1419.66 486.16L1442.98 485.547L1442.85 404.816L1419.54 405.717Z" fill="url(#paint29_linear_501_1543)"/>
<path d="M1477.93 353.783L1478.27 534.96L1502.02 534.517L1501.65 352.686L1477.93 353.783Z" fill="url(#paint30_linear_501_1543)"/>
<path d="M1537.11 196.373L1537.57 404.404L1561.74 403.48L1561.24 194.692L1537.11 196.373Z" fill="url(#paint31_linear_501_1543)"/>
<path d="M1597.97 311.913L1598.37 466.973L1623 466.273L1622.57 310.642L1597.97 311.913Z" fill="url(#paint32_linear_501_1543)"/>
<path d="M1746.13 191.097L1720.63 192.838L1721.13 342.175L1746.65 340.994L1746.13 191.097Z" fill="url(#paint33_linear_501_1543)"/>
<path d="M1659.47 232.909L1659.91 380.967L1684.98 379.941L1684.51 231.331L1659.47 232.909Z" fill="url(#paint34_linear_501_1543)"/>
<g style="mix-blend-mode:darken">
<path d="M-12.7836 678.956L-13.469 677.658C-9.56856 674.691 206.538 526.773 216.305 520.089L216.793 519.756L217.179 520.251L271.426 590.266L307.598 552.333L308.097 552.916L369.096 623.896L439.792 548.677L440.341 549.294L487.605 602.477L637.628 446.652L638.23 447.284L688.201 499.733L735.328 451.928L735.956 452.576L858.07 578.041L1028.6 414.525L1165.19 544.986L1303.66 419.711L1361.81 472.227L1497.56 352.262L1498.42 353.004L1559.77 405.528L1963.78 56.8848L1965.84 58.395L1560.66 407.814L1559.77 408.579L1497.56 355.275L1361.81 475.161L1303.66 422.61L1165.19 547.802L1164.43 547.076L1028.6 417.258L858.07 580.675L857.404 579.99L735.328 454.491L688.201 502.269L637.628 449.158L487.605 604.895L439.792 551.069L369.096 626.246L307.571 554.619L271.354 592.579L216.539 521.799C204.429 530.085 -8.98917 676.065 -12.7836 678.949V678.956Z" fill="url(#paint35_linear_501_1543)"/>
</g>
<g style="mix-blend-mode:darken" opacity="0.84">
<path d="M1967.9 0L1836.27 109.099L1722.52 157.619L1717.37 303.594L1652.64 484.207L1406.25 499.975L1206.67 478.314L1204.14 478.045L1117.85 575.52L964.537 597.314L840.14 589.384L839.087 589.312L750.676 623.544L595.143 565.119L492.777 613.067L389.753 622.654L299.509 613.237L228.21 601.773L227.491 601.659L103.54 633.888L11.4142 617.643L-107 750.712L-103.743 752.094L13.4478 620.535L104.048 636.572L228.036 604.399L298.785 615.815L389.605 625.346L389.991 625.383L494.421 615.728L595.643 568.631L750.986 627.09L840.802 592.378L964.696 600.346L965.264 600.391L1121.06 578.332L1122.36 578.143L1207.89 481.663L1405.46 503.223L1406.07 503.287L1656.41 487.405L1659.08 487.231L1724.89 303.716L1730.04 158.894L1841.82 111.294L1975 1.2869L1967.9 0Z" fill="url(#paint36_linear_501_1543)"/>
</g>
<g style="mix-blend-mode:screen">
<path d="M-85.6839 1028.56C-86.3352 1027.96 -86.3731 1026.94 -85.7672 1026.29L188.619 773.528L467.928 786L643.652 625.387L696.49 683.139L847.206 545.38L896.113 598.836L934.632 563.628L1028.85 666.61L1227.63 484.926L1268.84 529.971L1346.44 459.041L1473.62 598.052L1712.9 191.869L1715.83 193.213L1474.52 603.817L1346.23 463.594L1268.63 534.525L1227.42 489.479L1028.64 671.163L934.424 568.181L895.904 603.389L846.998 549.933L696.282 687.692L643.444 629.941L469.117 789.281L189.963 776.814L-83.4042 1028.49C-84.0101 1029.14 -85.0326 1029.17 -85.6839 1028.57V1028.56Z" fill="url(#paint37_linear_501_1543)"/>
</g>
<g opacity="0.49">
<path d="M960.709 373.114H952.158L956.433 365.714L960.709 358.314L964.984 365.714L969.259 373.114H960.709Z" fill="#7EC242"/>
<path d="M997.494 353.061L984.891 353.114L983.623 360.457C984.384 360.366 985.092 360.279 986.311 360.275C988.848 360.267 991.389 360.744 993.423 361.796C996.017 363.068 998.156 365.532 998.156 369.143C998.156 374.737 993.014 378.92 985.853 378.912C982.256 378.908 979.219 378.026 977.651 377.148L978.764 374.207C980.131 374.911 982.812 375.79 985.804 375.79C990.015 375.79 993.627 373.416 993.627 369.586C993.578 365.888 990.73 363.254 984.134 363.265C982.259 363.269 980.79 363.447 979.578 363.583L981.703 349.877L997.498 349.802V353.061H997.494Z" fill="#7EC242"/>
<path d="M1026.04 363.757C1026.04 373.549 1021.82 378.95 1014.42 378.943C1007.91 378.935 1003.51 373.682 1003.41 364.197C1003.41 354.583 1008.22 349.265 1014.98 349.231C1022.02 349.197 1026.04 354.583 1026.04 363.754V363.757ZM1007.91 364.234C1007.91 371.695 1010.57 375.934 1014.67 375.938C1019.3 375.938 1021.51 371.293 1021.51 363.943C1021.51 356.592 1019.4 352.221 1014.73 352.24C1010.78 352.255 1007.91 356.418 1007.91 364.234Z" fill="#7EC242"/>
<path d="M1030.58 376.164C1030.58 374.522 1031.87 373.371 1033.68 373.371C1035.49 373.371 1036.73 374.526 1036.73 376.168C1036.73 377.811 1035.54 378.965 1033.62 378.962C1031.81 378.962 1030.58 377.762 1030.58 376.164Z" fill="#7EC242"/>
<path d="M1050.85 353.197H1050.74L1044.87 355.933L1043.98 352.958L1051.37 349.544L1055.28 349.525V378.496H1050.85V353.197H1050.85Z" fill="#7EC242"/>
<path d="M1088.09 352.689L1075.02 352.742L1073.7 360.218C1074.49 360.127 1075.23 360.036 1076.49 360.032C1079.12 360.025 1081.75 360.513 1083.87 361.58C1086.56 362.875 1088.78 365.384 1088.78 369.063C1088.78 374.764 1083.45 379.018 1076.02 379.01C1072.29 379.006 1069.14 378.109 1067.52 377.212L1068.67 374.218C1070.09 374.934 1072.87 375.831 1075.97 375.831C1080.34 375.831 1084.08 373.416 1084.08 369.514C1084.03 365.748 1081.08 363.064 1074.24 363.079C1072.3 363.083 1070.77 363.265 1069.51 363.401L1071.72 349.446L1088.1 349.366V352.686L1088.09 352.689Z" fill="#7EC242"/>
<path d="M1095.82 373.999C1097.14 374.718 1100.22 375.843 1103.46 375.846C1109.47 375.846 1111.34 372.606 1111.29 370.173C1111.24 366.07 1106.87 364.321 1102.34 364.329H1099.74V361.365L1102.34 361.357C1105.75 361.35 1110.06 359.851 1110.06 356.384C1110.06 354.041 1108.3 351.974 1103.99 351.993C1101.23 352.005 1098.57 353.049 1097.09 353.954L1095.87 351.081C1097.67 349.949 1101.17 348.81 1104.9 348.791C1111.72 348.757 1114.81 352.171 1114.81 355.733C1114.81 358.753 1112.67 361.331 1108.41 362.648V362.739C1112.67 363.451 1116.15 366.153 1116.15 370.256C1116.15 374.949 1111.82 379.049 1103.51 379.037C1099.64 379.033 1096.24 377.996 1094.54 377.05L1095.82 373.996V373.999Z" fill="#7EC242"/>
</g>
</g>
<defs>
<linearGradient id="paint0_linear_501_1543" x1="53.52" y1="650.606" x2="53.52" y2="749.887" gradientUnits="userSpaceOnUse">
<stop stop-color="#7EC242"/>
<stop offset="1" stop-color="#7EC242" stop-opacity="0"/>
</linearGradient>
<linearGradient id="paint1_linear_501_1543" x1="90.3261" y1="598.312" x2="90.3261" y2="700.848" gradientUnits="userSpaceOnUse">
<stop stop-color="#7EC242"/>
<stop offset="1" stop-color="#7EC242" stop-opacity="0"/>
</linearGradient>
<linearGradient id="paint2_linear_501_1543" x1="127.473" y1="604.706" x2="127.473" y2="642.927" gradientUnits="userSpaceOnUse">
<stop stop-color="#7EC242"/>
<stop offset="1" stop-color="#7EC242" stop-opacity="0"/>
</linearGradient>
<linearGradient id="paint3_linear_501_1543" x1="164.739" y1="637.779" x2="164.739" y2="687.862" gradientUnits="userSpaceOnUse">
<stop stop-color="#7EC242"/>
<stop offset="1" stop-color="#7EC242" stop-opacity="0"/>
</linearGradient>
<linearGradient id="paint4_linear_501_1543" x1="202.979" y1="566.829" x2="202.979" y2="698.755" gradientUnits="userSpaceOnUse">
<stop stop-color="#7EC242"/>
<stop offset="1" stop-color="#7EC242" stop-opacity="0"/>
</linearGradient>
<linearGradient id="paint5_linear_501_1543" x1="241.57" y1="592.586" x2="241.57" y2="679.785" gradientUnits="userSpaceOnUse">
<stop stop-color="#7EC242"/>
<stop offset="1" stop-color="#7EC242" stop-opacity="0"/>
</linearGradient>
<linearGradient id="paint6_linear_501_1543" x1="280.452" y1="643.861" x2="280.452" y2="738.638" gradientUnits="userSpaceOnUse">
<stop stop-color="#7EC242"/>
<stop offset="1" stop-color="#7EC242" stop-opacity="0"/>
</linearGradient>
<linearGradient id="paint7_linear_501_1543" x1="320.501" y1="615.75" x2="320.501" y2="661.938" gradientUnits="userSpaceOnUse">
<stop stop-color="#7EC242"/>
<stop offset="1" stop-color="#7EC242" stop-opacity="0"/>
</linearGradient>
<linearGradient id="paint8_linear_501_1543" x1="361.02" y1="567.397" x2="361.02" y2="645.554" gradientUnits="userSpaceOnUse">
<stop stop-color="#7EC242"/>
<stop offset="1" stop-color="#7EC242" stop-opacity="0"/>
</linearGradient>
<linearGradient id="paint9_linear_501_1543" x1="401.871" y1="600.02" x2="401.871" y2="657.968" gradientUnits="userSpaceOnUse">
<stop stop-color="#7EC242"/>
<stop offset="1" stop-color="#7EC242" stop-opacity="0"/>
</linearGradient>
<linearGradient id="paint10_linear_501_1543" x1="443.475" y1="541.845" x2="443.475" y2="708.343" gradientUnits="userSpaceOnUse">
<stop stop-color="#7EC242"/>
<stop offset="1" stop-color="#7EC242" stop-opacity="0"/>
</linearGradient>
<linearGradient id="paint11_linear_501_1543" x1="485.643" y1="588.619" x2="485.643" y2="686.832" gradientUnits="userSpaceOnUse">
<stop stop-color="#7EC242"/>
<stop offset="1" stop-color="#7EC242" stop-opacity="0"/>
</linearGradient>
<linearGradient id="paint12_linear_501_1543" x1="528.957" y1="459.385" x2="528.957" y2="594.112" gradientUnits="userSpaceOnUse">
<stop stop-color="#7EC242"/>
<stop offset="1" stop-color="#7EC242" stop-opacity="0"/>
</linearGradient>
<linearGradient id="paint13_linear_501_1543" x1="616.669" y1="505.729" x2="616.669" y2="545.619" gradientUnits="userSpaceOnUse">
<stop stop-color="#7EC242"/>
<stop offset="1" stop-color="#7EC242" stop-opacity="0"/>
</linearGradient>
<linearGradient id="paint14_linear_501_1543" x1="661.414" y1="527.265" x2="661.414" y2="615.44" gradientUnits="userSpaceOnUse">
<stop stop-color="#7EC242"/>
<stop offset="1" stop-color="#7EC242" stop-opacity="0"/>
</linearGradient>
<linearGradient id="paint15_linear_501_1543" x1="706.885" y1="587.719" x2="706.885" y2="659.804" gradientUnits="userSpaceOnUse">
<stop stop-color="#7EC242"/>
<stop offset="1" stop-color="#7EC242" stop-opacity="0"/>
</linearGradient>
<linearGradient id="paint16_linear_501_1543" x1="753.236" y1="598.733" x2="753.236" y2="660.334" gradientUnits="userSpaceOnUse">
<stop stop-color="#7EC242"/>
<stop offset="1" stop-color="#7EC242" stop-opacity="0"/>
</linearGradient>
<linearGradient id="paint17_linear_501_1543" x1="800.34" y1="559.139" x2="800.34" y2="706.943" gradientUnits="userSpaceOnUse">
<stop stop-color="#7EC242"/>
<stop offset="1" stop-color="#7EC242" stop-opacity="0"/>
</linearGradient>
<linearGradient id="paint18_linear_501_1543" x1="848.253" y1="577.34" x2="848.253" y2="662.866" gradientUnits="userSpaceOnUse">
<stop stop-color="#7EC242"/>
<stop offset="1" stop-color="#7EC242" stop-opacity="0"/>
</linearGradient>
<linearGradient id="paint19_linear_501_1543" x1="896.902" y1="531.474" x2="896.902" y2="727.097" gradientUnits="userSpaceOnUse">
<stop stop-color="#7EC242"/>
<stop offset="1" stop-color="#7EC242" stop-opacity="0"/>
</linearGradient>
<linearGradient id="paint20_linear_501_1543" x1="946.508" y1="485.361" x2="946.508" y2="593.465" gradientUnits="userSpaceOnUse">
<stop stop-color="#7EC242"/>
<stop offset="1" stop-color="#7EC242" stop-opacity="0"/>
</linearGradient>
<linearGradient id="paint21_linear_501_1543" x1="996.759" y1="517.091" x2="996.759" y2="608.57" gradientUnits="userSpaceOnUse">
<stop stop-color="#7EC242"/>
<stop offset="1" stop-color="#7EC242" stop-opacity="0"/>
</linearGradient>
<linearGradient id="paint22_linear_501_1543" x1="1047.89" y1="458.737" x2="1047.89" y2="665.103" gradientUnits="userSpaceOnUse">
<stop stop-color="#7EC242"/>
<stop offset="1" stop-color="#7EC242" stop-opacity="0"/>
</linearGradient>
<linearGradient id="paint23_linear_501_1543" x1="1099.89" y1="537.325" x2="1099.89" y2="605.576" gradientUnits="userSpaceOnUse">
<stop stop-color="#7EC242"/>
<stop offset="1" stop-color="#7EC242" stop-opacity="0"/>
</linearGradient>
<linearGradient id="paint24_linear_501_1543" x1="1152.78" y1="509.312" x2="1152.78" y2="609.168" gradientUnits="userSpaceOnUse">
<stop stop-color="#7EC242"/>
<stop offset="1" stop-color="#7EC242" stop-opacity="0"/>
</linearGradient>
<linearGradient id="paint25_linear_501_1543" x1="1206.59" y1="534.252" x2="1206.59" y2="587.136" gradientUnits="userSpaceOnUse">
<stop stop-color="#7EC242"/>
<stop offset="1" stop-color="#7EC242" stop-opacity="0"/>
</linearGradient>
<linearGradient id="paint26_linear_501_1543" x1="1261.33" y1="507.424" x2="1261.33" y2="605.546" gradientUnits="userSpaceOnUse">
<stop stop-color="#7EC242"/>
<stop offset="1" stop-color="#7EC242" stop-opacity="0"/>
</linearGradient>
<linearGradient id="paint27_linear_501_1543" x1="1317.05" y1="472.678" x2="1317.05" y2="654.161" gradientUnits="userSpaceOnUse">
<stop stop-color="#7EC242"/>
<stop offset="1" stop-color="#7EC242" stop-opacity="0"/>
</linearGradient>
<linearGradient id="paint28_linear_501_1543" x1="1373.75" y1="481.118" x2="1373.75" y2="653.472" gradientUnits="userSpaceOnUse">
<stop stop-color="#7EC242"/>
<stop offset="1" stop-color="#7EC242" stop-opacity="0"/>
</linearGradient>
<linearGradient id="paint29_linear_501_1543" x1="1431.26" y1="404.816" x2="1431.26" y2="486.16" gradientUnits="userSpaceOnUse">
<stop stop-color="#7EC242"/>
<stop offset="1" stop-color="#7EC242" stop-opacity="0"/>
</linearGradient>
<linearGradient id="paint30_linear_501_1543" x1="1489.97" y1="352.686" x2="1489.97" y2="534.96" gradientUnits="userSpaceOnUse">
<stop stop-color="#7EC242"/>
<stop offset="1" stop-color="#7EC242" stop-opacity="0"/>
</linearGradient>
<linearGradient id="paint31_linear_501_1543" x1="1549.42" y1="194.692" x2="1549.42" y2="404.404" gradientUnits="userSpaceOnUse">
<stop stop-color="#7EC242"/>
<stop offset="1" stop-color="#7EC242" stop-opacity="0"/>
</linearGradient>
<linearGradient id="paint32_linear_501_1543" x1="1610.49" y1="310.642" x2="1610.49" y2="466.973" gradientUnits="userSpaceOnUse">
<stop stop-color="#7EC242"/>
<stop offset="1" stop-color="#7EC242" stop-opacity="0"/>
</linearGradient>
<linearGradient id="paint33_linear_501_1543" x1="1733.64" y1="191.097" x2="1733.64" y2="342.175" gradientUnits="userSpaceOnUse">
<stop stop-color="#7EC242"/>
<stop offset="1" stop-color="#7EC242" stop-opacity="0"/>
</linearGradient>
<linearGradient id="paint34_linear_501_1543" x1="1672.22" y1="231.331" x2="1672.22" y2="380.967" gradientUnits="userSpaceOnUse">
<stop stop-color="#7EC242"/>
<stop offset="1" stop-color="#7EC242" stop-opacity="0"/>
</linearGradient>
<linearGradient id="paint35_linear_501_1543" x1="976.187" y1="56.8848" x2="976.187" y2="678.956" gradientUnits="userSpaceOnUse">
<stop stop-color="#FF8F0C"/>
<stop offset="1" stop-color="#FF8F0C" stop-opacity="0"/>
</linearGradient>
<linearGradient id="paint36_linear_501_1543" x1="934" y1="0" x2="934" y2="752.094" gradientUnits="userSpaceOnUse">
<stop stop-color="#FF8F0C"/>
<stop offset="1" stop-color="#FF8F0C" stop-opacity="0"/>
</linearGradient>
<linearGradient id="paint37_linear_501_1543" x1="-61.3553" y1="191.869" x2="1039.04" y2="1516.97" gradientUnits="userSpaceOnUse">
<stop stop-color="#FFA80D"/>
<stop offset="1" stop-color="#FF8F0C"/>
</linearGradient>
<clipPath id="clip0_501_1543">
<rect width="2082" height="1029" fill="white" transform="translate(-107)"/>
</clipPath>
</defs>
</svg>
