<svg width="69" height="79" viewBox="0 0 69 79" fill="none" xmlns="http://www.w3.org/2000/svg">
<path d="M23.8309 78.3707C23.7046 78.3788 23.5782 78.3583 23.4609 78.3107C23.2589 78.2048 23.0992 78.033 23.0083 77.8238C22.9173 77.6147 22.9006 77.3807 22.9609 77.1607L25.9609 55.4907C25.9609 55.2507 25.9609 55.1407 25.9009 55.1207L13.3409 48.2407C13.207 48.1551 13.0954 48.0387 13.0154 47.9014C12.9354 47.764 12.8893 47.6095 12.8809 47.4507C12.8786 47.0953 12.9586 46.7442 13.1148 46.425C13.2709 46.1058 13.4989 45.827 13.7809 45.6107L31.1309 32.6807C31.3782 32.4848 31.5625 32.2205 31.6609 31.9207L33.5209 26.4907C33.5549 26.3972 33.6242 26.3207 33.7139 26.2776C33.8037 26.2346 33.9067 26.2286 34.0009 26.2607C34.0945 26.2947 34.171 26.364 34.214 26.4537C34.257 26.5435 34.2631 26.6465 34.2309 26.7407L32.3709 32.1707C32.2183 32.6082 31.9443 32.9932 31.5809 33.2807L14.2309 46.2107C14.05 46.3509 13.9023 46.5294 13.7986 46.7334C13.6949 46.9375 13.6376 47.1619 13.6309 47.3907C13.6309 47.4907 13.6309 47.5607 13.7009 47.5807L26.2609 54.4607C26.4479 54.5749 26.5922 54.7473 26.6717 54.9514C26.7512 55.1556 26.7615 55.3802 26.7009 55.5907L23.7009 77.2607C23.7009 77.4807 23.7009 77.6107 23.7609 77.6307C23.8209 77.6507 24.0409 77.6307 24.3009 77.3007L39.8309 58.9107C39.9639 58.7389 40.1314 58.5968 40.3225 58.4935C40.5137 58.3902 40.7243 58.3279 40.9409 58.3107L56.4609 58.7707C56.5909 58.7707 56.7809 58.6507 56.9509 58.4607C57.2058 58.1907 57.3457 57.832 57.3409 57.4607L54.3409 39.2207C54.2915 38.7691 54.3973 38.3142 54.6409 37.9307L67.2609 16.4907C67.5409 16.0207 67.5009 15.6607 67.4209 15.5707C67.3409 15.4807 67.2809 15.5707 67.2509 15.5707L49.8909 22.6807C49.6979 22.7817 49.4732 22.8037 49.2642 22.7421C49.0552 22.6806 48.8784 22.5402 48.7709 22.3507L41.0109 8.67072C40.7209 8.67072 40.3009 8.97072 40.1209 9.51072L36.1909 20.9707C36.1751 21.0167 36.1505 21.0591 36.1184 21.0955C36.0862 21.132 36.0472 21.1617 36.0035 21.1831C35.9599 21.2044 35.9125 21.217 35.864 21.22C35.8155 21.223 35.7669 21.2165 35.7209 21.2007C35.6255 21.1688 35.5467 21.1003 35.5017 21.0103C35.4567 20.9203 35.4492 20.8162 35.4809 20.7207L39.4609 9.31072C39.5585 8.97174 39.7441 8.6646 39.9988 8.42048C40.2534 8.17637 40.5681 8.00395 40.9109 7.92072C41.071 7.90196 41.2331 7.93202 41.3759 8.00696C41.5186 8.08191 41.6354 8.19825 41.7109 8.34072L49.4609 21.9907C49.4609 21.9907 49.4609 22.0607 49.6509 21.9907L67.0009 14.8807C67.1667 14.8049 67.352 14.7824 67.5312 14.8165C67.7103 14.8505 67.8745 14.9393 68.0009 15.0707C68.1664 15.3434 68.2472 15.6592 68.2329 15.9779C68.2187 16.2966 68.1101 16.6039 67.9209 16.8607L55.3609 38.2407C55.2119 38.4761 55.1419 38.7528 55.1609 39.0307L58.1609 57.2707C58.1901 57.5728 58.1554 57.8776 58.0589 58.1654C57.9624 58.4531 57.8063 58.7173 57.6009 58.9407C57.3294 59.2632 56.9409 59.4646 56.5209 59.5007L40.9909 59.0407C40.8809 59.0407 40.6809 59.1407 40.4809 59.3807L24.9609 77.7607C24.83 77.9402 24.6605 78.0882 24.465 78.1937C24.2695 78.2992 24.0528 78.3597 23.8309 78.3707Z" fill="#314F9C"/>
<path d="M39.1194 57.8707C39.0314 57.8694 38.9465 57.8376 38.8794 57.7808C38.844 57.7463 38.8159 57.7051 38.7967 57.6596C38.7775 57.614 38.7676 57.5651 38.7676 57.5158C38.7676 57.4664 38.7775 57.4175 38.7967 57.3719C38.8159 57.3264 38.844 57.2852 38.8794 57.2508C39.3079 56.7309 39.822 56.2879 40.3994 55.9407C40.8926 55.6451 41.4544 55.4832 42.0294 55.4708L54.1894 55.8407C54.2758 55.8035 54.3515 55.745 54.4094 55.6707C54.5458 55.5209 54.6177 55.3233 54.6094 55.1207C54.5973 55.0232 54.6226 54.9247 54.6801 54.845C54.7376 54.7653 54.823 54.7102 54.9194 54.6907C54.968 54.6822 55.0179 54.6835 55.0661 54.6945C55.1142 54.7056 55.1597 54.7261 55.1998 54.755C55.2398 54.7839 55.2737 54.8206 55.2994 54.8628C55.3251 54.905 55.3421 54.9519 55.3494 55.0008C55.3731 55.2139 55.3506 55.4297 55.2833 55.6334C55.216 55.837 55.1055 56.0237 54.9594 56.1808C54.8647 56.3041 54.7438 56.4048 54.6055 56.4757C54.4671 56.5466 54.3147 56.5859 54.1594 56.5907L41.9994 56.2208C41.5673 56.2352 41.1467 56.3628 40.7794 56.5907C40.274 56.8958 39.8242 57.2847 39.4494 57.7407C39.4086 57.787 39.3574 57.8228 39.3 57.8454C39.2426 57.868 39.1807 57.8767 39.1194 57.8707ZM48.5094 25.6007C48.1597 25.6086 47.8148 25.5193 47.5129 25.3427C47.211 25.1662 46.964 24.9093 46.7994 24.6007L44.1694 19.9607C44.1445 19.9182 44.1284 19.8711 44.1221 19.8223C44.1157 19.7734 44.1191 19.7238 44.1321 19.6763C44.1452 19.6288 44.1676 19.5844 44.198 19.5457C44.2284 19.5069 44.2663 19.4747 44.3094 19.4507C44.3974 19.4028 44.5006 19.3905 44.5974 19.4166C44.6942 19.4427 44.7773 19.505 44.8294 19.5907L47.4594 24.2407C47.5506 24.3899 47.6702 24.5196 47.8116 24.6224C47.953 24.7253 48.1132 24.7992 48.2832 24.8401C48.4531 24.881 48.6295 24.8879 48.8021 24.8606C48.9748 24.8332 49.1404 24.7721 49.2894 24.6808L54.1894 22.6808C54.2824 22.647 54.3849 22.65 54.4758 22.689C54.5668 22.7279 54.6396 22.8001 54.6794 22.8907C54.7157 22.9836 54.714 23.0871 54.6747 23.1788C54.6354 23.2704 54.5617 23.343 54.4694 23.3807L49.5794 25.3807C49.2412 25.5257 48.8772 25.6005 48.5094 25.6007ZM66.0494 16.0807C65.9971 16.0957 65.9416 16.0957 65.8894 16.0807C65.8064 16.0416 65.7421 15.9715 65.7103 15.8855C65.6785 15.7995 65.6818 15.7044 65.7194 15.6207L66.0294 15.7707L65.7494 15.5807C65.8025 15.5017 65.8834 15.4456 65.976 15.4233C66.0686 15.4011 66.1661 15.4145 66.2494 15.4607C66.331 15.5089 66.3911 15.5866 66.4172 15.6778C66.4432 15.769 66.4333 15.8667 66.3894 15.9507L66.1194 15.7707L66.3894 15.9507C66.3445 15.9944 66.2912 16.0285 66.2328 16.0508C66.1743 16.0732 66.1119 16.0833 66.0494 16.0807Z" fill="#314F9C"/>
<path d="M10.7091 71.0907C10.6534 71.1055 10.5948 71.1055 10.5391 71.0907C10.3485 70.9795 10.2 70.8083 10.1168 70.6039C10.0336 70.3996 10.0203 70.1734 10.0791 69.9607L12.4591 52.3107C12.4638 52.2613 12.4788 52.2135 12.5029 52.1702C12.527 52.1269 12.5598 52.089 12.5992 52.059C12.6386 52.029 12.6839 52.0074 12.732 51.9956C12.7802 51.9839 12.8302 51.9822 12.8791 51.9907C12.9278 51.9968 12.9749 52.0126 13.0175 52.0371C13.0601 52.0617 13.0974 52.0944 13.1272 52.1335C13.157 52.1726 13.1787 52.2173 13.191 52.2649C13.2034 52.3125 13.2061 52.362 13.1991 52.4107L10.7891 70.0607C10.7891 70.2907 10.7891 70.4107 10.7891 70.4307C10.8335 70.4518 10.8731 70.4818 10.9055 70.5189C10.9378 70.5559 10.9623 70.5992 10.9773 70.646C10.9923 70.6929 10.9975 70.7423 10.9926 70.7913C10.9878 70.8402 10.973 70.8877 10.9491 70.9307C10.9227 70.9729 10.8877 71.009 10.8463 71.0365C10.8049 71.0641 10.7581 71.0826 10.7091 71.0907Z" fill="#314F9C"/>
<path d="M13.1701 47.9307C13.1068 47.9298 13.0448 47.9125 12.9901 47.8807L0.460057 41.0007C0.326104 40.9151 0.214495 40.7988 0.134495 40.6614C0.0544953 40.524 0.00840442 40.3695 4.97882e-05 40.2107C-0.00228853 39.8554 0.077768 39.5043 0.233921 39.185C0.390074 38.8658 0.618085 38.5871 0.900059 38.3707L18.25 25.4407C18.4949 25.2467 18.6789 24.9864 18.7801 24.6907L26.5401 2.05074C26.6268 1.77673 26.7669 1.52257 26.9522 1.30289C27.1376 1.08322 27.3645 0.902369 27.6201 0.770744C27.7389 0.71464 27.8686 0.685547 28 0.685547C28.1315 0.685547 28.2612 0.71464 28.3801 0.770744C28.4275 0.787117 28.471 0.813234 28.5078 0.84742C28.5446 0.881606 28.5738 0.923109 28.5935 0.969254C28.6133 1.0154 28.6232 1.06516 28.6226 1.11536C28.622 1.16556 28.6109 1.21508 28.5901 1.26074C28.5715 1.30641 28.544 1.34791 28.5091 1.3828C28.4743 1.41768 28.4328 1.44525 28.3871 1.46388C28.3415 1.48251 28.2926 1.49183 28.2433 1.49129C28.194 1.49076 28.1453 1.48037 28.1001 1.46075C28.0448 1.44313 27.9854 1.44313 27.9301 1.46075C27.6022 1.64102 27.3581 1.94257 27.25 2.30074L19.4601 24.9307C19.3075 25.3683 19.0334 25.7533 18.6701 26.0407L1.32006 38.9707C1.14015 39.1119 0.993244 39.2906 0.889607 39.4944C0.78597 39.6982 0.7281 39.9222 0.720051 40.1507C0.720051 40.2507 0.720058 40.3207 0.790058 40.3407L13.3501 47.2207C13.4223 47.2619 13.479 47.3256 13.5115 47.4021C13.544 47.4786 13.5506 47.5637 13.5301 47.6442C13.5097 47.7248 13.4634 47.7964 13.3984 47.8482C13.3334 47.8999 13.2532 47.9289 13.1701 47.9307Z" fill="#314F9C"/>
<path d="M46.0402 11.7307C45.9532 11.7289 45.8694 11.6973 45.8029 11.6412C45.7364 11.5851 45.6912 11.5078 45.6748 11.4224C45.6584 11.3369 45.6718 11.2484 45.7128 11.1716C45.7539 11.0949 45.82 11.0346 45.9002 11.0007L54.0602 7.66071C54.1782 7.60803 54.306 7.58081 54.4352 7.58081C54.5644 7.58081 54.6922 7.60803 54.8102 7.66071C54.9014 7.70218 54.9725 7.77799 55.008 7.87162C55.0436 7.96525 55.0408 8.06915 55.0002 8.16071C54.9587 8.25188 54.8829 8.32299 54.7893 8.35857C54.6956 8.39415 54.5917 8.39133 54.5002 8.35071C54.5002 8.35071 54.4402 8.35071 54.3502 8.35071L46.1802 11.7007C46.1364 11.7212 46.0885 11.7314 46.0402 11.7307Z" fill="#314F9C"/>
<path d="M41.17 8.70091C41.1075 8.71579 41.0424 8.71579 40.98 8.70091L27.98 1.44091C27.8938 1.39184 27.8306 1.31054 27.8044 1.2149C27.7781 1.11926 27.7909 1.01711 27.84 0.930912C27.8891 0.844717 27.9703 0.781539 28.066 0.755284C28.1616 0.729029 28.2638 0.741848 28.35 0.790913L41.3 8.04091C41.343 8.06482 41.3809 8.09708 41.4114 8.13582C41.4418 8.17455 41.4642 8.21897 41.4772 8.26647C41.4903 8.31397 41.4937 8.36361 41.4873 8.41245C41.4809 8.46129 41.4648 8.50836 41.44 8.55091C41.4094 8.5949 41.3692 8.6313 41.3224 8.65731C41.2756 8.68331 41.2235 8.69823 41.17 8.70091Z" fill="#314F9C"/>
<path d="M67.5501 15.5908C67.4908 15.6041 67.4293 15.6041 67.3701 15.5908L54.4601 8.31079C54.4159 8.28794 54.3771 8.25622 54.3458 8.2176C54.3145 8.17899 54.2916 8.13433 54.2785 8.08642C54.2653 8.03852 54.2622 7.98841 54.2694 7.93925C54.2765 7.89009 54.2938 7.84295 54.3201 7.80079C54.344 7.75771 54.3762 7.71985 54.415 7.68942C54.4537 7.65898 54.4981 7.63659 54.5456 7.62355C54.5931 7.61051 54.6428 7.60709 54.6916 7.61348C54.7404 7.61988 54.7875 7.63596 54.8301 7.66079L67.7201 14.8908C67.7964 14.929 67.8572 14.9925 67.8921 15.0705C67.9269 15.1485 67.9338 15.2361 67.9114 15.3185C67.889 15.4009 67.8388 15.4731 67.7693 15.5227C67.6998 15.5723 67.6153 15.5964 67.5301 15.5908H67.5501Z" fill="#314F9C"/>
<path d="M23.62 78.3108C23.5576 78.3257 23.4925 78.3257 23.43 78.3108L10.53 71.0908C10.4573 71.0359 10.4067 70.9567 10.3875 70.8676C10.3682 70.7785 10.3817 70.6855 10.4253 70.6055C10.469 70.5255 10.5399 70.4638 10.6252 70.4318C10.7105 70.3997 10.8045 70.3994 10.89 70.4308L23.8 77.6608C23.8753 77.6989 23.9353 77.7615 23.9701 77.8383C24.005 77.9151 24.0125 78.0015 23.9915 78.0832C23.9705 78.1649 23.9222 78.2369 23.8546 78.2874C23.7871 78.3379 23.7043 78.3638 23.62 78.3608V78.3108Z" fill="#314F9C"/>
<path d="M27.7694 30.0409C27.7107 30.0587 27.6481 30.0587 27.5894 30.0409L18.9194 25.1809C18.8332 25.1318 18.7701 25.0505 18.7438 24.9549C18.7176 24.8593 18.7304 24.7571 18.7794 24.6709C18.8285 24.5847 18.9098 24.5215 19.0054 24.4953C19.1011 24.469 19.2032 24.4818 19.2894 24.5309L27.9594 29.3109C28.0358 29.3492 28.0966 29.4127 28.1314 29.4906C28.1663 29.5686 28.1731 29.6562 28.1508 29.7386C28.1284 29.821 28.0782 29.8932 28.0087 29.9428C27.9392 29.9924 27.8546 30.0165 27.7694 30.0109V30.0409Z" fill="#314F9C"/>
</svg>
