<svg width="76" height="57" viewBox="0 0 76 57" fill="none" xmlns="http://www.w3.org/2000/svg">
<path d="M44.0559 44.1556H31.8459C30.8459 44.1556 30.1059 43.6656 30.1059 43.0056V40.2856C30.1059 40.1756 29.8659 39.9755 29.4259 39.9055C27.1962 39.548 24.9967 39.0232 22.8459 38.3355C22.4104 38.1969 21.9385 38.2291 21.5259 38.4256L18.2059 40.3456C17.85 40.5281 17.4558 40.6233 17.0559 40.6233C16.6559 40.6233 16.2617 40.5281 15.9059 40.3456L7.24586 35.3456C7.08711 35.2599 6.95449 35.1328 6.86206 34.9779C6.76963 34.823 6.72083 34.6459 6.72083 34.4655C6.72083 34.2851 6.76963 34.1081 6.86206 33.9532C6.95449 33.7983 7.08711 33.6712 7.24586 33.5855L10.5859 31.6656C10.7159 31.5856 10.7759 31.5056 10.7859 31.4556C10.7754 31.4013 10.7473 31.3521 10.7059 31.3156C9.58389 30.1956 8.63965 28.9108 7.90585 27.5056C7.78094 27.3688 7.62462 27.2646 7.45038 27.2019C7.27614 27.1391 7.08924 27.1198 6.90585 27.1456H2.23586C1.23586 27.1456 0.505859 26.6456 0.505859 25.9856V18.9055C0.505859 18.2455 1.25586 17.7455 2.23586 17.7455H6.94585C7.12924 17.7713 7.31614 17.7519 7.49038 17.6892C7.66462 17.6265 7.82095 17.5223 7.94585 17.3856C8.64912 15.9609 9.56642 14.6524 10.6659 13.5056C10.6659 13.5056 10.7459 13.4155 10.7359 13.3655C10.7259 13.3155 10.6759 13.2355 10.5359 13.1555L7.21586 11.2356C7.04497 11.1589 6.89905 11.0357 6.79474 10.8801C6.69043 10.7245 6.63191 10.5428 6.62585 10.3556C6.63935 10.1703 6.70084 9.9917 6.80429 9.8374C6.90774 9.6831 7.04959 9.5584 7.21586 9.47556L15.8759 4.47556C16.23 4.29312 16.6225 4.19794 17.0209 4.19794C17.4192 4.19794 17.8118 4.29312 18.1659 4.47556L21.4959 6.39557C21.7023 6.50269 21.928 6.56757 22.1598 6.58646C22.3916 6.60534 22.6248 6.57784 22.8459 6.50555C24.9934 5.81836 27.1896 5.29354 29.4159 4.93555C29.8559 4.86555 30.0959 4.66554 30.0959 4.55554V1.83554C30.0959 1.17554 30.8459 0.685547 31.8359 0.685547H44.0859C45.0859 0.685547 45.8159 1.17554 45.8159 1.83554V4.50555C45.8159 4.59555 46.0259 4.80556 46.5059 4.88556C48.729 5.24248 50.922 5.76732 53.0659 6.45557C53.5046 6.59485 53.9799 6.56266 54.3959 6.36554L57.7159 4.44556C58.07 4.26312 58.4625 4.16794 58.8609 4.16794C59.2592 4.16794 59.6518 4.26312 60.0059 4.44556L68.6759 9.44556C68.8346 9.53124 68.9672 9.65828 69.0596 9.8132C69.1521 9.96812 69.2009 10.1452 69.2009 10.3256C69.2009 10.506 69.1521 10.683 69.0596 10.8379C68.9672 10.9928 68.8346 11.1199 68.6759 11.2056L65.3459 13.1255C65.2159 13.2055 65.1559 13.2855 65.1459 13.3355C65.1359 13.3855 65.1459 13.4456 65.2259 13.4756C66.3378 14.6135 67.2686 15.9153 67.9859 17.3355C68.1108 17.4723 68.2671 17.5765 68.4413 17.6392C68.6156 17.7019 68.8025 17.7213 68.9859 17.6956H73.6859C74.2144 17.6683 74.7322 17.8517 75.1259 18.2056C75.2154 18.2889 75.2872 18.3894 75.337 18.501C75.3869 18.6127 75.4137 18.7333 75.4159 18.8556V25.9355C75.4159 26.5955 74.6758 27.0956 73.6859 27.0956H68.9859C68.8025 27.0698 68.6156 27.0892 68.4413 27.1519C68.2671 27.2146 68.1108 27.3189 67.9859 27.4556C67.2686 28.8758 66.3378 30.1776 65.2259 31.3156C65.2035 31.3321 65.1849 31.353 65.1711 31.3771C65.1574 31.4012 65.1488 31.428 65.1459 31.4556C65.1459 31.5056 65.2159 31.5856 65.3559 31.6656L68.6759 33.5855C68.8449 33.6637 68.9887 33.7875 69.0912 33.9429C69.1937 34.0984 69.2507 34.2794 69.2559 34.4655C69.2453 34.6503 69.1861 34.8291 69.0843 34.9836C68.9824 35.1382 68.8415 35.263 68.6759 35.3456L60.0059 40.3456C59.6518 40.528 59.2592 40.6232 58.8609 40.6232C58.4625 40.6232 58.07 40.528 57.7159 40.3456L54.3859 38.4256C53.9735 38.2281 53.5012 38.1959 53.0659 38.3355C50.922 39.0238 48.729 39.5486 46.5059 39.9055C46.0659 39.9755 45.8159 40.1756 45.8159 40.2856V43.0056C45.7859 43.6656 45.0459 44.1556 44.0559 44.1556ZM22.2559 37.5056C22.5238 37.5048 22.7902 37.5452 23.0459 37.6255C25.1594 38.2933 27.3184 38.808 29.5059 39.1656C30.2959 39.2956 30.8159 39.7456 30.8159 40.2856V43.0056C30.8159 43.1456 31.1959 43.4056 31.8159 43.4056H44.0659C44.6759 43.4056 45.0659 43.1456 45.0659 43.0056V40.2856C45.0659 39.7456 45.5959 39.2856 46.3759 39.1656C48.5636 38.8091 50.7226 38.2944 52.8359 37.6255C53.1515 37.5215 53.4846 37.4813 53.8159 37.507C54.1472 37.5328 54.4701 37.624 54.7659 37.7755L58.0959 39.6956C58.3353 39.8137 58.5988 39.8752 58.8659 39.8752C59.1329 39.8752 59.3964 39.8137 59.6359 39.6956L68.2959 34.6956C68.4559 34.6056 68.5059 34.5155 68.5059 34.4655C68.5059 34.4155 68.5059 34.3256 68.2959 34.2356L64.9759 32.3156C64.8265 32.247 64.6964 32.1427 64.597 32.0119C64.4976 31.8811 64.4319 31.7278 64.4059 31.5656C64.3874 31.4242 64.4033 31.2804 64.452 31.1464C64.5007 31.0124 64.5809 30.8921 64.6859 30.7956C65.7427 29.7119 66.6294 28.4746 67.3159 27.1255C67.4909 26.8595 67.7352 26.6463 68.0224 26.5089C68.3096 26.3714 68.6289 26.315 68.9459 26.3456H73.6459C74.2559 26.3456 74.6459 26.0755 74.6459 25.9355V18.8556C74.644 18.8316 74.6367 18.8083 74.6246 18.7876C74.6124 18.7668 74.5958 18.749 74.5759 18.7356C74.3194 18.5287 73.9948 18.4252 73.6659 18.4456H68.9659C68.6489 18.4761 68.3296 18.4197 68.0424 18.2822C67.7552 18.1448 67.5109 17.9316 67.3359 17.6656C66.6494 16.3165 65.7627 15.0792 64.7059 13.9955C64.6009 13.899 64.5207 13.7787 64.472 13.6447C64.4233 13.5107 64.4074 13.3669 64.4259 13.2256C64.4519 13.0633 64.5176 12.91 64.617 12.7792C64.7164 12.6484 64.8465 12.5441 64.9958 12.4756L68.3259 10.5555C68.4759 10.4655 68.5359 10.3756 68.5359 10.3256C68.5359 10.2756 68.4759 10.1856 68.3159 10.0956L59.6559 5.09555C59.4164 4.97737 59.1529 4.91589 58.8859 4.91589C58.6188 4.91589 58.3553 4.97737 58.1159 5.09555L54.7859 7.01556C54.1872 7.3173 53.4939 7.37119 52.8559 7.16556C50.7426 6.49671 48.5836 5.98202 46.3959 5.62555C45.6159 5.49555 45.0859 5.04555 45.0859 4.50555V1.78555C45.0859 1.64555 44.7159 1.38556 44.0859 1.38556H31.8459C31.2359 1.38556 30.8459 1.64555 30.8459 1.78555V4.50555C30.8459 5.04555 30.3259 5.50555 29.5359 5.62555C27.3486 5.9843 25.1897 6.49895 23.0759 7.16556C22.762 7.26985 22.4304 7.31031 22.1007 7.28455C21.771 7.25879 21.4497 7.16733 21.1559 7.01556L17.8459 5.09555C17.6064 4.97737 17.3429 4.91589 17.0759 4.91589C16.8088 4.91589 16.5453 4.97737 16.3059 5.09555L7.63586 10.0956C7.48586 10.1856 7.42586 10.2756 7.42586 10.3256C7.42586 10.3756 7.48586 10.4655 7.63586 10.5555L10.9159 12.5056C11.0605 12.5806 11.1866 12.6867 11.2852 12.8164C11.3838 12.9461 11.4523 13.0961 11.4859 13.2556C11.5018 13.3968 11.4849 13.5398 11.4363 13.6734C11.3877 13.807 11.3088 13.9276 11.2059 14.0255C10.1463 15.1069 9.25926 16.3447 8.57586 17.6956C8.40005 17.9608 8.15562 18.1733 7.8686 18.3107C7.58157 18.448 7.26268 18.505 6.94585 18.4756H2.23586C1.63586 18.4756 1.23586 18.7456 1.23586 18.8856V25.9655C1.23586 26.1055 1.61586 26.3755 2.23586 26.3755H6.94585C7.26268 26.3461 7.58157 26.4031 7.8686 26.5404C8.15562 26.6778 8.40005 26.8903 8.57586 27.1555C9.25926 28.5064 10.1463 29.7442 11.2059 30.8256C11.3101 30.9226 11.3899 31.043 11.4386 31.1768C11.4872 31.3107 11.5034 31.4542 11.4859 31.5956C11.4544 31.7558 11.3866 31.9067 11.2878 32.0367C11.189 32.1667 11.0618 32.2723 10.9159 32.3456L7.58585 34.2656C7.43585 34.3556 7.37585 34.4455 7.37585 34.4955C7.37585 34.5455 7.43585 34.6356 7.58585 34.7256L16.2559 39.7256C16.4953 39.8437 16.7588 39.9052 17.0259 39.9052C17.2929 39.9052 17.5564 39.8437 17.7959 39.7256L21.1259 37.8055C21.4704 37.6099 21.8596 37.5066 22.2559 37.5056Z" fill="#314F9C"/>
<path d="M73.6143 39.0556H68.9143C68.8253 39.041 68.7444 38.9953 68.6861 38.9266C68.6277 38.8579 68.5957 38.7707 68.5957 38.6806C68.5957 38.5905 68.6277 38.5033 68.6861 38.4346C68.7444 38.3659 68.8253 38.3202 68.9143 38.3056H73.6143C74.2243 38.3056 74.6143 38.0456 74.6143 37.8956V25.8956C74.6143 25.7948 74.6543 25.6982 74.7256 25.6269C74.7968 25.5557 74.8935 25.5156 74.9943 25.5156C75.0437 25.5156 75.0927 25.5255 75.1382 25.5447C75.1838 25.5639 75.225 25.5921 75.2595 25.6275C75.294 25.6629 75.321 25.7049 75.339 25.7509C75.357 25.797 75.3656 25.8462 75.3643 25.8956V37.8956C75.3443 38.5556 74.6043 39.0556 73.6143 39.0556Z" fill="#314F9C"/>
<path d="M44.0543 56.1258H31.8443C30.8443 56.1258 30.1043 55.6258 30.1043 54.9658V52.2558C30.1043 52.1458 29.8643 51.9458 29.4243 51.8758C27.1966 51.5086 24.9978 50.9839 22.8443 50.3057C22.4088 50.1671 21.9369 50.1993 21.5243 50.3958L18.2043 52.3158C17.8484 52.4983 17.4542 52.5935 17.0543 52.5935C16.6544 52.5935 16.2602 52.4983 15.9043 52.3158L7.2443 47.3158C7.07489 47.2398 6.92996 47.1182 6.82576 46.9646C6.72156 46.8109 6.66219 46.6312 6.6543 46.4458C6.65426 46.3467 6.69292 46.2515 6.76204 46.1805C6.83115 46.1095 6.92526 46.0684 7.0243 46.0658C7.12163 46.0683 7.21428 46.1081 7.28313 46.1769C7.35197 46.2457 7.39177 46.3384 7.3943 46.4357C7.3943 46.4857 7.4543 46.5757 7.6043 46.6657L16.2743 51.6657C16.515 51.7796 16.778 51.8388 17.0443 51.8388C17.3106 51.8388 17.5736 51.7796 17.8143 51.6657L21.1443 49.7457C21.7382 49.4413 22.4282 49.3838 23.0643 49.5858C25.1766 50.2604 27.3358 50.7785 29.5243 51.1358C30.3143 51.2558 30.8343 51.7158 30.8343 52.2558V54.9658C30.8343 55.1058 31.2143 55.3758 31.8343 55.3758H44.0843C44.6943 55.3758 45.0843 55.1058 45.0843 54.9658V52.2558C45.0843 51.7158 45.6143 51.2558 46.3943 51.1358C48.5832 50.7808 50.7426 50.2627 52.8543 49.5858C53.493 49.3855 54.1843 49.4392 54.7843 49.7357L58.1143 51.6657C58.3538 51.7839 58.6172 51.8454 58.8843 51.8454C59.1514 51.8454 59.4148 51.7839 59.6543 51.6657L68.3143 46.6657C68.4543 46.5857 68.5443 46.4957 68.5243 46.4257C68.5067 46.3277 68.5282 46.2267 68.5843 46.1444C68.6404 46.0621 68.7266 46.0051 68.8243 45.9857C68.9223 45.9681 69.0233 45.9897 69.1056 46.0458C69.1879 46.1019 69.2449 46.1881 69.2643 46.2858C69.2839 46.4909 69.2396 46.697 69.1376 46.876C69.0356 47.055 68.8808 47.1981 68.6943 47.2858L60.0243 52.2858C59.6702 52.4682 59.2776 52.5634 58.8793 52.5634C58.481 52.5634 58.0884 52.4682 57.7343 52.2858L54.4043 50.3557C53.9917 50.1574 53.5178 50.1288 53.0843 50.2758C50.9378 50.9547 48.7456 51.4793 46.5243 51.8458C46.0843 51.9158 45.8343 52.1157 45.8343 52.2257V54.9357C45.7843 55.6257 45.0443 56.1258 44.0543 56.1258Z" fill="#314F9C"/>
<path d="M6.94499 39.0555H2.235C1.235 39.0555 0.505 38.5556 0.505 37.8956V25.8956C0.496091 25.8412 0.499113 25.7855 0.513858 25.7324C0.528603 25.6793 0.554715 25.6301 0.590388 25.5881C0.626062 25.5461 0.670439 25.5124 0.720447 25.4892C0.770455 25.4661 0.8249 25.4541 0.88 25.4541C0.9351 25.4541 0.989538 25.4661 1.03955 25.4892C1.08955 25.5124 1.13393 25.5461 1.1696 25.5881C1.20528 25.6301 1.23139 25.6793 1.24613 25.7324C1.26088 25.7855 1.26391 25.8412 1.255 25.8956V37.8956C1.255 38.0456 1.635 38.3055 2.255 38.3055H6.94499C7.03394 38.3201 7.11481 38.3658 7.17317 38.4345C7.23152 38.5032 7.26355 38.5904 7.26355 38.6805C7.26355 38.7707 7.23152 38.8579 7.17317 38.9266C7.11481 38.9953 7.03394 39.041 6.94499 39.0555Z" fill="#314F9C"/>
<path d="M52.8457 31.3655C52.7801 31.3659 52.7156 31.3485 52.6592 31.3151C52.6028 31.2816 52.5567 31.2333 52.5257 31.1755C52.4991 31.1339 52.4812 31.0873 52.4734 31.0386C52.4655 30.9899 52.4677 30.9401 52.4799 30.8922C52.4921 30.8444 52.514 30.7996 52.5442 30.7606C52.5745 30.7216 52.6124 30.6892 52.6557 30.6655C56.5157 28.4355 58.6557 25.5055 58.6557 22.3955C58.6557 19.2855 56.5357 16.3955 52.6557 14.1255C52.6124 14.1017 52.5745 14.0694 52.5442 14.0304C52.514 13.9914 52.4921 13.9466 52.4799 13.8987C52.4677 13.8509 52.4655 13.8011 52.4734 13.7523C52.4812 13.7036 52.4991 13.657 52.5257 13.6155C52.5496 13.5724 52.5819 13.5345 52.6206 13.5041C52.6593 13.4737 52.7038 13.4513 52.7513 13.4382C52.7988 13.4252 52.8484 13.4218 52.8972 13.4282C52.9461 13.4346 52.9932 13.4507 53.0357 13.4755C57.1257 15.8455 59.3857 19.0055 59.3857 22.3955C59.3857 25.7855 57.1257 28.9455 53.0357 31.3155C52.9768 31.3459 52.9119 31.363 52.8457 31.3655Z" fill="#314F9C"/>
<path d="M16.8942 22.2755C16.8447 22.273 16.7962 22.2605 16.7516 22.2389C16.707 22.2173 16.6672 22.1869 16.6345 22.1496C16.6019 22.1123 16.5771 22.0688 16.5615 22.0217C16.546 21.9746 16.5401 21.9249 16.5442 21.8755C16.7742 18.6855 19.0242 15.7055 22.8842 13.4755C22.9268 13.4507 22.9739 13.4346 23.0227 13.4282C23.0715 13.4218 23.1212 13.4252 23.1687 13.4382C23.2162 13.4513 23.2606 13.4737 23.2993 13.5041C23.3381 13.5345 23.3703 13.5724 23.3942 13.6155C23.4191 13.658 23.4351 13.7051 23.4415 13.754C23.4479 13.8028 23.4445 13.8524 23.4315 13.8999C23.4184 13.9474 23.396 13.9918 23.3656 14.0306C23.3352 14.0693 23.2973 14.1016 23.2542 14.1255C19.6142 16.2255 17.5042 18.9955 17.2542 21.9255C17.2492 22.0184 17.2094 22.106 17.1427 22.1709C17.076 22.2358 16.9873 22.2731 16.8942 22.2755Z" fill="#314F9C"/>
<path d="M37.9253 32.1856C33.8407 32.2659 29.8033 31.3021 26.1953 29.3856C22.9953 27.5356 21.1953 25.0556 21.1953 22.3856C21.1953 19.7156 22.9553 17.2456 26.1953 15.3856C32.6653 11.6556 43.1953 11.6556 49.6553 15.3856C52.8653 17.2356 54.6553 19.7156 54.6553 22.3856C54.6553 25.0556 52.8953 27.5256 49.6553 29.3856C46.0483 31.3046 42.0102 32.2685 37.9253 32.1856ZM37.9253 13.3456C33.9728 13.2663 30.0657 14.1992 26.5753 16.0556C23.5753 17.7656 21.9853 20.0556 21.9853 22.3956C21.9853 24.7356 23.6153 27.0256 26.5753 28.7356C32.8353 32.3456 43.0253 32.3456 49.2853 28.7356C52.2853 27.0256 53.8753 24.7356 53.8753 22.3956C53.8753 20.0556 52.2453 17.7656 49.2853 16.0556C45.7918 14.198 41.8812 13.265 37.9253 13.3456Z" fill="#314F9C"/>
<path d="M23.8447 27.5056C23.7944 27.5077 23.7443 27.499 23.6977 27.48C23.6511 27.461 23.6091 27.4322 23.5747 27.3956C23.5393 27.3611 23.5112 27.3199 23.492 27.2744C23.4728 27.2288 23.4629 27.18 23.4629 27.1306C23.4629 27.0812 23.4728 27.0323 23.492 26.9868C23.5112 26.9412 23.5393 26.9 23.5747 26.8655C24.3738 26.0855 25.2714 25.4132 26.2447 24.8655C32.7147 21.1255 43.2447 21.1255 49.7047 24.8655C50.6815 25.4123 51.5825 26.0847 52.3847 26.8655C52.4514 26.9376 52.4885 27.0323 52.4885 27.1306C52.4885 27.2288 52.4514 27.3235 52.3847 27.3956C52.3502 27.431 52.309 27.459 52.2635 27.4782C52.218 27.4974 52.1691 27.5073 52.1197 27.5073C52.0703 27.5073 52.0214 27.4974 51.9759 27.4782C51.9304 27.459 51.8891 27.431 51.8547 27.3956C51.0989 26.6633 50.2519 26.0314 49.3347 25.5156C43.0747 21.8956 32.8847 21.8956 26.6247 25.5156C25.7032 26.0289 24.8555 26.6647 24.1047 27.4056C24.0343 27.4715 23.9411 27.5074 23.8447 27.5056Z" fill="#314F9C"/>
<path d="M7.005 16.4055C6.90422 16.4055 6.80756 16.3655 6.7363 16.2943C6.66503 16.223 6.625 16.1263 6.625 16.0255V10.3156C6.625 10.2148 6.66503 10.1181 6.7363 10.0468C6.80756 9.97558 6.90422 9.93555 7.005 9.93555C7.05445 9.93553 7.10339 9.94541 7.14894 9.96463C7.1945 9.98385 7.23574 10.012 7.27023 10.0474C7.30472 10.0828 7.33177 10.1248 7.34976 10.1709C7.36776 10.2169 7.37634 10.2661 7.375 10.3156V16.0255C7.37634 16.075 7.36776 16.1242 7.34976 16.1702C7.33177 16.2163 7.30472 16.2582 7.27023 16.2937C7.23574 16.3291 7.1945 16.3572 7.14894 16.3765C7.10339 16.3957 7.05445 16.4056 7.005 16.4055Z" fill="#314F9C"/>
<path d="M68.8459 16.4057C68.7452 16.4057 68.6485 16.3657 68.5772 16.2944C68.506 16.2231 68.4659 16.1265 68.4659 16.0257V10.3157C68.457 10.2613 68.4601 10.2057 68.4748 10.1526C68.4895 10.0995 68.5157 10.0502 68.5513 10.0082C68.587 9.96625 68.6314 9.93253 68.6814 9.90939C68.7314 9.88626 68.7858 9.87427 68.8409 9.87427C68.896 9.87427 68.9505 9.88626 69.0005 9.90939C69.0505 9.93253 69.0949 9.96625 69.1305 10.0082C69.1662 10.0502 69.1923 10.0995 69.2071 10.1526C69.2218 10.2057 69.2248 10.2613 69.2159 10.3157V16.0257C69.216 16.1248 69.1773 16.2199 69.1082 16.2909C69.0391 16.3619 68.945 16.4031 68.8459 16.4057Z" fill="#314F9C"/>
<path d="M45.4143 52.6257C45.3152 52.6257 45.22 52.5871 45.1491 52.5179C45.0781 52.4488 45.0369 52.3547 45.0343 52.2557V43.0057C45.0254 42.9513 45.0284 42.8956 45.0432 42.8425C45.0579 42.7894 45.084 42.7402 45.1197 42.6982C45.1554 42.6562 45.1997 42.6225 45.2497 42.5994C45.2998 42.5762 45.3542 42.5642 45.4093 42.5642C45.4644 42.5642 45.5188 42.5762 45.5688 42.5994C45.6189 42.6225 45.6632 42.6562 45.6989 42.6982C45.7346 42.7402 45.7607 42.7894 45.7754 42.8425C45.7902 42.8956 45.7932 42.9513 45.7843 43.0057V52.2557C45.7818 52.353 45.742 52.4457 45.6731 52.5145C45.6043 52.5834 45.5116 52.6231 45.4143 52.6257Z" fill="#314F9C"/>
<path d="M30.4445 52.6257C30.3454 52.6258 30.2502 52.5871 30.1792 52.518C30.1082 52.4489 30.0671 52.3548 30.0645 52.2557V43.0057C30.0645 42.905 30.1045 42.8083 30.1758 42.7371C30.247 42.6658 30.3437 42.6257 30.4445 42.6257C30.4939 42.6257 30.5428 42.6356 30.5884 42.6548C30.6339 42.6741 30.6752 42.7022 30.7097 42.7376C30.7442 42.773 30.7712 42.815 30.7892 42.8611C30.8072 42.9071 30.8158 42.9563 30.8145 43.0057V52.2557C30.8145 52.3043 30.8049 52.3524 30.7863 52.3973C30.7677 52.4422 30.7404 52.483 30.7061 52.5174C30.6717 52.5518 30.6309 52.579 30.586 52.5976C30.5412 52.6162 30.493 52.6257 30.4445 52.6257Z" fill="#314F9C"/>
<path d="M17.9855 49.4055C17.8864 49.4056 17.7912 49.3669 17.7202 49.2978C17.6493 49.2286 17.6081 49.1346 17.6055 49.0356V40.0355C17.6055 39.9347 17.6455 39.8381 17.7168 39.7668C17.788 39.6956 17.8847 39.6555 17.9855 39.6555C18.0349 39.6555 18.0839 39.6654 18.1294 39.6846C18.175 39.7038 18.2162 39.732 18.2507 39.7674C18.2852 39.8028 18.3122 39.8448 18.3302 39.8909C18.3482 39.9369 18.3568 39.9861 18.3555 40.0355V49.0356C18.3555 49.1337 18.3165 49.2278 18.2471 49.2971C18.1777 49.3665 18.0836 49.4055 17.9855 49.4055Z" fill="#314F9C"/>
<path d="M7.0049 46.8357C6.90677 46.8357 6.81266 46.7967 6.74327 46.7273C6.67388 46.6579 6.6349 46.5639 6.6349 46.4657V34.4657C6.63356 34.4163 6.64214 34.3671 6.66014 34.321C6.67813 34.275 6.70518 34.233 6.73967 34.1976C6.77416 34.1622 6.8154 34.134 6.86096 34.1148C6.90651 34.0956 6.95546 34.0857 7.0049 34.0857C7.10569 34.0857 7.20234 34.1257 7.2736 34.197C7.34487 34.2683 7.3849 34.3649 7.3849 34.4657V46.4657C7.38229 46.5648 7.34111 46.6588 7.27012 46.7279C7.19914 46.7971 7.10398 46.8358 7.0049 46.8357Z" fill="#314F9C"/>
<path d="M68.8459 46.7155C68.7965 46.7169 68.7473 46.7082 68.7013 46.6902C68.6552 46.6723 68.6133 46.6452 68.5778 46.6107C68.5424 46.5762 68.5143 46.535 68.495 46.4894C68.4758 46.4439 68.4659 46.395 68.4659 46.3455V34.3455C68.457 34.2911 68.4601 34.2355 68.4748 34.1824C68.4895 34.1293 68.5157 34.08 68.5513 34.038C68.587 33.996 68.6314 33.9623 68.6814 33.9392C68.7314 33.916 68.7858 33.9041 68.8409 33.9041C68.896 33.9041 68.9505 33.916 69.0005 33.9392C69.0505 33.9623 69.0949 33.996 69.1305 34.038C69.1662 34.08 69.1923 34.1293 69.2071 34.1824C69.2218 34.2355 69.2248 34.2911 69.2159 34.3455V46.3455C69.2159 46.3941 69.2064 46.4422 69.1878 46.4871C69.1692 46.532 69.1419 46.5728 69.1076 46.6071C69.0732 46.6415 69.0324 46.6687 68.9875 46.6873C68.9426 46.7059 68.8945 46.7155 68.8459 46.7155Z" fill="#314F9C"/>
<path d="M52.9249 50.3157C52.8755 50.317 52.8263 50.3084 52.7803 50.2904C52.7342 50.2724 52.6922 50.2454 52.6568 50.2109C52.6214 50.1764 52.5932 50.1352 52.574 50.0896C52.5548 50.044 52.5449 49.9951 52.5449 49.9457V40.6857C52.5449 40.5849 52.585 40.4882 52.6562 40.417C52.7275 40.3457 52.8241 40.3057 52.9249 40.3057C52.9744 40.3056 53.0233 40.3156 53.0689 40.3348C53.1144 40.354 53.1557 40.3821 53.1902 40.4176C53.2246 40.453 53.2517 40.495 53.2697 40.541C53.2877 40.5871 53.2963 40.6362 53.2949 40.6857V49.9457C53.2963 49.9946 53.2877 50.0434 53.2696 50.0889C53.2515 50.1344 53.2243 50.1758 53.1896 50.2104C53.155 50.245 53.1137 50.2722 53.0681 50.2903C53.0226 50.3084 52.9739 50.3171 52.9249 50.3157Z" fill="#314F9C"/>
</svg>
