<svg width="77" height="78" viewBox="0 0 77 78" fill="none" xmlns="http://www.w3.org/2000/svg">
<path d="M49.5392 69.9389C42.5392 69.9389 35.5992 68.4089 30.2992 65.3389C25.8492 62.7689 23.1192 59.4989 22.3992 55.8589C22.39 55.811 22.3904 55.7617 22.4002 55.7139C22.4101 55.6661 22.4292 55.6207 22.4566 55.5803C22.484 55.5399 22.5191 55.5053 22.5599 55.4785C22.6006 55.4516 22.6463 55.4331 22.6942 55.4239C22.7422 55.4147 22.7914 55.415 22.8392 55.4249C22.887 55.4347 22.9324 55.4539 22.9728 55.4813C23.0132 55.5087 23.0478 55.5438 23.0747 55.5845C23.1015 55.6253 23.12 55.6709 23.1292 55.7189C23.8092 59.1289 26.4192 62.2289 30.6692 64.7189C41.0792 70.7189 57.9992 70.7189 68.4092 64.7189C73.0092 62.0689 75.7292 58.5589 76.0792 54.8489C76.3792 51.6089 74.8092 48.3389 71.6592 45.6489C71.5925 45.5768 71.5554 45.4821 71.5554 45.3839C71.5554 45.2856 71.5925 45.191 71.6592 45.1189C71.6937 45.0835 71.7349 45.0554 71.7804 45.0362C71.8259 45.017 71.8748 45.0071 71.9242 45.0071C71.9736 45.0071 72.0225 45.017 72.068 45.0362C72.1136 45.0554 72.1548 45.0835 72.1892 45.1189C75.5292 47.9789 77.1892 51.4689 76.8592 54.9589C76.4892 58.9589 73.6392 62.6289 68.8592 65.4089C63.4792 68.3789 56.5092 69.9389 49.5392 69.9389Z" fill="#314F9C"/>
<path d="M49.5407 77.8089C42.5407 77.8089 35.6007 76.2789 30.3007 73.2189C25.0007 70.1589 22.2207 66.2189 22.2207 61.8889V55.6189C22.2207 55.5208 22.2597 55.4267 22.3291 55.3573C22.3985 55.2879 22.4926 55.2489 22.5907 55.2489C22.6898 55.2489 22.7849 55.2876 22.8559 55.3567C22.9269 55.4258 22.9681 55.5199 22.9707 55.6189V61.9389C22.9707 65.9389 25.7007 69.7489 30.6707 72.6189C41.0807 78.6189 58.0007 78.6189 68.4107 72.6189C73.4107 69.7489 76.1107 65.9589 76.1107 61.9389V54.1189C76.1018 54.0646 76.1048 54.0089 76.1196 53.9558C76.1343 53.9027 76.1604 53.8535 76.1961 53.8115C76.2318 53.7695 76.2761 53.7358 76.3261 53.7126C76.3762 53.6895 76.4306 53.6775 76.4857 53.6775C76.5408 53.6775 76.5952 53.6895 76.6453 53.7126C76.6953 53.7358 76.7396 53.7695 76.7753 53.8115C76.811 53.8535 76.8371 53.9027 76.8518 53.9558C76.8666 54.0089 76.8696 54.0646 76.8607 54.1189V61.9389C76.8607 66.2289 73.9907 70.2589 68.7807 73.2689C63.5707 76.2789 56.5107 77.8089 49.5407 77.8089Z" fill="#314F9C"/>
<path d="M49.63 67.289C49.5292 67.289 49.4326 67.249 49.3613 67.1777C49.29 67.1064 49.25 67.0098 49.25 66.909C49.25 66.8595 49.2599 66.8106 49.2791 66.765C49.2983 66.7195 49.3265 66.6782 49.3619 66.6438C49.3973 66.6093 49.4393 66.5822 49.4853 66.5642C49.5314 66.5462 49.5806 66.5377 49.63 66.539C55.044 66.6366 60.3932 65.3492 65.17 62.799C65.2126 62.7741 65.2596 62.7581 65.3085 62.7517C65.3573 62.7453 65.4069 62.7487 65.4544 62.7617C65.5019 62.7748 65.5464 62.7972 65.5851 62.8276C65.6238 62.8581 65.6561 62.8959 65.68 62.939C65.7048 62.9815 65.7209 63.0286 65.7273 63.0774C65.7337 63.1263 65.7303 63.1759 65.7172 63.2234C65.7042 63.2709 65.6818 63.3153 65.6514 63.3541C65.6209 63.3928 65.5831 63.4251 65.54 63.449C60.6506 66.064 55.1739 67.3858 49.63 67.289Z" fill="#314F9C"/>
<path d="M44.9906 54.9389C37.9206 54.9389 30.9906 53.3489 25.7206 50.3289C20.4506 47.3089 17.6406 43.3289 17.6406 39.0089C17.6406 34.6889 20.5106 30.6889 25.7206 27.6789C36.3306 21.5589 53.5906 21.5589 64.2006 27.6789C69.4106 30.6789 72.2806 34.6789 72.2806 39.0089C72.2806 43.3389 69.4106 47.3189 64.2006 50.3289C63.4606 50.7589 62.6706 51.1689 61.8506 51.5489C61.7588 51.5869 61.6559 51.5884 61.5629 51.5531C61.47 51.5178 61.394 51.4483 61.3506 51.3589C61.3098 51.27 61.3058 51.1686 61.3395 51.0767C61.3732 50.9849 61.4419 50.9102 61.5306 50.8689C62.3306 50.4989 63.1006 50.0989 63.8306 49.6789C68.8306 46.8189 71.5306 43.0189 71.5306 39.0089C71.5306 34.9989 68.8006 31.1989 63.8306 28.3289C53.4306 22.3289 36.5006 22.3289 26.0906 28.3289C21.0906 31.1989 18.3906 34.9889 18.3906 39.0089C18.3906 43.0289 21.1206 46.8189 26.0906 49.6789C34.0906 54.3089 46.3606 55.5089 56.5806 52.6789C56.6761 52.6523 56.7782 52.6648 56.8645 52.7136C56.9507 52.7624 57.0141 52.8434 57.0406 52.9389C57.0671 53.0344 57.0546 53.1365 57.0059 53.2227C56.9571 53.309 56.8761 53.3723 56.7806 53.3989C52.9381 54.442 48.9721 54.96 44.9906 54.9389Z" fill="#314F9C"/>
<path d="M44.9598 62.8589C37.9598 62.8589 31.0198 61.3289 25.7198 58.2689C20.4198 55.2089 17.6398 51.2689 17.6398 46.9389V39.0489C17.6309 38.9945 17.6339 38.9388 17.6486 38.8857C17.6634 38.8327 17.6895 38.7834 17.7252 38.7414C17.7608 38.6994 17.8052 38.6657 17.8552 38.6425C17.9052 38.6194 17.9597 38.6074 18.0148 38.6074C18.0699 38.6074 18.1243 38.6194 18.1743 38.6425C18.2243 38.6657 18.2687 38.6994 18.3044 38.7414C18.3401 38.7834 18.3662 38.8327 18.3809 38.8857C18.3957 38.9388 18.3987 38.9945 18.3898 39.0489V46.9389C18.3898 50.9389 21.1198 54.7489 26.0898 57.6189C36.4998 63.6189 53.4198 63.6189 63.8298 57.6189C68.8298 54.7489 71.5298 50.9589 71.5298 46.9389V39.1189C71.5298 39.0181 71.5698 38.9214 71.6411 38.8502C71.7123 38.7789 71.809 38.7389 71.9098 38.7389C71.9592 38.7388 72.0082 38.7488 72.0537 38.768C72.0993 38.7872 72.1405 38.8153 72.175 38.8508C72.2095 38.8862 72.2365 38.9282 72.2545 38.9742C72.2725 39.0203 72.2811 39.0694 72.2798 39.1189V46.9389C72.2798 51.2389 69.4098 55.2589 64.1998 58.2689C58.9898 61.2789 51.9298 62.8589 44.9598 62.8589Z" fill="#314F9C"/>
<path d="M54.0605 46.1891C53.9943 46.1866 53.9294 46.1696 53.8705 46.1391L50.2905 44.0691C50.2043 44.02 50.1412 43.9387 50.1149 43.8431C50.0886 43.7474 50.1015 43.6453 50.1505 43.5591C50.1996 43.4729 50.2809 43.4097 50.3765 43.3835C50.4722 43.3572 50.5743 43.37 50.6605 43.4191L54.2505 45.4891C54.2936 45.513 54.3315 45.5453 54.3619 45.584C54.3923 45.6227 54.4147 45.6672 54.4278 45.7147C54.4408 45.7622 54.4442 45.8118 54.4378 45.8606C54.4314 45.9095 54.4154 45.9565 54.3905 45.9991C54.3563 46.0563 54.3081 46.1038 54.2503 46.1371C54.1925 46.1703 54.1272 46.1883 54.0605 46.1891Z" fill="#314F9C"/>
<path d="M56.6802 44.679C56.614 44.6765 56.5491 44.6594 56.4902 44.629L52.9102 42.559C52.8245 42.5069 52.7621 42.4239 52.7361 42.327C52.71 42.2302 52.7222 42.127 52.7702 42.039C52.822 41.9557 52.904 41.8956 52.9991 41.8714C53.0941 41.8472 53.1949 41.8606 53.2802 41.909L56.8702 43.979C56.9133 44.0029 56.9512 44.0352 56.9816 44.0739C57.012 44.1126 57.0344 44.157 57.0475 44.2046C57.0605 44.2521 57.0639 44.3017 57.0575 44.3505C57.0511 44.3994 57.0351 44.4464 57.0102 44.489C56.976 44.5462 56.9278 44.5937 56.87 44.627C56.8122 44.6603 56.7469 44.6782 56.6802 44.679Z" fill="#314F9C"/>
<path d="M39.1297 41.6289C37.8764 41.6505 36.638 41.3546 35.5297 40.7689C35.0588 40.5961 34.6522 40.2828 34.365 39.8715C34.0778 39.4602 33.9238 38.9706 33.9238 38.4689C33.9238 37.9672 34.0778 37.4776 34.365 37.0663C34.6522 36.655 35.0588 36.3418 35.5297 36.1689L40.3597 33.3889C41.475 32.8216 42.7085 32.5259 43.9597 32.5259C45.211 32.5259 46.4445 32.8216 47.5597 33.3889C47.6024 33.4132 47.6399 33.4457 47.67 33.4844C47.7002 33.5232 47.7224 33.5675 47.7354 33.6149C47.7484 33.6623 47.7519 33.7117 47.7458 33.7604C47.7397 33.8092 47.724 33.8562 47.6997 33.8989C47.6754 33.9416 47.643 33.9791 47.6042 34.0092C47.5654 34.0393 47.5211 34.0615 47.4737 34.0745C47.4264 34.0875 47.3769 34.0911 47.3282 34.085C47.2795 34.0788 47.2324 34.0632 47.1897 34.0389C46.1905 33.5312 45.0855 33.2666 43.9647 33.2666C42.8439 33.2666 41.739 33.5312 40.7397 34.0389L35.9097 36.8189C35.5534 36.9238 35.2406 37.1412 35.0182 37.4386C34.7957 37.736 34.6754 38.0975 34.6754 38.4689C34.6754 38.8403 34.7957 39.2018 35.0182 39.4992C35.2406 39.7966 35.5534 40.014 35.9097 40.1189C36.9097 40.6242 38.0144 40.8875 39.1347 40.8875C40.2551 40.8875 41.3598 40.6242 42.3597 40.1189L44.7697 38.7189C44.8578 38.6709 44.9609 38.6587 45.0578 38.6848C45.1546 38.7108 45.2377 38.7732 45.2897 38.8589C45.3146 38.9015 45.3306 38.9485 45.337 38.9974C45.3434 39.0462 45.34 39.0958 45.327 39.1433C45.3139 39.1908 45.2915 39.2353 45.2611 39.274C45.2307 39.3127 45.1928 39.345 45.1497 39.3689L42.7297 40.7689C41.6224 41.3571 40.3833 41.6531 39.1297 41.6289Z" fill="#314F9C"/>
<path d="M45.9594 45.5688C44.706 45.5918 43.4672 45.2958 42.3594 44.7088C42.2737 44.6568 42.2114 44.5737 42.1853 44.4769C42.1592 44.3801 42.1714 44.2769 42.2194 44.1888C42.2712 44.1055 42.3532 44.0455 42.4483 44.0213C42.5433 43.997 42.6441 44.0105 42.7294 44.0588C43.7301 44.5619 44.8345 44.8239 45.9544 44.8239C47.0744 44.8239 48.1788 44.5619 49.1794 44.0588L54.0094 41.2688C54.3618 41.1612 54.6703 40.9433 54.8895 40.6472C55.1088 40.351 55.2271 39.9923 55.2271 39.6238C55.2271 39.2554 55.1088 38.8967 54.8895 38.6005C54.6703 38.3044 54.3618 38.0865 54.0094 37.9789C53.0102 37.4712 51.9052 37.2066 50.7844 37.2066C49.6636 37.2066 48.5587 37.4712 47.5594 37.9789L45.1494 39.3688C45.1069 39.3937 45.0598 39.4097 45.011 39.4161C44.9621 39.4225 44.9125 39.4191 44.865 39.4061C44.8175 39.393 44.7731 39.3706 44.7343 39.3402C44.6956 39.3098 44.6633 39.2719 44.6394 39.2289C44.6142 39.1869 44.5975 39.1404 44.5904 39.0919C44.5833 39.0435 44.5859 38.9941 44.5979 38.9467C44.61 38.8992 44.6314 38.8547 44.6609 38.8156C44.6903 38.7765 44.7272 38.7436 44.7694 38.7188L47.1894 37.3289C48.3047 36.7615 49.5382 36.4658 50.7894 36.4658C52.0407 36.4658 53.2742 36.7615 54.3894 37.3289C54.8571 37.5036 55.2602 37.817 55.5448 38.2272C55.8293 38.6373 55.9818 39.1246 55.9818 39.6238C55.9818 40.1231 55.8293 40.6104 55.5448 41.0205C55.2602 41.4307 54.8571 41.7441 54.3894 41.9189L49.5594 44.7088C48.4517 45.2958 47.2129 45.5918 45.9594 45.5688Z" fill="#314F9C"/>
<path d="M36.8201 36.2389C36.7571 36.2363 36.6955 36.2192 36.6401 36.1889L33.0501 34.1189C32.9651 34.0688 32.903 33.9875 32.8768 33.8923C32.8507 33.7971 32.8626 33.6955 32.9101 33.609C32.9622 33.5232 33.0452 33.4609 33.1421 33.4348C33.2389 33.4087 33.3421 33.421 33.4301 33.4689L37.0101 35.539C37.0532 35.5629 37.0911 35.5951 37.1215 35.6339C37.1519 35.6726 37.1743 35.717 37.1874 35.7645C37.2004 35.812 37.2038 35.8616 37.1974 35.9105C37.191 35.9593 37.175 36.0064 37.1501 36.0489C37.1159 36.1062 37.0677 36.1537 37.0099 36.187C36.9521 36.2202 36.8868 36.2381 36.8201 36.2389Z" fill="#314F9C"/>
<path d="M39.4393 34.729C39.3763 34.7264 39.3147 34.7093 39.2593 34.679L35.6693 32.609C35.626 32.5841 35.588 32.5508 35.5575 32.5112C35.527 32.4715 35.5046 32.4263 35.4916 32.378C35.4786 32.3297 35.4752 32.2793 35.4817 32.2297C35.4882 32.1801 35.5044 32.1323 35.5293 32.089C35.5543 32.0456 35.5875 32.0077 35.6271 31.9772C35.6668 31.9467 35.712 31.9243 35.7603 31.9113C35.8086 31.8983 35.859 31.8949 35.9086 31.9014C35.9581 31.9079 36.006 31.924 36.0493 31.949L39.6293 34.019C39.7022 34.0606 39.7593 34.1252 39.7916 34.2027C39.8239 34.2801 39.8297 34.3661 39.808 34.4472C39.7863 34.5283 39.7383 34.5999 39.6716 34.6509C39.6049 34.7019 39.5232 34.7294 39.4393 34.729Z" fill="#314F9C"/>
<path d="M23.6199 43.2989C23.5516 43.3003 23.4843 43.2823 23.4258 43.2469C23.3674 43.2115 23.3202 43.1602 23.2899 43.0989C22.5991 41.8817 22.2293 40.5088 22.2153 39.1093C22.2013 37.7098 22.5435 36.3297 23.2099 35.0989C23.2566 35.0131 23.3347 34.9485 23.4278 34.9187C23.5209 34.8889 23.622 34.8962 23.7099 34.9389C23.7546 34.9611 23.7944 34.9921 23.8269 35.03C23.8594 35.068 23.8838 35.1121 23.8988 35.1598C23.9137 35.2074 23.9189 35.2576 23.9139 35.3073C23.9089 35.357 23.894 35.4052 23.8699 35.449C23.2601 36.5646 22.9472 37.8181 22.9613 39.0894C22.9753 40.3607 23.3157 41.607 23.9499 42.7089C23.9961 42.7952 24.0062 42.8962 23.9781 42.9899C23.95 43.0836 23.8859 43.1623 23.7999 43.2089C23.7483 43.2534 23.6864 43.2843 23.6199 43.2989Z" fill="#314F9C"/>
<path d="M44.96 52.329C39.3872 52.4381 33.8793 51.1196 28.96 48.499C28.9169 48.4751 28.879 48.4428 28.8486 48.4041C28.8182 48.3653 28.7958 48.3209 28.7827 48.2734C28.7697 48.2259 28.7663 48.1763 28.7727 48.1275C28.7791 48.0786 28.7951 48.0315 28.82 47.989C28.8439 47.9459 28.8761 47.9081 28.9149 47.8776C28.9536 47.8472 28.998 47.8248 29.0455 47.8118C29.093 47.7987 29.1427 47.7953 29.1915 47.8017C29.2404 47.8081 29.2874 47.8242 29.33 47.849C37.95 52.849 51.97 52.849 60.59 47.849C62.8152 46.6719 64.6758 44.9082 65.97 42.749C68.37 38.329 66.31 33.539 60.59 30.239C51.97 25.239 37.95 25.239 29.33 30.239C29.2874 30.2638 29.2404 30.2799 29.1915 30.2863C29.1427 30.2927 29.093 30.2893 29.0455 30.2762C28.998 30.2632 28.9536 30.2408 28.9149 30.2104C28.8761 30.1799 28.8439 30.1421 28.82 30.099C28.7951 30.0564 28.7791 30.0094 28.7727 29.9605C28.7663 29.9117 28.7697 29.862 28.7827 29.8145C28.7958 29.767 28.8182 29.7226 28.8486 29.6839C28.879 29.6452 28.9169 29.6129 28.96 29.589C37.78 24.499 52.14 24.499 60.96 29.589C67.06 33.119 69.24 38.299 66.62 43.099C65.2604 45.381 63.3033 47.2482 60.96 48.499C56.0396 51.1167 50.5324 52.435 44.96 52.329Z" fill="#314F9C"/>
<path d="M18.3495 54.8291C16.0342 54.8758 13.7761 54.1078 11.9695 52.6591C9.04946 50.2791 7.43945 46.0891 7.43945 40.8491C7.43945 28.5991 16.0795 13.6491 26.6895 7.51909C31.8995 4.51909 36.8095 4.0391 40.5395 6.1891C44.2695 8.3391 46.2995 12.8291 46.2995 18.8491C46.2932 20.4232 46.1662 21.9944 45.9195 23.5491C45.9 23.6454 45.8449 23.7309 45.7652 23.7884C45.6855 23.8459 45.587 23.8711 45.4895 23.8591C45.4406 23.8518 45.3937 23.8349 45.3515 23.8092C45.3093 23.7835 45.2726 23.7496 45.2437 23.7095C45.2149 23.6694 45.1943 23.6239 45.1832 23.5758C45.1722 23.5276 45.1709 23.4778 45.1795 23.4291C45.4228 21.9145 45.5465 20.3831 45.5495 18.8491C45.5495 13.1091 43.6395 8.8491 40.1595 6.8491C36.6795 4.8491 32.0295 5.31909 27.0595 8.17909C16.6595 14.1791 8.18945 28.8491 8.18945 40.8591C8.18945 45.8591 9.69945 49.8591 12.4395 52.0891C13.6394 53.0082 15.0335 53.641 16.5153 53.9391C17.9971 54.2372 19.5275 54.1927 20.9895 53.8091C21.0374 53.7989 21.0869 53.7983 21.1351 53.8074C21.1833 53.8165 21.2292 53.8351 21.2701 53.862C21.3111 53.889 21.3462 53.9239 21.3736 53.9646C21.4009 54.0053 21.4199 54.051 21.4295 54.0991C21.4411 54.1471 21.4428 54.1971 21.4343 54.2458C21.4258 54.2945 21.4074 54.3409 21.3802 54.3822C21.353 54.4235 21.3176 54.4587 21.2762 54.4857C21.2347 54.5127 21.1882 54.5309 21.1395 54.5391C20.2219 54.7312 19.2869 54.8284 18.3495 54.8291Z" fill="#314F9C"/>
<path d="M13.58 53.6389C13.5208 53.6529 13.4592 53.6529 13.4 53.6389L5.78 49.3789C2.05 47.2289 0 42.7288 0 36.7088C0 28.9688 3.41 19.9389 9.1 12.5689C9.12952 12.5286 9.16689 12.4947 9.20986 12.4692C9.25284 12.4437 9.30053 12.4272 9.35005 12.4207C9.39958 12.4141 9.44991 12.4177 9.49802 12.4311C9.54614 12.4446 9.59103 12.4676 9.63 12.4988C9.70698 12.5617 9.75709 12.6515 9.7701 12.75C9.7831 12.8485 9.75803 12.9482 9.7 13.0288C4.1 20.2688 0.75 29.1288 0.75 36.7088C0.75 42.4488 2.67 46.7088 6.15 48.7088L13.77 52.9389C13.8131 52.9628 13.8509 52.995 13.8814 53.0338C13.9118 53.0725 13.9342 53.1169 13.9472 53.1644C13.9603 53.2119 13.9637 53.2616 13.9573 53.3104C13.9509 53.3592 13.9348 53.4063 13.91 53.4489C13.8758 53.5061 13.8275 53.5536 13.7698 53.5869C13.712 53.6201 13.6467 53.638 13.58 53.6389Z" fill="#314F9C"/>
<path d="M13.4401 8.60892C13.3395 8.60752 13.2431 8.56823 13.1702 8.4989C13.1011 8.42796 13.0625 8.3329 13.0625 8.23392C13.0625 8.13494 13.1011 8.03985 13.1702 7.9689C15.0005 6.18779 17.0385 4.63328 19.2402 3.3389C24.2402 0.458899 28.9901 -0.101098 32.6601 1.7789C32.7036 1.8011 32.7422 1.83168 32.7738 1.86887C32.8054 1.90606 32.8293 1.94913 32.8442 1.99561C32.8591 2.04208 32.8646 2.09103 32.8605 2.13965C32.8563 2.18827 32.8426 2.2356 32.8202 2.2789C32.799 2.32333 32.769 2.36295 32.732 2.39533C32.6949 2.4277 32.6516 2.45214 32.6048 2.46713C32.5579 2.48213 32.5085 2.48734 32.4595 2.48248C32.4106 2.47763 32.3631 2.46281 32.3202 2.43891C28.8902 0.688905 24.3202 1.23889 19.6102 3.98889C17.4642 5.25496 15.4769 6.77235 13.6901 8.50891C13.6571 8.54126 13.6181 8.56673 13.5751 8.58389C13.5322 8.60106 13.4864 8.60958 13.4401 8.60892Z" fill="#314F9C"/>
<path d="M21.0909 29.649C20.9919 29.649 20.8967 29.6103 20.8257 29.5412C20.7547 29.4721 20.7135 29.378 20.7109 29.279C20.7857 28.0262 21.1542 26.8087 21.7865 25.7247C22.4188 24.6407 23.2973 23.7207 24.3509 23.039L29.1809 20.249C29.5827 19.9647 30.053 19.7926 30.5434 19.7504C31.0337 19.7082 31.5265 19.7975 31.9709 20.009C32.3797 20.2858 32.7061 20.668 32.9156 21.1151C33.1251 21.5622 33.2098 22.0576 33.1609 22.5489C33.1583 22.648 33.1171 22.7421 33.0462 22.8112C32.9752 22.8803 32.88 22.919 32.7809 22.919C32.6828 22.919 32.5887 22.88 32.5193 22.8106C32.4499 22.7412 32.4109 22.6471 32.4109 22.5489C32.4964 22.1849 32.4609 21.8029 32.3098 21.4609C32.1587 21.1188 31.9002 20.8353 31.5735 20.6533C31.2468 20.4713 30.8698 20.4008 30.4994 20.4523C30.129 20.5038 29.7855 20.6747 29.5209 20.939L24.6909 23.729C23.7513 24.3415 22.9692 25.1668 22.408 26.138C21.8469 27.1092 21.5224 28.199 21.4609 29.319C21.449 29.4092 21.4051 29.4921 21.3372 29.5526C21.2693 29.6132 21.1819 29.6474 21.0909 29.649Z" fill="#314F9C"/>
<path d="M25.5996 23.0989C25.5023 23.0964 25.4096 23.0566 25.3408 22.9877C25.2719 22.9189 25.2321 22.8262 25.2296 22.7289V18.5889C25.2207 18.5345 25.2237 18.4789 25.2385 18.4258C25.2532 18.3727 25.2793 18.3234 25.315 18.2814C25.3507 18.2394 25.3951 18.2057 25.4451 18.1826C25.4951 18.1595 25.5495 18.1475 25.6046 18.1475C25.6597 18.1475 25.7142 18.1595 25.7642 18.1826C25.8142 18.2057 25.8585 18.2394 25.8942 18.2814C25.9299 18.3234 25.956 18.3727 25.9708 18.4258C25.9855 18.4789 25.9885 18.5345 25.9796 18.5889V22.7289C25.977 22.828 25.9358 22.922 25.8648 22.9911C25.7939 23.0603 25.6987 23.0989 25.5996 23.0989Z" fill="#314F9C"/>
<path d="M28.2196 21.5891C28.1206 21.5864 28.0265 21.5453 27.9574 21.4743C27.8882 21.4033 27.8496 21.3081 27.8496 21.209V17.0691C27.8642 16.9801 27.9099 16.8992 27.9786 16.8409C28.0473 16.7825 28.1345 16.7505 28.2246 16.7505C28.3147 16.7505 28.4019 16.7825 28.4706 16.8409C28.5393 16.8992 28.585 16.9801 28.5996 17.0691V21.209C28.5996 21.3098 28.5596 21.4065 28.4883 21.4778C28.417 21.549 28.3204 21.5891 28.2196 21.5891Z" fill="#314F9C"/>
<path d="M12.8802 29.8789H12.7602C12.6666 29.8449 12.5901 29.7757 12.5471 29.6859C12.5041 29.5961 12.498 29.4931 12.5302 29.3989C14.0479 25.193 16.2882 21.2843 19.1502 17.8489C19.2138 17.7733 19.3049 17.7261 19.4033 17.7177C19.5018 17.7092 19.5996 17.7402 19.6751 17.8039C19.7507 17.8675 19.7979 17.9586 19.8064 18.0571C19.8148 18.1555 19.7838 18.2533 19.7202 18.3289C16.9199 21.6978 14.7271 25.5282 13.2402 29.6489C13.2101 29.7189 13.1597 29.7783 13.0955 29.8193C13.0313 29.8603 12.9563 29.8811 12.8802 29.8789Z" fill="#314F9C"/>
<path d="M16.1607 49.829C16.105 49.8439 16.0464 49.8439 15.9907 49.829C12.6407 48.169 10.7207 44.239 10.7207 39.019C10.7353 38.93 10.781 38.8492 10.8497 38.7908C10.9184 38.7325 11.0056 38.7004 11.0957 38.7004C11.1858 38.7004 11.273 38.7325 11.3417 38.7908C11.4104 38.8492 11.4561 38.93 11.4707 39.019C11.4707 43.939 13.2407 47.629 16.3207 49.159C16.365 49.1803 16.4046 49.2102 16.4372 49.247C16.4698 49.2838 16.4948 49.3268 16.5106 49.3733C16.5264 49.4199 16.5328 49.4691 16.5294 49.5182C16.526 49.5672 16.5128 49.6151 16.4907 49.659C16.4555 49.7139 16.4065 49.7585 16.3486 49.7884C16.2906 49.8182 16.2258 49.8323 16.1607 49.829Z" fill="#314F9C"/>
<path d="M42.7298 21.099C42.6804 21.099 42.6314 21.0891 42.5859 21.0699C42.5403 21.0507 42.4991 21.0225 42.4646 20.9871C42.4301 20.9517 42.403 20.9097 42.385 20.8637C42.3671 20.8176 42.3585 20.7684 42.3598 20.719C42.3598 15.979 40.7798 12.459 37.9098 10.799C35.0398 9.13898 31.2098 9.539 27.0998 11.909C27.0573 11.9338 27.0102 11.9499 26.9613 11.9563C26.9125 11.9627 26.8629 11.9593 26.8154 11.9462C26.7679 11.9332 26.7234 11.9108 26.6847 11.8804C26.646 11.8499 26.6137 11.8121 26.5898 11.769C26.5423 11.6824 26.5304 11.5808 26.5565 11.4857C26.5827 11.3905 26.6448 11.3092 26.7298 11.259C31.0698 8.74901 35.1798 8.35899 38.2898 10.149C41.3998 11.939 43.1098 15.699 43.1098 20.719C43.1098 20.8198 43.0698 20.9164 42.9985 20.9877C42.9272 21.059 42.8306 21.099 42.7298 21.099Z" fill="#314F9C"/>
<path d="M40.6391 7.03901C40.5754 7.04125 40.5126 7.02377 40.4591 6.98899L32.3491 2.47901C32.3064 2.45472 32.269 2.42224 32.2388 2.38346C32.2087 2.34468 32.1865 2.30036 32.1735 2.253C32.1605 2.20564 32.157 2.15619 32.1631 2.10746C32.1692 2.05873 32.1848 2.01168 32.2091 1.969C32.2334 1.92632 32.2659 1.88885 32.3047 1.85871C32.3434 1.82858 32.3878 1.80637 32.4351 1.79337C32.4825 1.78037 32.5319 1.77682 32.5807 1.78294C32.6294 1.78905 32.6764 1.80472 32.7191 1.82902L40.7891 6.339C40.8322 6.3629 40.8701 6.39517 40.9005 6.43391C40.9309 6.47264 40.9533 6.51705 40.9664 6.56455C40.9794 6.61206 40.9828 6.66171 40.9764 6.71055C40.97 6.75939 40.954 6.80646 40.9291 6.84901C40.8987 6.90089 40.8567 6.94504 40.8064 6.978C40.7561 7.01096 40.6988 7.03184 40.6391 7.03901Z" fill="#314F9C"/>
</svg>
